<mxfile host="app.diagrams.net" agent="Mozilla/5.0 (Windows NT 10.0; Win64; x64) AppleWebKit/537.36 (KHTML, like Gecko) Chrome/119.0.0.0 Safari/537.36" version="27.0.9">
  <diagram name="第 1 页" id="vAbiKJ6IcJPfzCZfV6Ad">
    <mxGraphModel dx="1213" dy="747" grid="1" gridSize="10" guides="1" tooltips="1" connect="1" arrows="1" fold="1" page="1" pageScale="1" pageWidth="827" pageHeight="1169" math="0" shadow="0">
      <root>
        <mxCell id="0" />
        <mxCell id="1" parent="0" />
        <mxCell id="1PQOqHi99bvH2CJPt65L-4" style="edgeStyle=orthogonalEdgeStyle;rounded=0;orthogonalLoop=1;jettySize=auto;html=1;exitX=1;exitY=0.5;exitDx=0;exitDy=0;" parent="1" source="1PQOqHi99bvH2CJPt65L-2" target="1PQOqHi99bvH2CJPt65L-3" edge="1">
          <mxGeometry relative="1" as="geometry" />
        </mxCell>
        <mxCell id="1PQOqHi99bvH2CJPt65L-2" value="" style="shape=image;verticalLabelPosition=bottom;labelBackgroundColor=default;verticalAlign=top;aspect=fixed;imageAspect=0;image=data:image/png,iVBORw0KGgoAAAANSUhEUgAAAKMAAADZCAYAAAE70rCxAAAAAXNSR0IArs4c6QAAAARnQU1BAACxjwv8YQUAAAAJcEhZcwAAFxEAABcRAcom8z8AAP+lSURBVHhehP0HVJXZlu4P73OqykTOsMkZxIAZiZJzzlFyzjkKSBYUSYo5o5JUJBgQc6oylQEMpVadqnNOneoTuvv07ds3/L/ff7wv1d237ze+8TnGHO/em42sPfda651rzud5pqS2rZHU1GQCA31YqyeHrYES62SXsm7FcjbJrmCrzBKCXTSI9FBje5A6GVFmGCl/QbGjEoXeGmR6KVDorYnRprXI6En5UkUTSeuebrKzM4kMDWKrgRLbjJRxU5Eh2lKHIJVlxBiqU568mlh3dXKjzMkKNcFc6UvKnVTJ2qhJjqMa6RvVkNfXZqmalK9U1ZH07d9HYVE+UWEhOBgq4WqmhI9UBSf5ZYRKVUgx1CA7yIDKlJXkx+iTH23AZrWlVLprUeEqpWCTBuEW6qzQ0WGJmgYKFlZIDh07Sk1NDXFR4Ww1UcXdTBEnBRkiDdTIX2uIi6wc1alrqUo1pz7HhJpMA3wtZakP1KPSy4BSFz0+//JPnD13glXumyjpqENy5vwoO3fuJCUxBj/79bibKeGlrkSElhpecsupsNKnJsWAikRd8iJ1KE8yJM1Gh8INilTY6ZCzVpff/fwHjp8+hKHdSur2tiIZn5ikZVcnOSmpxEUF4W6ihLeiCn5KCmSb6lK+3oiyOANKt+uRFqxPQbguVe4WpFhKKbQzpNLJhG/efuLwiQMoGShTvbcJyaXpObr2dpOXnUJUkB9uJhq4qSgQqalLnFSOEHV5apNXkRtiRUG4AQUxm2iLMsZJ7kvqvQ0I1pfn0uPHBMX4s2adGWXdO5HM3bnPwMFBSgvyiQ0JwMVIBRdNWZLXmBOspUismRYZvuaE22pSFG9FQYQZlT4GeOkpUxy9Gn8HI64+f054Yii1nQ2UtNUiuf/kNWfODlFRUkxMsB92ekrYaMkRY2pInL6UULnlZPibEOdmSaK7Op4bdSi0M6bS3Yh8Oyl9B/dz7e0zNm9bTXJJNmWN5Uhmb9wiNyeL+tpSogJ82aqnhK1UAR9FeezVFLBdsRT/DVJSvSxJD1hJsq8lxdt0yd6giKO2LFVNjbj7OtLbVslmm3WstDRG8vbDD4xfGGFvWyPBvu5YayuyXmMF67/6kta87ezMiWZnYSIlOYm0V6bQXLqdKEdLQqz1ka74DVoyv6UyM5qpS2c4MbiHC0NHkDx/Nc+VK9OcPNCLr7M9FhqyrNeQ5ejeJsrSwjm8q5ZDXbWsc7Lj0O5qjuyppjo7lv1tZejILsVUTYba3FhOHtjNlQtn8HCzQfLNi7cMDw9RlrOdWN9trJIqMT1+kgtDBxk/c4Cxw3sZObKX3LRYRg91cuHEXsaO72Hs6B5GTw3QUpnBkb21eHk6MDp0mMlLI0iePPuakAAfttlYEea6Bfeta7gxeYH2pipmJ4aYu3wBMx0VLIw1GT81KL52efgwF0/uY3xogIPdOxk7uZcVsku4NHaSbx/dQ9LbXUPy9ijaagpIi/LhxrVL3Jwe48bVcW5fG+P+9QnuXRnn7rWL3J4Z4fbVceamLjE5fp7zZw4ye3WKKxeOc/f6OBfPHeaL30qQ7G4uoqW2gB1lmTy6NcP9m1fYbq7GoxtXeHRzmse3ZngsXG/McPXiSYZPDnDhzDDfPH5Gir0L9+7ew9JAlf5dDVwePsHc9SkkexqLaKsvZG9bNQvP7vPuxSPevnrKh4UnfL/wjM8fnvPpw2s+f7fA549v+OHjPL/7/js+f3rHjz995tOnD3z38SMlWfHsqinkh999QDJ6sp+OmnwG9zYzPnSM0d5aFp7e4923j5h/9YxPbwR7wuf5p3y/8IrP7xf49GFetO9ePWXybD/37t3j1twsF8ZOkWyvhqSxPJ1jA50Mn9zPicO9LDy7zYmj+8hLCqc6Mw5fY2W8TeWIWi8lbK0ae6pzmZy5wtzsbebm7vD5wwKHDgwyOTXJpw8LVPqbILl77RKzVy/zYPY6z+7dYv7pPX766UdC10sJ36hFnqMhWQ66pGyVkrZZnbFDnSy8mefjh0+8/PYpn4SRf/6BT59/x/fv56kNNUNiqqlEenIYfmvUiLSR8ubJXf7yD3/Gy2Q5Eeu1CV2rQtIWXQpc9Mh30KUuYCWfP35PrrMBk2cH+PjhDWFrVMh2N+ePv/8dVb4mSFZZGOFqoiiOKs5GW/TnP/7lb+wqyaAu0IoWP1N2R1nRHrKSMidNWiNX0Rm7gf5MWy4e6+TT+3laotaww9+YHz+8ozXCAslGA3lcTRTwW61EyBolXj+c4x9+/geePPmaxrA15NvJszPQiP1pNnRHrOJQ4TYOZtpzvNKPy6d7+Dj/mrM7Ajia7cj379/Rn7kVSaC1CgVeKykJsCRnmwH358Z58+0LJi8Mk+8spdJVna7oVQykbaUjzJzE9UsZrXVjMN+JFw9n+fThPeMtwRwr3cbvPn3P+K5QJNEb1Uly1CNpkypZLtoMVsQy/+Qpbcm2HMq3Y3e4GS2B+rSGmVDvoU1buCknC2w5X+HG5/lv+df/9i+M1nox1R1Ff+omJjvDkXSl2dKRaEOplyHlvoaUeOrw/P4D5g6mcqk1kKFCO8br3Bmt9+B03mb6ElfSGWlKjYeUNy+f8s2lnVzbG8bsgUym90YyXu+DpCvXkb5sJ/qzbDhR5cW5Wk8utgQx0RPLdHcEF+o8uNwSwES7L5drXZjqDGF8px+TLf7cH67g/ul85vYnMDeYyfXBdCY7wpDcOF7KlcEsbh4v5uaRHOb2xXL3ZD73T+RydU8kV3b5c3NfHDcOxnO1M4jr/ZHMDiaIoxveE8+tYznc3JfIVHcYtw9lc21vHJL8olzCwoJwtl2Prb48bspyrJVZynoZGRwUZdioJkOwmwYJgVqkRBqTFKxPma0G5cEaFPqokb5ZHjU9Jb5UlGe5hg6SypoKYuMiCfTzwd5Iga1yS/BQlmGb0nLidVVI3mRIQaw5Me7qlKauI8lPn3IHLTI2K5C+UYWqIB1UdLSQ0dHhS1VNJM1trSRujyZM2KBNVHDRVsJZcTm+qgoEqivjpSJHko8GhXH65ERqU5luQp2/PjWeupRv0ydAYzkrpBrIauuju34LkrauLrIzs4gS7vPGKjjoK+AtVSFKW5lwdQWiNNWpy15HWbIODXmGVKUZUh+kT76TMnV+RqRnpzMwegb/cF+C4oOR9OzbT1FRAdHhITibqOJipIivuiKxBtq4r/iCKDV5imPVqUszpCBah7JEHUq2qFNqq0GZkwbvf/ojByaHcffeRkNvsxDhnaCyoozYqBBcTZTxMFElWE0FHyV5amxNiJYqUZ5gQGGMISWxuuSG6LLdXJWirbokGinz89//lYiBHZjYWFDaUYvk1Nlh6mqrSQwPFUfoYaqGr5IK0VpKRGvJEqAuQ06wHrHOWiT7a+K/RYXmYEPStxlT5arH9qQUcvoaMXGwoqijBsnohSmamhpJiIvExlBF3JWCdBUIlCoRZKZLrL6Uoih7dqSvJNFDh8wAC7xkl1O8fTMlket4+8NPXJm+RKDXOvJaq5BMX7tBTXUlyQnReG+yxMFAiXBDQwLU1YiWyhGspUCqjzFB1hpEOWlQlORBpFSRXDtl0jZrIvzbkZ/EKgsNUqvzkdy9d48Txw6Rtj2GcA9nMfjyVZbHSX4FZiu+xEdBnhQ/cxLs9dnubYKtnhL59qr4GCqwWVOGtPwczhzqYnD/XtZtWYvkzr17nDl+iLS4SLy3bWW9ljzrli2hKSceJwNFWnLiaSlLpr4okY7KVJzM1GjOiURb5jdorfgCqewX7KrNJjrIk3PH+5AUV1Ry7PAARanRONusZZ3mcjKj/TjY3cChXdUc7qympTaX3rYqjuyp5WBnGYOtpVRkxKCntISMSG+k8r8hOT6YkVP7kVyfu80GawsSglxx3LCSlWrLxEhsR2kWF072cf7gbsZP7uPC6X5Gj+5m9Nhuzgy0M3K0i47aXFJCnLl26RjHD/Ry5fIYkuqqMtrqS0kIcWHbZituXB5mduIcNybOi49vTIxiZqCOibYiNyfOMjN8jLHTA4yfGWBq5Bhp4W7Iy/yWg/vauTZ1AUlzTR6+7g642q7m4vnj3JwZZ09LLbevjHHv+iXuXbvI/auj3Lsyyq3pce5cvci1y2PMTY1y//5tdpTnoSb3G4YOdHH14lkktaVpBHu50NFQzP1b0/ia6RGkLOHhjRkxFvr69mJcdOfaOFfGjpGWkkl3zyD763cSHhXBrRtXuXDmAGeP9mOg/BWSzqZSunZWM//NXd59+4CvH9zk3fxzMUz59O7ZYhz08Q3ff3wr2o/fv+P7z+/5/Ok9jx7e5+PHd4yNnObE/m6uzlxAkp0Uxr6OOvbvaeJ8TzUf3r0WI4yFl9/w3evn/xEDiXHQ/Gs+vn0jhiZCHDR17gjT5w8yPTPD6LljfHr/BslgdxNnj/UxfOIg88/u8+ff/8i+Pa0c2rMTJ/0VeBvJE7JGkxArRaI3ajI6cp5rV2e5MXeHJ3dv8endG06fOcnde7fZnReKZHZmlNnrkzy8c51vbk/x5ttnvHjyhLHDvWQ4G5Blr0XqJk0x9sl20CXDeRWfvvssxj+f37/h88fv+PT5R8aGT9MQvgaJmYGUddpLCN2kzdfXz/PmxXPu3LmBz0olQteosX2DJoWuphQ4alHha8rE2WNErdchy8GAz2/f8b//n//NNnNlnj+YpdjbGImdgSJ+q1SI2KjFdkczFp5+zdzcTaK26tIUakGrnynt4eZUuWhT5a3Pd+8+MpBqw4FcJz69nef6UA/VgYbMXjxCR9xaJLa6y/C2UiBkgzqRGzRYePaIHdlx7Ai1ptbfhCJ7ZfqTNrE3ciVH8p1482KeQzkO9GfZiv/hyXI/ztUGMJBmS1/GJiQpjsYU+lqS66JHtoshb57eZ+hQH6m26pS5StnpZcie2DUMJG6gylWdRzcuMl7rzlhHGN/Pz3Ou0o2LLSHk2skz0x6BJMFWSqqzAel2WuyItObl1/f5x3/+Vw7kOrA31opmX12aQwzZ4aVNY4AuPSnWnC1x4tLeLH6Yn2e83pfpPZHc3J/BcJ0Xkj0ZDtQGWpLvrE11oCnP78/xj3//O9M9MZwrdOJ8qSOX6jw5V7iVwVRreuKs2OljQJrnGt68fM6N/ghu7N/OVF+iGKpI9pV6ke9jzokKT07VejHa6EtrthdTe6OZqPdivNGLCy2+XKh14UK1M9O7w7nU4M3V7jCejNVw+2ACcwNp3NifxlRXBJKrB7KZO5jLjSOFzA1s5/ZgEvfO5HPzQCbXd4dxS4ht+mO51hXI1S4/ZgfiudYbznS3P3dPFvLoWAE3++K4OZjCrUNZSFrbWygpLSYjPZWYmDCCg/zw83Jmvb48tvqK2Bkq4qqigK+WAj4a8nhqKhChp4GPpiI2Mkuxk5fBTlWG0sRVxPlqE+WiSZK/DknBemRGmZISpMd2Hz1MFX5D0UY1SpzVyLNXodpHl6ytqhRt0yRtoxyJqxUxXmfMb2WWoqBnzDItA5YpSVHQN0DS3ddLfeMOcnOz2R4XTVRYMCFBvmJSy9FYCVdTdbaqriBYR4NAbUXcNOTxUVhOpLYizjJfkmalR7ShGnmRRiT6SIn31GS7twYZ4UbkRpmS4KNFcrAhq1W/oj5Cn2JXNeqDjahw0abIRY+MTXrk2KpQ7K7PMg1VlK0MWa6nLoZLy5W1WaakjaTv8AFaOnZRVlpJenKSGOmEBPthb6CMi4kCbqaKOGgvJ8JMhxBdVdyVV+CnJYe/shzhUiWcZZfhrLCceA9NqlJXkROqR36MDrXZhhTF6VAQo01Vugl+FiqUO6pS4aBGjbOUMnt9MlYpUOGsS4LLWprbG4nLycEnMhzz9dZor7NExdgIp4gAJMdOnaOzu4fGxkYK8nNJjIsmJiwEJ0sprsZCnkwZR0Nl/FQUCdDWIFBXlUAVORL0tAlRUyTdQJ0YVTlK4syozzajudCcHdkmVKcLpk95sh6VqfpEr1eg1leL7M0aFNirUGCrTeo6LWL1lDk4dJIffv4HBi8PUVFZiGeQBxau66nb3URlVwOS02Pj7Dt4mNb2NsrKSkhPiiM2OpRwXxcxMhNSZG6mSoSoqxCiqSYONkKqSai6EtHqCoSpyZGoo0hdkik1qQZUbtclI1CNDD9VypL0KYhRIztSStIadSpsdKl20qbOVUqViy5FjlqUOujzz/8bvvvDL9SdG+T88Gm2uNqgscaA6j1N1PS1Lebtjp0aYteebjEoy0tPJTEihLiIYJyMlHA3VsTDVBlneTlc5GQIVlUmTEWFGHUZ4jSWE6mlgqeyHAWhhuSFaFEWo09xtDZlCXpkBUhJ9jEm0VvK9jU6JJkq0OBvQqKNAS4Ky8nfqsN2S1XMTUyYfPI1jvVpFFYWoLXBmOUqyyhsr6Zqz04kE9dvcG70AsICamyopyAnW4xvY0P82GqgiKuxGq7GKiR6bSY/NZh0p3Vkum3BTWYpcWZGeKrIk+VoQ27IaoojV5Lgrk9KpCMZ8d7kJGyiOt2KhlwHdsTaEGWkSaieFo35gVRvt6MmzYVwJxMGDhxm4uk3nDh3gvD4YHyDtlJUnU9RaxXF7TVIbj54wsXJaY6eOEF7WyulJSUkxUURG+KPnYkm24wUcDVSxlZTDnupKt5aaviqyxJrrEH6ZnMSLPWwk1tKlI2U7Z7GxDkbkhW6iYJoOyrTN1Eab0C4gw6NIbpUuJphs3QJlUF61IUbUepvSF5ynBga3114xczkBAFhPthvNCanrpjMmkJKhNj73rN5RkfHuDh2icF9fVSWFolhc0yQLwHbbLHRURBT4kLuMkRXm2BdXVwUFfFXkMVLYTkRUlW8lOUI3qhDpK0qnhYyRG3QJHyTOokeuqQHriTVbzNeSnJU+mhR4qhB/mZVYs2FbLgiFfV1dPX1s97bgZaqDFqrcqgqz2Gt7TrW2W/AaoMlklcL7/n2xQsuXRrmwvkhqspzyUqII8LPm2CPbayXymOro8gWHQVs5ZZiLy/LhqW/xW7pb3Fd+hXOX32F09Iv2GamQJyLPkdsnXEzXk6Uix4hWzUwVpTgslqH7atlibGQIdBwBSbyv8FcaTmGCl9x7PQQQeHBNJQks7s2n66mUixMdbGxsWZfXzsmRupIXr79zK3bd7Bet4rBgb30tO8kMy6CII9teNqvY42WHOs1V7BOXRaL5UsYbKukr7GI/uZiehsK6G8qFq2voYCBXZX0djRzqKeF/vZi+psL6G8ppK8pn0O7KtlVkUZXVTpSWQmaMl+iJfsFRgpLWaWnRVtFLmcP7Bbj5/6uag4f2I2fjyPjw6eRPHv5mvbde7gyM4GHmwPdrXWkhHvhabsWt81WrFSTxVJVBiOFLzi5r5XTA+2c3tfJmf27GBrsYmh/G6cHmjnZ18KRA01cTczg3K5qhg60cPZgK2cOtHNmsInzh7vExycHWji1byeyX0nY01BMb3MFxduDKU8Pp7u1WEw7aqorMnpqkIsjx7gyeR7JrbuPOHP6HGmp8ezaWU1NcSYZ0X4khrpiY22BtaEWnfWVTI4PMT1yiunR01wZP8vM2Clmxv798RmuXzrHjcsj3Lo0zNyFM0yeO8rkUC8TZwbEvPDo8b3sbixj7EgX5w51cvJQO7ISCYlBTuTH+6OlpsC1S8dZsnwZk6PHGT1/hMlLo1yfGUWyu7Oe4oIsgoO9aawtJDc5guz4QPydN5Ee5cvNqxe4MTkiHl8Eu3P9ErNTI8xOjzI7Pcbs1AVmhaOO8LPpMe5evcCdK+Pcnhnj1vSomBIWUsZi2nh6jIGuJm5MjjE7Ocq1yyP09bTSWpXFxaF+jDSWcbSniZODu5k4f5zpsdNYW+kj6emopr48g8qCNGzXWdBUlkbO9lAq8pK4OTvFrRvT3Lx+gYnzR7kyeoz71y4snsOuT3L/mmDT3LmyOLC7V8e5dWWEaxdPMjN8mPGhPo72tzE6PExbxx6ad/fT23+A1o4OdjbWsb28gqnpGW5dnyEvNYLUSF8O9bVy/viAmH4+c+IAE2PHkXTuLGHPzmKGj/cR7ufOzqpsrl8+x4Mbk/9hd29M8/T+rf/y2sMbk7/mvad5cPs69+9c5+tbczy9O83Xt6e5dWWMifFTjJ06wKotNuTm5pJfWc+OHUIJMY3g8EjaWpt5/PwpN27fYP7Vt9QUpdLZWMahwU5eP71HakwA3717iWTfrkp2N1VTmZsgTtr93a1cvTjE49vT3J0a4t70ad48v8/LxzeZf3qHhScPeff8Ae9ePOTtr9f33wq59Se8f/2U929e8O7NM97Pf8vHhW/5bv4537/9ls/vX4k/+/DhFR8/vOb3P3zgh/cv+e7dcz7Mv+Dz50+MCIet4lROHevHf7MBv3v/jh3pQUhytgfTUJxOf2sVB7p3crCnXUyZDx3t4VRfFSP9tTx/8oBX39zn1de3efP0Ee+e3WXh2V3mH99j/vFt3jy5w8LTu7x+/oCFF/d49+weC8KH+PYBHxYe8eHtGz4uvOTDwuL108IbXj9/xKmBFqbP9jF1bpDx8cvce3Cf+18/ITfMg7dvnvOnP/xEjrM2krNHBxg/e5Cxc0e4PDbEzMQoUxfPMjVyjtdf3xYPyMIh+OnjBxw6NICThSJHe1qxNVYkbKM2/pby+JvIEmAsR9AqeaLXqhO2Ulm8Jm/VZqAuh9biNB48fMjtOw+4e+cB9x9+zZ17d3n3+gUf383z3bs3PH30jG+ePufVt6+5e+eWeLarCTenNtgCyezVcR7OzXD/9jSP7wi1gTme3lm0+9fGxUG+efGUv/71Lzx8cI+g1Wq0lCSRaKdLmZcZpR7GVHkaU+1jRrWfOTW+5pS5GlDgqEOOkx4Tp3rpKtnOuw+fyPMwpcDThAwHXUYPt4uJdCED8POffiHL1YLhw3vZmWDDnWsX+fHHH2iJWkumx2okLls2Ymmsi72xMj6rNMT8WNA6NfFk27sjb3GQz5/zl3/4C/dv3SDLw4Isd1Oq/M0p8TAm11GHXDtNirZpU+auR42vEXXehrQFW7I7bh09Kba8fPKYc307yXI0oDF0LfUhq7hytpfP7xbLNX/83XuxrNAQZsGOQAu+vjvDD5/e0xy5irZICyTmBmps1V22mCVcq0XoOnXCN2gQtVGdUGsV3n5zRzyC/+2v/8T1yUtMjZ0hcpMGxa761Pmb0BxoSkeQKT0J6+jfvoH+pHXsCbdgd5gFg8mb6Uu24f3Ceyrctan2MWQwbxtDNX6MHmjnk/hVv+RwaRAHcl3oS7ehNcKSIzuS+MMP39O+3ZrOpHVIfNZoELxem8gtekRslhK5QZPgtcpiTSRsvSqPb14QCy6fPrylLNabezfnyHbToy7IlPYIK9oDTegOW8Xe+LVUueuS56hKqYMK3ZErOVm4jQM59rxb+MBQkRNnK1ypCdvMaHMQc5dO8/38G94tvKI5ypSGMFOaIi04nOvIiUInXi88Z7glgPOtgUjC16uS6GBAuqsxma7GVPmvoibIiip/C3ZErWP6TA+vv7nD68ff8P3Hdwx2d9EQZEZLmAVVblJq3LWpctak1luXSjcdirZpULZNk1Z/Aw6l2jBc48XltkDG6j0YqXIRcxQX9iTw6fVzcZB//stfOFXmzIWOKIZqfbnQGsxoozeXO4IZqXNnak8kkhwPI3I8TUh31iXPw4h8V33yt+kRs0mVAlc90h11ePHgDi8eP+Tnv/ydoUY/xnYGMrrTnwvV7oyWOnK+yJGThXYczt5Ef9Iq2oP0afHToT1Qn5ZQQzoiLOkMMafF35BGP31aciP48OoFn1+/5se397naHc3V7nCu9scxdyBVzDJMd0ZwuS1UrMRIerLt6ct15kChO93JNvQmb2BP2kYOF7nSk7GZuhBTHs1e59GtW1w80cfV/u1cE8o3XZFcqHRlvMKZ4WoXLjb6cGmnNxc7fBitcuJilTMj5Q5cbvNjclcIY02+HE5bJyZs8p1VWXj+grffPuPr88XcO7KdG30RzPbFc/NQNjf2Z3B9fxKX20OZbAtCUp7sy84UdypjXWhIcBCtI82VlhQ7GuO3UB+1ht0ZjuzJdqIxaRt9BR6cqPHmZLkbRwvsOFZgx8nSbQwW2HKszJXBAjsOZG3lYPZWDuTYMNwQyKX2SEaa/Bmqcma43otz9R7cOJbD9UPZzOxLZXpvEpfaIhlrDl98b3Mk5xujGGuLY6Q+GElFdTkZ2RnExkcTEhKAr78n6/Tk2WQgj62BAtbay3FQlsV6+XK2yMuyWXYZG+WW4aalgJ28ANlZhtcGDaK9tQn10CLGV5PkUCnpEcbE+GiRFKpPjI8GNQ5aFNkpUREspdBHnVwXFXI9FEi2lyfHU0qApRwyOup8KSeLrKGQXjHnKxVNZKRaSGrqa8kXkgJJ8YSFBIrl/nUGCtgYKYl5IGGwrsoyuAqZC00lQrQUcFKQxVZmCVtllmErtwy/jUrE+WoS6apClIsyCQHaFCauJiVYj+xwM9JDTKiy06HEXpMCJ00yNqqSvE6Z/K2q5NmrkrVFA0dDWYzWrkTFWJ8lmjosV9Nlibo6S9TVkDQ1N1JQlE9qynZiwkMJDfTDxlAJOyMlnI1VcDRQwVl+OYG66gRqyrNNdQVJZjpEaCuKOaBUS3V8twiJACtSA3RJ8JaSHWFEXvxKSlKsKYpbTVqYOZVbNal016bcRZOUVbKkrNGlxEWfUm8pxR5SLNW/QElLHV1rS5ZoCFgmLWR19FimqoGktaONkvIS0lKTiY4MJSzYB0crPRyF2pyZEi5myvhpqeCnrkCIvhbhOhrE6GsRLFUkSG0ZsfryeK9VItVflzgPDeLdpaQF6pAXbcx2XykZoSbE+xqyw1cqQpbK3ZQoc9Om0lubrM2apG3QpNRbD32NZWitsUDRXBsFU12+VNVimbIOS1S0kXR276G6toqsrCxiIsMJD/HB12kLDkZKuJio4maqQqBUlUBtFbzUFPDUUCRMTw1fFQVy1xsTqCaPi7kc8Z7qVCSvojjBhMJYI4piTcgK0yY3SofcGD2qPaXU+RlS7qBCiZMqudZK5FirkG6tQcJaHXSUlrJUWwM5XX0UDQ1YoqGL5toNyJhbCam/bhqaGsnLzyM+JpzYkGBCfJyxF/KSJoq4marjryKPv54GflJV/KUquKnL4i3zW5xlluKlIIuT0XIKokwoiNMnL1qfuhwT6rKMyAzRICtcnewwXer8tKl2l1Jir07BZmUKNqmTvVaecg8D9rc3kldahG2ED76R4RisXYmWtTmBKQk4Rfoi6RvcT0t7G0WF+SQnxIipv7iwIOyMhEEqiJk1H01VPHXViDXXIcVKnwR9dUJVZfFRlsFNfjm2BsupSLGgLMmMqkw9ajMXM2o1GQZUZ+iREaZPpZcWlV5SdgTokLtZnUpXLSo9dcjapMkf/vp3Jm/dwakwmt39uzFZb4bWKl1ymyoo21WHZP+hw7R0dFJeXk5WSjIxEaGiCfkfV2MhF6SKneJSvFQUCNRVI0BDkSB1BcLVVQhXkiNcWYat0i9pyl9DXZax6MHSROmvg9SnMFaHzFAD6gO1qXZVp8JBlbwtWiSYqFHiKCVtlQZ//vu/cWZmBoe8MMpritBZb4C6sRoVuxsJz4hFcvj4CXZ17aGmsprczAziI8PFVe5iosw2Y1UxYWWvvBwPFXn8VBUJ0VASoXf+miok6CpTaClls8YSyhN0KY2TUpFgSH6EFsXxUgqijMiL0iDGVYt8aw0aPXTItlamdKs28aZSim0NiTaU48e//gunr0yTWJ9PaGwQ2lvM0DTVFHOTO/btEpKoQ3R276V2Rx25Odlsj40Uk6jORiq4CUlUYbA6ioRqqhCpKyVcqkGougpxWgqEK68gRkOWzepfUBylS3WSnlieLos3JNVXiZJYHQrjdfHbokyylZQyWyk1jroUbtCmzE6bOk8THA0V+d1f/s65mzfYf+og3iGerPTajK2njZifrO1vWSxnd+3toXFnM4W/Znpjw0OxM1TA3URNTKIKgwxQU8ZfSYEAZUUy9bSotzcjx1KTCKkiW9W+oiBal5JYPQpidCmM1aYo1pDyOEPyw6Q4mS0nY4OUIltdSuz1KbE1IH2NOgVCeBjkzh//+lfO3rvN5KUx/CICMPO0pqihlIrundT2tyI5NzpO774BmttaKC4sJDk+lvjQEFwstXAzUcPTXBkHIwVc5BTxV1PGV15OrMeXrjWgcJUmgeoKbNVcSlaAFmWxBlQnGlOZaERJnC75IcYke+mx2XAFaes0Sd+gQ7mHEc6yy6n3WUWimTpdPbv5p/8JFx7c5+KlUXxCvTCwMaV+oJWy7mZq9jYjGbt0iQNHjtHe1k5JcSmp2+PFr9vH3npxkGYq4lfvp6ZKiIY6kdpSClfrkL9SSoiSIn7ycjhoyVASo0+ajy6pXkbkheqTH25AdrA5AZvVWan0BU1BRtR6GLNeYQk7/IXYU5/szVoMHj/IP/6v/w/jD29xeXIcJ79tGK03oKCtmtKuemp7WpBcmrrGkeMn6ezspLyshNTEeBLCQsX8pKOwuk0UcTRSpqpgO8lr9cnzdiTFTEqIVAkfbQ38dTSwVV9CSYwVoQ46tJQnkZsczI6SePITrKlMcWCN+hKC1ZYRpqZIwaaVVKU6UZVoT3miC7U76/hXYO+tCwyPncHaeSMGpqrkNZZR0lFLfX8Tkssz1zl19hzde7qpqi4lMzWJhNBQYsMDcTBQxtVQHhdjJYJ1FXFSXIqrwjICNVQo8rNnu701BZstcNJXpCxxK9WJTsS5SanNXE9lxhYygleS5C3FSvG3tKSsx0N2OaVuqymOXktppDVlUevw9/Xnj//0j2Se20Prrp1YOVqhrrGcrB3F5LdVk1NTiGRydo6zI+Ps7e2lpqaS3IyURU8K6WgDJZwNFHAxUGKjwnJslOQI0FQiyVKH1DWG+Olp4Ka0nC2qy8gPtSDSSZ+y2A14rFEjO3oN5UkC4NSM1UpfUe5jRJCiDHVhxlQG6lIeqE+BiwEbNqznxcfv8O0rI7c4i1XbrDCz0iNrRwk5DaXEp8UiuXrnARcuT1Ozo4r6+jqKsjLEhRMV4C1WxYRUtIDZCTaQ4mdoQJyRARE62uSs0iXbTFvcM921lciP3kjAamX8N2hSFLOFzAADAjZLKUp2Z63yb4nUUMJpyW+o8tIlea0qpS4GBBor4OKyjXvfviaxMYPOlnK2eawhNDaApIocEVqSmhaPZOTiBJOTk5w6dZTdu9ooyMkUS3ehPh5sFWqL+osDDdbWJkxPD19NTcI11YnRVMR1xZcEKiviqSJHooseSa7GBKxVJnClPOFC3TfQCJ9NpljKSvDXkqHURUqxoyYJKzWIMFTGRSpP36FDRKalsiM/gZbKNFrrCthku0HMl2+yX4eZhYGQRL3HjeuzWFqZ07unjcK8TOJCggjxdmOdthx2esrY6iriqiSHr7IiPsoKbF2xlA0rlrBy+Zc4yS3FQ16GVE8jUgWsjIMB/mYrSPVfSbSnIRu0lmIl+1tKnLTItVEmc4Mi27RXYC9dgd4SCWX19fiH+dNRk42u6pecP7UPG/sNbLSxZsPW9axcaYTkhgC9PjDI+Mg5Brp3k5uZKg4y2MuJNdoK2OooYaOtwCbFZTjIyWAvJ8OWpV/gtOQLnJd8gcNXv8Fm6RfECCfMrUaU2KxmvcYXhNnpsErlN6xUkOCss4JYy6WEGC3HR3sFRnISzBW/QldxKU1tHXh6u9JQtJ22ujwe37rCmrXmnD4xQEdrDRamQjzZ28vBg4c4c/oYRw70UVaQSlxoAIFuLmw2VmeDpoLoUWvFpWxctoKmrFgacuKw15HDd7UurbnbRaBQW2kKYycO8ODOHXZVpNNRkUpLaSIthfE4mirSWRJPS24s9qpfoiv7W6RCYv9X8JCQ8u5uLhWhusPHB4kMcuHM4QFGTg1y4kgvkomZa3zz9SOGz5/h6KEBmqoKifBzxcfJlm3WZmLlYb2mDGtUZLBc/iX9DcX01BZQnBRC385C+ncWM7CzmP2d1Vw8d5qxc0MMdlWxv72UgdYi0brrc+muy6a3MZs4501IZX6DpuyXGCsuQVf+KwqSwtlZkkRcmA/x4d707drBNsd1jI8cZ3zkBJL5+Y9MX5ti5UpTene30lSVT6CHLe7CHWfLKizV5VmnsYyVKstFpPjhPY0c3tvC4a46ERElosY7q2mrz+Pr18949MN3NFWnc1hEkAtIqSoGO8o52ltHf1sRh7qq0JSRoC4jwVR1BaZqS8mJ86ZnZwkzY0eIC/Pk+OBuzh3v59TxAToF5P7zF+8YGxshMyOZ3q5GagtTyYgNxM1mA84brVipIdRw5Bg+vIdTA22c2beLitxEhgZ/LZMMtHCmv4UDexq4npzJ8+4Bjvfu4OyhXZwZbOfMwVaGBptFNPrQgQ5O9zdztLud9uoCuoW7SkYkdbmxDHZWceXCMSRfSMSE/tj5g5w7fYCpS0NIbj96RlZ2JjOTl8hIjqQ4JYKYQGdcNq3Edp05K9Xl2GisxcWzBxdt6NCinRpk/EQ/Y0f2igMeO9HPgb0tlGancOl0P+NH9jB+rIux4z2MHevi4qlexo7sEeFiQ8c6qS9KZveOfM7sayE/xof6kgROHWhB8qWEi2ePcHF0iKlLZ5meGEUyfX2O+O1R7OlswcxYjfQob6K9t+K+ZTVb15pipLKEybEzXB47I9ZxdlYWMDN6RqzjTI+dYWb8NNOjQ8xOnGXu8gg3J4aZu3ia6TP9TIg2wPiJHkaP7+Hy6V6Gj+wW6ziXTvZisFRCdqQX9XmJXB07gkQiwdfXhXMnerk5dZErUxd4dO8qkvr6GvILssnP2U5VUSrpMT7E+NoQG7ANbztr7s9eFusts5fPMicUkqZGF/Fvl88zNzkq4uD2dTVipqOK/QYLnGzWYCSV5+al8+LvzF44zeTIES4M7ackK4GRU31cGBpg7HQfqRF+xPvbU1uYwtylk8jILRVT40NH+pkYPyPWj3RVZJDs622hIDsF121baKktFDkFNla6JAS7UZWX/h9FJsFadpYvFpmmhCKTUHAaF5/PTQ5zWyg2zYz9l0LTrZkxbl4Z4dbMOHPTo9y7McmNqTHmpse5MTnMrSuXKC9KY1dNNkVpUWjISRg5uQ8hjz85cpKHN6fxcFiPpLEyh6qiTPy8XGipyiPS35koX2fyE8K5IVTDhALSzGJV6/71y9y8OsbNmVEeXhUKThM8uDohkiHuXxnnwZUL3L86tkiOmBnjtjBg4fn1i8xOX+TG5XFmJsa4fnmY8ePHmLsyyejwEBND+5D/UkJjdTaD/S1MnD/B5eFTxEUHcGfuMpK2HXlUFyXh6bhJrCtW5iRQnZ/M/dtXxYrYzesXuXz+KE3VBUycPcy962Pcu3bpP6ph965Oi5Uw4QPMXR1jbnKMqdEjYtnj/PEe2qrKGRqbZFfPPvqPHKd37wAN9dUU5Bdw8/Ytrk5Pcf5oD4aay7l1dZQjA+2MnTrI5PgpVOQlPH98WxhkATurswhwtyc21J/W6gKO7e/i4a1p7t6+woN71wkxkCVCbwV3b4zzaO7KIvvj/zKhOvbo5hQPbkxwc+o8Vy8e4dLZQbY4O9C7Zy9jwxe4eeMOfXm11JeW0pqezbkzQ9yau8LLZw9Zbawhev1gbysjZw6JOMX6qiLm518g6diRS6jPVlpqS4gO8KW5Mve/lOcE69ndyoMbl/9r2W5uikdzU9y/fZ0Ht2/w5O4s39y5ypO70+LPr02cZXL4KLWNNRQWFdPT009LSzvlVbWUl5ZTkJ/D0Mgod+5e587NWdKSImmtLeRwfyvDJwZZrb2C2SuXeP/+JZLOulyGjnSJ/+He1nqeP5hbRGA+u8e7F/fEqpZQxfrupVCK+4bvFhYRmc/vz/Lx/bNFjON3ggkUmLeL9nGBHz4t8MN383z/cZ4fRDrMez59fMun795x+/YsCwtv+PTpOz5+es93H97xT//8NwZ2N3Kwt5mRs4eJ8dzKdx9eYWcsj+RAVxVVOam01xayt6OaUwd3Mzt5npuXh7g3dZb7V8e5cmmI11/fYv7JAxaePPgvtcX33z7k7auveff6Ke9eP+fdm+e8f/Oc79684LuF52J9cZFm84qP774V+SVXZy7x3fuXfHr3nHcLz/nw5gU3blzn0vhZOpur+P79G6anRvjuwzzRtppI8lMiqM5LoLupjP6uHRwa6OLYwG5O9dZwtreKc31VvH22OKD5lw958+oFC6+esiAWOxc5P/+Odf1Pe8b3b96JzBmhViOU5kRGza9cIKEM+HzuMjNn+7k8NMC16XGuXr3O9NSMiCJ4+fyR+I3cvjREmoM2krLMWARGU++uGk7s38vJQ92cFJDPh9o531/DWF81b5485tWTO7wWip5P7/Lm8RzvhKLnNzd58+Q2C0IN8vk95gXPPr/P+xcPePvyAe9ePeDjm2d8t/CG7xZei9yXD29f8t2b1zyavczMcD9TZ3t59s0Dbt++y/1Hj3n28iUTl87w8cM8KZs1yHGQIulqLhOBHWcGdzN+5hBjpw+KXK3HN6eYfyL84Yf88vPv6evrYt+eJvp3luJiJWVXTR4uRvJ4GingbaJIqFCgslYldKUiIauVid0sJWy9LtNn9jF1eYqZmWvMXptlbu6WCAC+cml0kcb1fp7//q//ndOnTzE+Osad27e5cW2Kzx/eUB1gTqmnEZILZw8zfvYoY+ePMnNphImxs1waPiOuXGEBvX3xDf/w8x85dfwQkxfPE+WwmtzYALzXahC6WhVf4xX4Gi4nzEqB8JXKhFspE7FKhe02+qQ4GHJl/BB3b1zn4d173Ll9n7t373H/wVNuiuysxanw93/6F548fcHzZ98y/0awF3yYf0ljuBUNYeZI5q4s3k3mrk1y59okD27e4OHdG3xz55pYjH/74hF/+8ufeHj/ITWZMfhZKXGsv40UJyNynAzJdjAg215K5lYdUjZrkrJJndTNar++rs+Zvga+f/9RRDyL9uETnz5+5tE9gaU0z/fv5vnLL38REdCC/e77H/j+4wInmgupi97AzkgrJHeuL+5/Ajzh6d0bPL83y9O7N3l2Z06sKc4/e8Q//fUX7t69y7G9nYRaqzN0bD+FHuZU+1lR7WlChYchVb7mVHibimXkEhc98pz1Sd6sQVWkM28X3pLmaEqWsz5FXqZkORmIRX9hkJ/fvaEwdBsFHis5uX8XDQlO4uv1IVa0x62jLd4aiYGKElqaSuyoyMPdShN/oUK7VZfQDVLefLPIi/vljz/y8P4DXj9/KnpyvakqYdZaRK5VJ8FajaRNWuIfLnDWJ99RSqGjHqWexlR4m1DibSTy5tI2qpHtYkCmow5x61W5cfHM4op//xo/M3kC1yixPdCewkBrcZA523Qp9TbHa5UUiZbiMjaYKuNiqYTvahWC1mkSvF6d4LWavLg7zfyzO3z67g3Pnr/g5bfPKHAzpjLImspAC7Egn2uvSY6tBiUuOpS761LtoU9zoDkdESvZHbuW9vgNzL96zY4AC3YlbqQpfB0VAZY8e3BjcU6+f0NVkBX1IeY0h1qxM3y1OPjmMAuawy1pDl2JxFBfGXtDeXxWKhOyQZPoLZpEb9UidqOUb+YuMf/sHm9ePmNh/g137t4h38WEhtDVNIRY0RJkSrOfKc2BRiKmvSXQiFovfcpctChzllLrZ0xz1EY+vv+ewWRbmuLtOFbizqEiXz69ebH4dX94T0v0anbFb6DW14A6XxO+f/eW5ghL2uNX0xZhjmS99grs9JfjbalIkLUqYes1CN+oRsxmLb6euyB+3a+ef80v//ALs1cmid2sSZaDlHJvAxr9TGgNNl8sysdZ0xu3ju7wlWJRfk+4JT3J6+nO8ePN06dUeRuQuEWPo8VuDHfm87sPb8WN/s+//IXBPBcGMh1pj14leu7H9/M0hpmwJ3kDHdFWSDbprWCbiTweAnHeSkH8qoNWKxG+Xo3z+3aKtMqFZ0/5y9//u7htBK5VE6ENdcFmFDqqk7tVidJtarSHW9CXZE1/zGr6YtawN2YNh3PsGB1sYbirhKN5zgxm2HEgbxtj++v4/G5BHOS//Y//h3M7AjhV4cXxUg8OZdrx+f1b9hW60ZdjS2/6FiTeq9XFRRKxRYuwTVpEbdYkcNXiIItC7JgXBvn0KT//8hdmr00T72xFqbchLRFWtAab0RW5iu7YVTT4G1HoqEa+nSINvoZ0R6/mUK4Td2cvcyB/K2dKnRkqdeZiWygzp7r4fmFBLMr/+GGB1pjVImqgP8OG47nbmB09xtUTDZxv9GGkMQhJ3BYdst0tKfBeSb63Gfku+uS7GpHppEfcRjXePhYAS0/54x9/Zk9jBQPNFeS56VLqJqXcRUqtlx4docJCsaQ90oq9sWvpiVtLrZcOxds0eb/wjuk9wYzVuHK+wpnpvgSmT+/h+3lhkK+4N9TOSH0gY42hnN/hw85QMwLN5Xh5f5rp7igm9oQhidkiJcPNhGwPM8oDVlITuIrqAEsaQtdQFWLFiwezvHzygD/98gv+Voq0FmynPWYtjUGmVLtpU+GiSa2PLpVCtctZkyIXTeq8tNkVbMZorS8zu6O43BUqUk1Ha9xpznBh8vgu0YvfvX3FyUpvzhQ7M9rkz4WdgSKcYXxnIOM7vJnujGJ8VwiS+K1SkmylbLfXIclBkxQbNbIcNKkMXknH9i08vDkloqt+/sOfaAhby/4cO46WuHAo2549URa0hhjREWLEDh8pLUEG1Hhp0OChS4OHDu3hJvQnbeBQ5lbOFDkwXOHCzrgNTBxq5vMbIeB4yVCVG6M7fJjoCGZ6TxTXBE7nrjAutoZwvtaLme44JNkexmS46JHrbkCuqz5527QpcjWixNOAPA99bl8d5umTe3x4/4Hc4I0M1/sz2uDLxR1ejJU5c67QgXNl2ziWZ8OBtA3siTClLVCPJj892sKM2BVlRnOIKe2BxjQHGdMcaMLZfTv5+Ool7+bfcL07iqtdEVzvieFqfwIzPUnM9MaKTNbLLcHMdEcj2ZViQ2eKA80Jm6j0NSHfVZtyH0NKvYRatAEXTvbw/MFdnj16wImmMCa7o7jQGsT5SmdGSgSQiD0XG70Zq3VjvMGT4TIHzhfZcjJ7I4czN9AdZ05buDFNvgIdVJtaNy0xSTD/8jk/fPzM3UPxXNsbyszuUK4fSOPmgSyu9idxsTWQqWY/0cuS/jxn+vNc6ErZQl/GVvrTbDhS4sKBAgeaI9fQkuzNw7u3uTs3x+2TxVwbSBIn9Ei1GxerXBkvd2WiOYCJZj8mm/0Zq3HmgmAVDkx3BCxyZHb6crbciY4QPep8pDycneLd8+f8+Q9/5tbhVGb3R3O9L5L7x3K51p/C7L5EEYgy2RLCeLMfkt4CVw5U+rBf2Mdy7BnIsuV0rS9D9f4MN/gzVOPNRFsIl9vDuDKYzbXBZGb2RjNe78mlBi8u1XuJiJPLbf7igEYF0k6dC5eqtjHRHsSldn/GW32Z3BXM5QYfJtsCaM4P4OGZEh4PV/FwqIA7B7dzY2A7NwfTmBtM4/pAKjf2pXO5I1T825KGVE8aEjwoi7SjIcGVhjgnOtIdaE60pz3ZhoaYjXSkbKUjzZ32dBeO1wRytsGHEyWOHCtw4FDuVk5WuHOk1IWjpS7sy9xKX8oGDudu5Xx9AOcb/bnQHspYqx/D9Z6MNwXQk+/C1QOZzB7O4eqBdGb2bOdiezjjLeFc6oxnpD2GC+0JnKsPZbQ1Csm1g9nMDGZxZV8mt0+WcONoITcO5Yg07Ou90SID6faBVA5WRnLnRB53j+Ry72A6s92RzO0NF5nXN/fFcutwGrcOJHJ9TwjXdwdyrStA5FBd643k5oFEbuyP4+ZAJDf6Q7lxIIT7Q/ncPZnL7aO5XO8XfrZdZG7fOpTC9f3JXO1L5vZgFtO7opE0NDdQVVtFQVGBWKUVsBhx8dFEhYcQFhJAUIAPgb6ebLPbIEJxNujJs9lAAYFIJ0BybA2V2CBdgZ1Uma0KK7CRXcIW2aU4KCtgvfQLNsovx1NTEQe5JdjJLsdZRRYPRVm2yi4TzU5+BZsVlrNRdTmBmzWJ9NQkxE2VcDcVkkONiHLXIDXEQITwRHqokhikS1a0GdnR5uRGW5ITZUFasCG50auJ9tAUwffFG1Qo26JJlYeU2iBjspzkKXHXoNBZgyJnKYXbtMh1VKXKX5dsWznSN8hQ4aVPho0iSetkcbNUQdtIg2U6qshqq7NUUR55A12WaGkiq2fMCg1dlqpo85WKFss0NFghwII6OtvZsWOHCBwoKMgjKzOdxMQ44uIEpEOQ6MzgAG8C/d3ZoKfIll9LO0Idyt5o0WwM5HFSXE6QtoCEUBBZLH6qcnipLsNHWQ4fdSW2yPwWH9UVhOirEqSjgofKCpF/5CdVxkbuS5zUlxPhqEN2hK4IhMmOMCDeW0q0mxoxHuqi6lBqmKHoyNw4SxF2lJ9gRWnyOtKDjcgJtyQ9wgJzBQllm1QpXK9M4TolKl01KHBUI36VMhkbNAnTVyJ7iwY5Nhokr1lOoas2yRvkSF4vR8oaWVLWKWKttQKpsR4Sma9Q0pWyRE0TBV0jlmnoifaVqpRlShrIG2iL8kkrtDSR7OnZS1N7KzU1VRQWF5CTnSXOysS4KBEyIsgqhQb5Ehboj52ZVHSgg6EyjsbKuJiq42KqhoOpItvUluOppiACcVyUZQjWUcNPVYZAPUXcVWQI15cSpq1Exmo9gtSU8VaWJ0qqTt5aA4K15HFS+JIgG01Sw/RJDBAoR6tEClySrw4JXloi4mi7rwbZEcYk+mlRun0t8d6aFMRakhNhKjoyJcSM1SpfUe2oTpW3BhUC+MxXj3JXNQrthbODlCI7LVI3qJO5WYd8e03SbVQp8tCi0F2LNHt1olerYa6+hK9kV6BqYYT+xtVorjZhhZ422mtXsVRdmyVqUpYqabBMWYOlSlK+UpYi6Rnop6Ori6bWVsory0TQWkZGOtsTYoiJDBOdGRbsLdLv3LZYYmeoJKKanEwERwoQLBUR3eSio0igjipeWsp4qssRqKmEj4YSzgrLRC2GIF013BSWEK6rRpCmMt5KMqSs1CZSV4FUI3W2G2rgaqlAso+UBE/BtERuYX6UOUXxK6nJWENBjBElqeYUxQmvmVKWaEVelDEpgVoUJ5hTlW7JBi0Z6sP0KXNVosxJkSoPDSrcNMnaqEClux5VbvqkC0gVRy2qPHRJWatGuK4SqVaq5GzRJX6NEgbqS5HV1kTZ3BAZfU3UzY2QNdRDVleXJWpaLFHTZqmylCWKWiK5coWuCZJ9BwbZ3bNXBC/V1e+guLiQnKx0UpO2ExcVKjoyIsyP6GA/gj2dsDOQw9FIkW3GAtJFTWThCQ6115IjWFuVbYorcFRaho+GIuHGWjjKLcNFaRmhqspE62sToasuIg62G2njJbsMD5lleCqswEV+BU4mK8gMMiDRS4PSeFOywvXIjRQEHEwoSzQhPUiN1CBVskK1yA7TIjNEi6pUMyoFyzAgL1YfJ0NZav21qfbVpcBGjXp/PerdpVS76FBsp0qylQw5q+XJXqtA8WYppQ46pK6WI3WVEtnbdImwM0RHqoqyoQ7S1ZbI6BiwQkuPpYKp67BEQwfNDZtQMLFE0WQlyuarkTU0Q3Lw6BG69/Wzq6uTppZmystLRX5lemoaKfExItBKcGZ0WBCRwT7YGChib6Qs4pkEJwq8S2F52+vL4q4mh5PyUgIN1PDXEfY/FSLNdQjTVyHRXEqkrhIRmnLEaCsRpi5PsJa6CHVzEQmky7DVW05+pDlliRai2Edz4UbqctZSl7WKuhwj6nKMqUzXozhBg4pkPcqSdalIM6AyzYDCeAHEpUuguRL5WzTEiLDQQZnmUEPKXVTFpV3rqU/GRh1KnbQpstcifb0yBXbq5G5RJzLUmx//8s98/OVvzNy7x/6xYYLKUzg9dJzBw/vxDfdjndN6rD23oLfRlHUO68huLKNsdwNVPc1Ijp08x8CBQyK+qrm9hbq6OsrLSsU7eHpiAttjoxaRa6HBREeGsM1KGwcBCyig2AQ8oImAZlPFwUARJ2UZPFUUcFdXFJd1uLawjJXwVRLomApE6AhgHSVidTSIFFRSlGQI1FIgXqpCiPwybPSWUpa4isoUSxG5UbrdhMIYPZrzzalJ16MuSxA+0aUhz4i6bANqMw0pjteiMFZKaaIWxXGGYlqjOV6fhkhdKjw1qPPVZoe/Nm2RRtR4SmkKNSR3qz4FDroU2OqTa6NNiP5yunr28qd/+ld++uUfGb82y+D4OewLo+jrbmfHzgp8w3wwWGvISreNaFvpUrKzgvyWKkraa8mtL0Fy6vR5Dh49RndfP+0dndTvbKCiooKC/Hxy09JJjo8U1fEETJhgrmsNcDZRxtVMHTcTdZGuLGAXnY1VRcSdv6YqPiryhGioECNVJW2VoSjgEqa+qLkSpCCPr6IsMcIyV5UjRVeFVE1lMvVU2aT+BbtKVtGUZybiGWuzDClP1iU/WoPyFH2qU/QpiNMmN1KNojht8iK1yA5XoyBak4pkfdKD9Eh1UKXKTY9GTy1aQ/Wpc9OjxEadEhttKu0NiDFWJ9lKm2pnM+KMVYjVUyJKdwVfL7zhD3/7N77/0x85NTXFwOgQgWWJtLTUkZwRj7ufC9rWhpi7rENWW472g92Ud9RRu7eFeoHoe2Z4jKOnztE/eID2rt20tLVQXVtDaXERudmZpCUlisjUuMhgYsJDCPZwwNlUXWQqC2hAD2F5m6gtitToKeOmrCDCFwWut3B1V5IlUADhqSnjqbgMT/kV4vPitcZkmWuQrqNMgpoc5auN2Kz2BeWxJmQH6tKQYUpNsgGFEZpkhqhRkWggkocL4/XIDNQXHVeWYkRehBqVgiphsh7+mxVFwF7mSlWqbDVocDUUVXYqHbUptlOn0EaDtHWqJK3UoMHfnJxNUnGfDDCW53d/+0cRGvn9z39m6PosuydOUdXdyOjwSQKi/HF0tcXMxRr9LeZY26+lZk+TiEbc0d9ObX8bkvMXL3Fy6DyDh4+KyMS2XbvYUd/wH3tldkqiuLwFRR8BXxcb4iPi6rYZK+Fuqi4iFgVGtZuJMg5asvgpyhGsqkqQugoR2lr4K8qLkKEAFSUiVVWI1VIgUVeNSBVZUoxUKVqlRtlGPco36LJZ9Tc0ZJiJvHWBIl6VpEdtmhHVqcaUJ5iSFSylNEogPGtSEW9EVrA6xTHaJHmrkuqthvd6VUqcjaj3MCB1pZTCzZrscNEjZ40iZVt1qHHQJcFYlYJNUsrt9Ei0UKPQUYcAOwv+9M//gz/87b8x/7ufGblzi9RDbZwbPcPps8fwjvRmjZ0VFl6bUTeXEhQfSEVXgyjAWL+vgx37ROr5FEPDYxw+flJc3rs6d9O0s0WkoQsQ5JzUVJISokmKCCcuJIz4iAAcjNXZZqQmAhaF2eghOFMQxdRVZJvCCpzlZXCVk8NHUTB5IrU08VdSIlxDkRQ9VZL15Mkx16BknS7J+hr4KMviqybPJrWvKIzQpzTWkNpUC4qi9cgLV6cyUY/SeB1RJKAiQVCYlFKSoEemvwYJzuqk+2gTv00dVyslUtZqk2+jT7yZGumr1cjeYECEoSYB+spUOluQYColTEeJDCs9ctbrk75ai+KybJ58+y2//6f/xq2XLxl5cJetLZlMTV6goa0ev3AfDDabY+y4Ghm1ZbQc6KZ4Vy2V3Tup7m1lx752JGPTNzg/dkGclfsOHqFjzx7aWtuprqmkqKSIvCzh7h1LXHSYiK6LDfXDfZWhqJAgOFLYI70t1PAwVRFBue4KCmyTk8VfXRlfRQV8FOQIVFUiQk2VEht9qmz0SDdUpWSVDoVrtfCSW4Kb3DJsl36BjeYSMv2kpHnpUb3dnPxQbVK81EnyUKIw0pCCMF1yg/TJDtQWH6f46BG4WZnMYHOCbXXZbLSMIlcdkbUkSNFVe+rSGqBLqIkaTrJyRFtp0BhgSrG9Hqmrdcm1NSJljQZ79vexZctm/vo/4eKjB4w/eoh/cx6XJsbYnh6DS4ALurYWGG42R1VTQdQXLeqopXxvE1W9LdQJe+Tla9cYvzTNmXOjHDx6XIwpd3V0UL+jjtLSYgpyckhLjCcxIuzXpR1AqJsj24zUcTUS7tjCHqmEm4kqTkYqBBmZEGFmQaK1NS7ysqRa6ZO2aiU5a/Xwkf2SWF0tgpRl8ZJdQaimMj5qcvipKeGrqcoW6TIyg1eT5m9Bbog+cU46RLqaEutlSX7CGvKjrcmOsCY3YSNFyRvJ2W5NabIV5clrKUs2ZZOuLNEGsuxKX09bij1e8kuwV1wuro76YFPKfPSo8BBkYg0p8RbE8PSJtVZhZ2c7hSXl/Asw8c03nHw4S/PRvVycGME/0oetXnZs8lqP4WpNAiJ9yW8oo7CtmpJdtZTvqqeupxXJzM1HXJ6a5fzoRU6cOUd//3527e6guamRqqoKivNyyRD2yZhQEsLCREcKyAdB4VRE0Bqr4mKsgJsA+TVUxNdIkWwHC/Id1xJurkekpS7ZW1YSpq1IpI4aUTpqbBN4RlI1IqxM2e60gYT1VrioKuCoKUO6tyWxTlpE2auRG2hLhLMRFWme7ChJoDI3idJMP3bV5ZAbb05J4ioKo40pjDWlOEGX1SpL2Ll9PV3F/tgv+40oY1Dg50DcSh1qs7yoSHOkLH495XGbKY93pCTWnkAHPTKyc5m4dpO//MvfmXr+jNqp44xcHuHIyYOERAdgZmtOWJAtUqkMtR07KGgsp6ilUhSTKGqppkFw5Oy9h0xdn0OQ6RDQvINHDrGnt5eWliaR9FJRVERWRgrJcVEkhIWI2rMxof7YGqmJyQsnY2VxZgp3cDcDFWzUV7BVYRmuWso4qingIxwJTXQJ0tXAT0OJTFtLUQA32kKbAGM9UjdbEqGjRLK2ClvVlhK2SUpFnAWNmb64WsiR6G5IrFCdjDAkI0if4lgLEjw1CLVTJ3CzEvHOGiR56xHlqIel0lfUBpqTbadLrJ4K0ery+BhrUh1oTlWICSVBhhQHG1ISbEyJvz65PrqEe2/GeZsT//S//jc//PIzN169IvxQPROXz7OjqZaAMG9WOazE1cEUHeFG1VBOVk0RWXXFZDeUUNRcSUpeMpJbD58zffM2l2euMTx+kZOnTiNINgvLe0ddjajWkZ+VRnJ89OIeGeJPVKAPbmuMxASGqNFjoIyzgaIInbaTKuClrY6vgS4epvqEWhgToq+Jn5oCHnJfEaKlQqhUgRA9BXKstMgx12W7sSbhqvJsU1pGmqcpiS6m5IZtJHyzBgHrNalKdic31pntvmvxXK9OuIOU4tiVpAdok+yjT1H8NjLC1rNa6Utq/Uyo97fAX1WOCKkyIVoy1AUYUOunS5mnDuW+umLGJ89RmwRrDTpaGtm62UZUCHn67j03374k6kAdo+dOEL09DFcfR7a6rWbrBiPcfOxJK88luSqP1NoCMmoKKW2tJjEjDsmDJwvcfPScK7M3Gdi/j/0H93PiyCAD/d10tDdTXVIkIqTTEqLFTFBMsC/hvj54blrJViEfqackzkwxtSYgp6XyhOjriAqAEUaGbFNTI0Jfh1AtdWL0dIjV1SXFRI0ghRW4rRBAyitwX7EEf0U57JSWE7ZZh1QvXbICTEiw0xErHGVxjgRaq+KzUg53M3n81irhsUoGFwtlAm30cVmlSnGCG2tUvsRdYRnusl/hrSFHtbchpa4aVHjoUrxNm9ytWqSs1SJ5jTpxq9WJs9Zk5OI4CcnJoiMfvH3H1e/nyc6OpKUkncayVHY3VZAY64uelhx5pVmklGQRX5ROSkUuaWU55JRkk5mVhOTK7DVu37vD7bu3mJmZ4uKFMYZOHsfNzQkrS2OaG+oozM0iNSGa2JAgIgO8CfVxJ8jVia06iqLKoeBMWz1FturJs1VLAU9VJXzU1PEVbiJqSvioKuGtrIiNrAwu8suJ0lTDdtlXOMguxVVWZjFMUpDDVXEFAevVyfIxw2e1Ehk+lgSuUSDXdxUexkvwN5cjxceMJF8z4j2NiPOUkuhrREaoDZZKX7BO4UtcZZZT66NPiZMGpfZq4lk6e5MK2RtVSVqjQqyZIrHmGgQbqbFVZRntvb30HDhCcU01/lFhWGxZQ3VuLNYm6jRVZLKrKoeu5kpmZydZu34V67ZYs952HWu2WovIcksrQyzMBej7o6+5e++BqAAgkADHx0cxNTeia1cr+3q7KCnKJC87jbSEmEVH+vsR7OVKuKcz1lI5NguaN9qKoqSMaFryuKnI4yJkdOSWiaI8NvJLsZddhpPMMtzlZPCUl8FTboVIQPCQXYKj/DK2rFjCatkvsdFZToC1KlFbBdSGBZeM11BlbUSyizHBVoqE2ukR52FCjLsBsW4GbNBYIabONmgJin7K5G5VJ8dGjdR1SqSuURQlasIMVrBS4QuslL7EUmEJ5grLMFVagsZSCe27d4sHkaT0VDwD3EnaHkB1bgxtdfl0t1Xg67JBBF8GB3qxfpMV6zauJiUlhtjYILZsXY25mS6WFoZIPv7wE6fPjfDo0WPadjVxdWaS4bOnGRs+Q19PF51N1RTnZZO5PZb4sEBC/XwI8XQm0N2edXqqrNORZ4NUni3aCqKt11Zgg9JSbGSXs0UQWZNZKqbSOnITaMuKpT07gd0l6VTFBjJYnk13XhKduUl05QrXRNqLE9ldmUx3XYYoXrmzpoDJsSH21BTQWZVGR2UiPTVp9NRn0NOYRW9DHn0NOewqS6K/KoWBmlR6KhLpKIxid0EkLtpLcJUuw0BWgqHsbzCU+y0Gcl9grLocPYUluG+zZ5vdZixN9DHUUaGpKInddbl01OYwuLuWgV0NPLh7BR11GSyNdEhPieX0oV5R4lOQaTw00ElEuJcAfP+e3T29IuDjyTeP2Z4Yy+jIWY4e6uPMyUPsbdtJXXEWKTHhRIcGEOTpgq+rPT4OG7GzMmStloJIM1g0edZryLNOcTmrl3/JumVfkuS4hc6KLHZXZ9NVlUtndRa1OfH01RfTW5NPf12B+LOe6lz21Oayty6XgZZieluKOHGwm90t1Rzb18v+tgoGWvLob8qhr7mQvp357KnPYU99tmi7azLIifJmT306XVWpdBUnsbcijX11uVgulaC5TIKuzBdoyv0WTbmv0BT0iWQlaMn9Bq1ftYqifZ0pSQ8V8e97m4tw3rqK2zOjFGTEsW9PIz27qjh7vJ+R0/sZHzrK6LkjjA0LdgrJk4W3PH01z8HDx7g9N0dJaSFFRbkM7utmoLeLw31dtNaVUJK+nRBPR/xdHPF2tMHVdg2uNqsw11TAWmPZosC9pgzr1GVYqyqLoUTC8Z5mDnZUiQwDgW0w2F5BV20B+3ZVs6+lnP2tZQy2CddyDrRXsE94vquClcYq6Kgs4ZunTxmfvMD7D+9xcdjMOgttjuyp5/Ceag7sKuNAZzEHO0s41FXO/vYSDuwqpyIzkn1NxfTW57KnLoe9O/M52VOPvESClowEbdmlaMr8Fm1hZqosw0h5OTqKS1lrqEV2vB+7arJoLk0hyHUTx/Z3cOfqJTITQ+nvrOVATxM3r4xx7tg+ho4O4O5qw96uFlG2RvLs23m+ff2B7PwCrl+f5f6D21hamdLcWMWeXc30d3eIqNqcuGBi/BzxdtqIm+06nLeswXmzJWZqMliqr8BaTQ5r9eWiuL+VVJ5zB3dzal8rp/a1c3qgjaG+FlGd9HRfGyd6mjmxt5ETexs4sVdgPdRzZPcOjnU3cringVMDTZw93MFVa3fmQtN56BHD+ZZKjvbXc7yvgVN9jeL1ZF8Dx3p2cLRnB8f21nG8p56jPbXi9XhPHYe7qjjQVc3R3nqGDrShvvQr1OR+S35KDI0lmdQXp7CjMEXEfTeXJlOTHU1lRgSDnTXkJ4VwbeI4TdX52K23ZMNaIy6PHBeX9Nipw1w4c4SG2iKsLHXJEpi9z97Mc+/pPOfHLtLc0sLY6AjTU5cwM5Gyp20HNYWZ1OQlkRzmSXqEN56O68ReAy4bLXHesBJz1RVYis5cjoXqUmrzkxg/sY8LJ/oZPT7AyNFeho/u5czBPRzvb+fM/i7Rzh7YJUrhnt7fIdJOTu8TrIMg9y0oy0uQXS7h+PptnNVZy7iVPWsMlFBcKmHibD+jhzsZObKLc0d2cf5IJ8OHOzl3qIuzh7sYPtJFQ0k6Y8d6ROS0QKg4f2Q35w/v4uyxbgzVFWnfUczuhkLRelvKaSxOJtZnKxWpobRXpbO3qYiLZweYGjtGRWEyS1Z8RWJChNjJYfT0IcaHzzB9aYSpsVNMTZwVW0dI7j5+ydXbD7g2d4fYuFgG9u/myMFeMlLisN28isqCFLJifEkK9SDKz4H0SF9cNlhgt26lyCZZqa+MpZosurISblw6w8T5wyLse3Lk16toxxg+3s/40CHGTx9k5JRw3cfYqX7Gjvdy8WQf4ycHuHiyn4snB7h8ej8Tp/dz5dwJxk8cYPzEIabOHeSiQOI43cv4qV4uCI9P9nLhZL/4pY0d62TseLeosjx2bDeVWXGiwpjQkWL4SAfnD3eKs/zMgU66G0vprS+kd2cJuTE+7KnNIS/Wh6xId473NrFvVxUz40fobSlmpYURXyz7ksnhw4ycPMDY+QNMXxpi+tIoU5NjXJkc5aogtPzkyROOHTtGY2Md6RkphAT7sKutmu7WHQR42ZOZEEJapBeZIh3HlkhPW0LcbbC1thAducnCgM0WusxND3Nt4gxXBD7PJeE6JJrAShk5dYCrE0NcuyjQc86IdkPoljExxI2Jc9y6eI7rwu+NnsJAUw5LQxUs9DWwXWOGkbo8q3Q1MdVVwEBDhgsn94uK0dPnDjF1dpDJof2ijZ/uEzlJl88MiFQfQQ15cHc9Y8f3MnJ0j6gxd+7gLnElnNrfSm1+KtpLJVRlxhHts5XMcFcGWisozopmZuQASfHhLF2xlN9++Vv6upo4d2KvyLS5cOYw1y6f5+rUGNemBcLMCDeuXEZyduQER48eoLQ0n/zcLAIDPPHzcqCltpjWuiLc7NZQlBYuzsiEEDect1gQ7m0nLvXUCB+Gj+1fpAtNjSxShSYFVs6IeL0zO8H54/u5OSk8H+HGxPivstrjzF5efK/QhmTussDcGeHG1DB3RXW2S9yfneDh3GURi/2fFI/LopTczakRbgpXARYtMHimhM4ii8wg8e9cHmbu8nmGTwwwNzPO9PgJJoYFetJBkdVz7vjA4l43NMju1io6a/NIjHSlMjuWydFDXBs7jlThNxiqLyUjPoCrF05zcrBTdOSVi0NcEuTnxs8wOzXMN3duoCrzGySnDnexp7WSmso88nNSiQkLwMPVnvSUSHZW5dFQkU15dhxbVxmLIU9MwDYyYwNFHb07tyZFitKc8IH+/YP9+oEEbtbJo33/+bqgl/df3jvC3atj3L22iBO/dW18UWtveow7U6PiVbRftffu/kqL+i92ZUzU4hPU5MT/Y/pXzPn/Qbmqrs7n9pUL/+W1GwLlauYy16/N8Pjhdfb17yIsYBsjx3u4eO4Aq/SVMVJfhr21EROjR0Qi0JlDvVwUQPdnDnN5+KRIr3py7xpyX0k4c3IQyUBXHTuqMmndkU91cQb5Wcn4ebqw0dqUttoikXaVER9MmJcDKZG+FKVG0LqjhJuzk8xd/9WuTnDzyqLA4Oy1MZGPc2xfF7cENpPgIFHr7wL3rgqspwmRmiUwn+5fuyxexVl45YLoWEFa/dHVi9y9epHb18a5JYgWzggfXFhG57h6+QzXLp7m6oVT4lUgxHW37+Twjib2xWXQX72Dy9n1HI8p4MSO3ezOq6StoIzakDiqHDwpiUumr7qWl2eucG16mmtXJnl47y5VxZmMH+/n+L42dJW+QldlGSf2L9J8Du/v4OThPYyfPcKFs4eYGj3N9wvPWfqVBC8XG67MDCPZ01ZCR2MxNcUpNNfkUlOUJlLCAtydyEqMoa4kneqCNGqL08SQYez0YSZGTjM+ckYMRAW987Hho4we24eb5nJ89eUIMVYmebUmdUHbGDt3jItDR7l07jjjQ4JY4lHGzxwRwwfhOn76sHgVqF/CHXFMuCueOczoqUOMnjzAyIlBzp/Yz5nDezm+r4NjA20cG+jgYM9O9u2uY3dzJfauLnR27mH45GluXrvNsUOnOTF4grOHT9M7eJzd/QeprqomXlCWjo9iV109+/v7mL/3DadPn+bMmeOMj5/nzNF+MT7WVVlCT3sN925corejjgM9rYyc3M/w0CEuj5zgm3uzrDRUQ1t1KdevjLGw8AJJV1MxbTvyaagU4qpk9rZWExfqI56nQ/08qS/Ppq0qn7a6Ur6+fXWRCTH7KyNsbpERdm9ugm8e3uT5k7sM9LTx5P5Nnj28zV1B+HHuP+3/Zpf9/7bLPJi7LHL07sxd4c7VyyIb8urF08yMD3H5wgmuDB9h9PwgY8f7iI6NZvVWGxpa2zl3doS6ne2UNHXS2bmXvT37SU7Lo3tPH8WFpcTFxxIVHEBSYjL7T57i66+/Ye7mDWZvzXL31m2cbNYRE+RG/64d4r4oBOKC6qVwLBwVeH6jp2isyMdISSIeHd++ecbCwjMkXTuLaK/Pp1MgYe+p50hfGzPjZ3Bx2EJkSAjNVfkc7u8UnfcfDvzVmXfn/tO+vneDPbsauTc7IT4Xfi44+P90/P2bk9y5dYV7N6/x6NasSMW7d/u6uGE/vH2dh3dmeXR3lseC6uHdmzy9P/urXVu0e9fFfUm0O1e5NzfN1ckRzg+dIKcwh7SU7TS1t4nNz5JTMsjIL6Cvp5fS2lpRobu2tl5smhITHY2fvxdu7s68efOGB3dvcvfODe7evs6d27NcGD7FpfOHaa0vpqulkoO9LRzd18nxQ3tFjpmVxlLu35jk2+ePeLvwgu7mSiTdu8pprc7h8EAz+Unhou0ozqBzZxm72yrp393Cw7kJ5gWu19M7zD+9L3a+WnjxYJHz9eoh71/e4/38E54/vsWHl/+p2PnhzTM+Ljzj08L/TWQTGlk94/PbZ3x8/1ykDn768EJsuiTafxDa/t3+nVb4ZpFG+OEN3//6/Pvv5vndpwW+/7TA5+8FquG8aJ8/vuXz53nRPgo0xM/z3Jyd4Zc//m7xvZ/f8cPHd3z6/J5PnxYlJD9+J/zeZ37/h98xNnaOivwUju7roqu1kuMH9/Lg9lXcLNVFTvnLx3f57v1r3rx8gofpCiQDe6rp66yisTKXolTBial0NZXR01ZDX2cNB3taOdLfyf7uZo7s383VsbOc6anmXE8Vw701jPTXMb6viXevHotcDYFUsmiCwwVpyvu8EYh2L+4z/+IBb148YOHbh2KXMKEN2YeXj3n/4gnfvfqaj6+f8+H1U5GfKXTNENkub16Ir38SZFHnX/BpXmAYClTHl3yefylSHr+fFx6/4vuF14uvLwivvxZB/x8F8t7bl3x8+4qP71/x4eU3PJy7xNXhI0ye7hW7kE2d28fUuQGR4vbq1Twj54cZHT7P+PgwmdE+jJ7aT3dnA7OT5zh7tJfH92ZF6trPf/yJsLVyJNtpICnOiaU0NYqyjBh2lmaIFEohD7dfkDPo7+Bgb5t4Bz7Q18LhwS7OH9vHuYGmRUf2VDPaV8twTwXfLbzkzbcPefPt/UX+5/PHzH/7Da9fPePNq2fMv3zG69fPeP/yG94LbdZePhPFGwXW4qc33/6XdiP//0yYzcJd89PCaz4vvBH7SgjEQYED9f89m//ThA8v7Glf37zM6NG9TJ8bYOq84MRBMYAXtpzpmavcunWL2Vu3uSHYzdv0NNUwdfEkE2PnuH7lotgS7vtP7ykI3kqmkw7J9hpIKoqSaCpJo3tnEf1CVmbPDg53t3BiXydnj/ZxYrCL00f7OC2clw/3M3R0H3Pjp7g3fZa7M+e4M32e2zPn+PmHT/zw8T37+3cz2Nspaiv3djYy2NPOwK4dHOptw0L+S/rbq6nIiMJedwWOejLY6S3HQVsGe+0luOgsx1V3BX5mcgRYKoqUlMC1yviZyeJtLCRuZfG3VCFMkKddq0HAKg06q7IYOtzB9MULXL40weTEJFOTM0xOzjA9dYXrV69z7ep1MSFz/dos167PcnnsBOeODTA7sdh/Z1YQtZ4Y5acff+L48SNMTFzm0aOHPHr8lPvfPOPhk2diK8HpyQtik5rvPiyI4VqpvylF7kbkbtMWWgmWcVyQ9T7Yx9nDA5wXesqcGmTs3FEuj57l8shpRs8fZVwIeYSwZOgIj+YusyDQU39dxm+e3eenHz7yD3/6A5cunOPw/h7293TS19lCoOMqypNDOLxnJz5bV+G6zoTO2kLstL7C1VgeXxNl3I2W42m4DE+D5fgYyRBqpUTQajmRPRWyRhk/U3n8TGXwN5bDy3g5gVZKYtnBy0SWnXlxTJ3p59j+Pq5dv8aNazeYnZ3jxo1Fquut2/e4d+8xc/cfcOfeQx7cfSgKbr988uhXuuGifXw/z7/+67/x4PFDnjx5xt0795ienmF4eJhTpw7S0dLAs29u8/HdG/74048UexpQF2JFXYgF5d76SM4IR6YT+xk9eZDzZw8xev4UE2J24wJXBOXuqQtMT4wzNTEmqoVNXhrn3vUJkcz0745ceP417958y19/+ZmFN685feoYUxcXj4CBazTwW6XG2cE9dDeU4GamSqK9Pkn2hmwX8DebtYm11iDUWpkwoenPWhXi1muQsFGThE1aJG3RYftGdbZvUCdxowaJG9TIstcnzVZKkp02Z/bWc234AOGbDXj15DHPnzzhxbMXvHzxijev5nnz+j2vF97zduE73r99z5uXr7h384pIgBbZhsIyfTfPhw/z/NPf/pnPAgP2hx/5/ofv+fy77/n8+TM/fP6RuWtXRPHc796+5f7MKEn2q6gLtaIh3ILGUEskgu7C3WsT3BOUx4UQ55agEnBFDEm+uSMoBMzy6N6cGJoIqgHfCHbrOg9vXPo/HPmYVy+e8E9/+RM///wz9+/d58nXj6kvTCTYWpOgNWoc72vh7ImDJAuVQVdjCtwMKPEwocBJjxJnPYqcdCh20qXY1YAiV31K3A0X+zS66JIqaNdtUiJpkxIpm9XJEcScHXXIsNcWKerdVYmURLiKvKqF+QX++Puf+f3v/8jvf/8Lf/jDL/z+D7/wxz/+iV9++UeeP3kkCkv/IDAihb3z/bxIg//xhx/40z/8mT/88Rd++uOf+OHHH/nxdz/x0+//yI9/+CPDZ4+LJO4fPr2jI8WFpojVJNia0ZW8hZb4dUhyk6PJioskMT6S9OR42poq6e1sIC02gLy4IAoTgilKCqIyNZSK1GCqUoIpjPPi65sTLDxdlN9eELS/nz3jL3/+mb/95W/cv3ufu3ducmN6An8rBfxWKRC7bQ1nju0jwV6XHE8LCt0Epq85JW4GlHuZUOFtRJW3EXUBltT4W4qF/kpBDdvHlGIXfQqctCl01CbPfpFamumgTeJWNVLdLKgNXsvhrhrm5xf4/ONPZAt/w201pX6WVAWvpjLAgupAK4o9TBg/sosLpwf4/v2iI4UbkCBO/S//+m8UeltRJPTCddClvzGXc4daaYrbTHPiVp7cvSq+//c/faYm0IzmyLWisnah7wZ2ZzkgMVRRxEhNHnMjPRTlluK1zQZXG3O812nhvU4DH2s1AtdpEGCtITI/BQvdJOXiib28fnRdDHPmn93lzYsn/OHHz/z5L3/myeOvuXd7jvmX3yJQCbOdTcn2MCfRxZx8bwvy3E3IdNQmw0mYbaokb1Ulw0adNFtNSlwNKPUwpCbQnFp/M1ojVtMcZEFLkCWtoStpCbGkNXwVHVFraYlYxa5YaxpCV3Jvbpb5N295evs65Z4GxG02oDpwLRU+Kyn1MabYy4g0ew2xt++D65cXhRjev1nUSf/whv/1v/4H+V4m1IetpT7YitbIdbRFr6cxdBWdcVt5dv+6uJf+9PkDOyPM2RluRVPkKhojLGgRmoz6eWzDQl8HU6ksDkbyOBsriNqCPitV8F+jSugGLYI3aBG6WYvIzZpE2eoQulGLijhPvhFnpcDzFTQ7nvJ2/oXYSnV+fp67N6/z7Oun1EXbk+9mRMxWfRojNotE+bqQtdQGWVIfZE6tlyE1XgZUC5RvN13qfYzF1+q8DCl106bcXUfkC5c4qFPpok2dlwGN/iZ0xliL1p/uRNf2jbyff8f8mwUGCoLpiLCmPnwVXSmO7E7cTG+aPV3bN7EraStTp3fz5uldkUf87+GSEDp9+3CWhrBVtMZYL3ZiDTanIdCMnUHm1AQYc3/24qIjP36gKcyCXQnraAwzoznMbFFKfYO1Gda6ctjqy2CvL8ivyuFrpYavlSohmzSJ2qxNzFaBgywlzk6HmE2axG2SEm4t5cnty4viEoJ2g7hPfsM///UvfHj/ntt37jA3e4MT3S0kO+oSsEZQ2TWmLnAVO0NW0RpuRXuQJc1BpnQEmtMeYEZrsCndMWvoiV1Lv8AAj11Nb+xa2kIsaAswoynAmEY/Qxp9dNnpZ0qtr5FIX68KWcN37z7w6cPvaAw0pjt+I31JWyjyWc/hAncO5btxtMiTU3UxDB9t58d3L8Xl/O/SIL//3fccqk1md/IW0fECzb0xxII6P2OaAs2p9zNjdLCRHxYW+On772mKsmJX4hq6EtfREmlBa/RKJOY6K7CWCoX5pSKrwNVUAXdTRXzXqBK0VpngDRqE/GrB1kqErVMlepMW4WtVuDlxktffLO6T808f8vrFc/7857/wz3//Nw71tnNjZpIn9+4SZyNFIOLmuepQIHTSc1KjcJuUXHslkVO9w0OPel9DOoLN6E3cIOrb70tdLz4eTN5CT7QVu8PM6YlaLbbe7Ywy42CWLYNZ9hwtcOJEaz5vX71jdvQkexM2ijN1Z4g5eW7GdCWvpSliJV3J6znTWcD4sU5+fL/wH8z2Twuv+Pu//jcOFnpwotyPU5W+HCpy41iJGz2pm+gTx7OB7mxXfvrwjp8+f2Jn/Gp2J62jJWY9e5LX0R61EomTqTyu5kp4mirhZSG02VIQO/0JdH2hp3Cg0Fd4vaoYz/mvVBAlS8LWqRBmrUp7UQLP786IDPn5p49YePqCn373iX/42z+T5L2em9ev8PjBA1wsBRaWOTWBFuIG3RFrTVfMWtqCzWgLMBadWOMqFSWYy1w0KdmmTrWHDjXeOnRFW7ErworuqDX0x28Q6f8Cs/5YvhOHcuw5kL+NqbMHWHj1HUdKfDic68CJIidOFjtyrtyZPVmuok7/cIsfk8fbuTp8aJF5/1Zw4hs+LLziX/7bf6MxxJyBbHuOFLtyvlag3PowvMOfY/mOHM9zFK+vn9/ju4UFTjZHcaTChdM1vhwpdeZ4mTsSv9WKRGzQIGarHvE22qS6GJPubCjq/Ke7GJLpYUryNn3iN2kQu0GVqHWKRKxTIXKzGtvt9Ll3c5w3X98Rl/ibp4JMyhv+8MvPdFYXcPH8aa7NTFOy3ZesbVJKvIxEPY46f2N2+BhR46FHk7eRSOcWGxnErGF/yib2xKxjX4oNPUmb2bt9Izt8DSlyEHqeKZK/VY4iOwXq/fTZFW8ttiZ8/OAe717Pc6rSkaGKbQxVuHK+2p2hCmeaYjcxvTea0ZZgrpzu5tHcJfEMvmiveP9ugeezwwxVuDPeHMxQlRd9mZtpiV5JY4Q5bRGWVHrrUuVjyP7qLOZfveD66TaRA3+pI4RLXeGMCU0SojZpkWCnS7KTEQW+Kyn2Wy2qCZQHWFEeslrcf0q9TShwN6LEw5BiD0NR8EZQGCjxNubW9DnePL7N/Nf3efX0MfNPn/Hzz3/i20e3SfLayNSlcYZP9ZNqqybejYvddajwEviBgqS6lAoXocG1FnWu2jQFGNEeZi7ClhsDBFarhnhnbg6xZKevKV2RluyP30BP5CqO5TpxKNeR3qR19BV4c7krkdl9sWLraaERw8V6T8aEppH1nhytC+RiZyTTJ7t4+/z+rzILgiNf8/3vPnNhTyZD5a6cKHJhtMFPlFwYrvfleJmz+PhcrRdnK9wZrnXnWIG9ONOHG7xEjv5EZ9iiHEPEejXC1ysTa6NJnK0O8bZSojerE2erRaLAinLSE8+TpT6mVAodTgJX0pmwlbZ4G9rjtjK0t5yn967x+psHvPz6AW++ecLPP//CP/zlX9gRsopsPwv6Mh3oTt7AQOYWelM20h2/jqYAQ+p99ETNiQpXTaqdNanz0WOHrwHVHtpUewiEIx3q/YyocNWixlWbOncpdW6aNPno0x1txYHMzWKbg9HGQMZ3+nOx2Y8LtR6MVrqKqgojlYJOhQtlARsY3ZvG5UPN/LDwRlRZEOUgFl7y93/9N44X2zNc7cnhPFsuNvgx0RHCWHMAlzvDGW8PZqYnlku7w5hsD2O02Vfs/z1S58lQjSdX9saI7xO7eWY6G5HqoEeyox4pTvpkbzMm292IVDst0hykZNhJSf81EM5x0SXfXZ9c4eppQGXIRh5cv8Czx/dEbanX33zNT9//jj//4/+kxG8l+3MdxX3kfI03Z2u9OVfjwbkyd45nb+Fo+iaOpG3kUMo69m9fLQoj7EteS3ecJZ3RpmIz8+YQA1GOot5diwbBsR46ohxFo78OraGmNAUbsTvWko4Ic1rCDOkMMROlK1pDDOmOXcnhbBuOFrkw0lvM8P56Pr1+LTpSsE9v5vnrz39goj2AS21+TLUHc1mwjjCxV6gg6nClL47r+4ReoOlM7I7gQlsgF5qEriC+jNR5c7EpgJmeKCT1UdbUhllTE7qKiiBLSvzMKPA0JNtVl1xHqXhEy9+mS56zNgWCSJKfCaWehpR5G1HspU+2iw7XLp7lxcM5njy6x7PHD3j17bf89W//ndZcV2Z6E7i4K5wrnRGi0sTFlgCGa1wZLnPiXKEdZwttF63YnrEdHozXuHGu0lGcVcJsOlvuyLHM9QwmrmQgwYI9kYa0BOnR4qdFZ6QRnVHGdEZZivIZHeEm7Iowo8nXgBY/fZp8DBZnvacuNfFejBxs593rb/nu5XPef/uC9/NveD57nLl+obVJGFOdgczsCuJyp9D3PUl0oNAwfvZwOlf7U7jWl8iF5gBGhA4ljcLM9GK83o8LzYFIdqc70J3pILZA6c1xYiDPjb2p9nQmbKAzcSMdcevoiF5LU9hKmqNXURtsQmWAcGowosLXkHJfQ07uquLB7Ss8vXObp3fu8PDeHT7Mz3P7ZCGz+5O40pfAjLgEQpjsChFlYS5WejBS5shYiSMjZQ4MC21nd/oy3uDFhcZFIYpLO324sNObkUonRkrtGS93ZKzckQuVLpwvt2eqNZCJJn9Gat05XerE3kQrOsJNafCV0uQtCKloU+ehRY2HNim22tyZWuxB/PbVC+a/fc7vf/yR5+PV3DqYzJ39Mcz1R3JlTzBX94Yz15fA7aPZzB7O5uaBNGb6BMcmc33/dlHEQnDeREswFxp9udjgjaQ7Zxv78t3YV+TOQJE7+/Nd2JtpT2+qHX0ZgmSIjWiHipw5UeHOgRInTld5cbTUjZOVHpyr8+VMuRvHKtw5XR/K+ZYwRtriKI2x48r+DCb3xjPVncCV7mhmemKY7Bbka9y5VOfBhVp3cQZeqHVlfIc7l1uDuNDsy6VWQcVDUPzwZ6otgNFawfHbRDWPi1XbGCt34EKlE5O7ArncHsB4ux+Xdwcz3uzDhTY/Lu704aLQ+afWjUs7vBmtcuFIzgamR47x/OYU38xN8OzWNM9vjvFktIy7p9J5eEyYfbHcOhgralwIDrt7JI9bB7O41p8qdvG9NrBd7G8jTI6pXeFcagsRnXqpWWjfuiMIoafwoWp/jlYHMljqzaFSLw6UuXG4wJFDxS4cK3Xh9A5fztR7c3qHN2cafBiq8eLcTl9OCrOj3puxJn8u7wrhYmsol7tD2V8VwPS+LCb3CqIbKeKeIzQ9numK5nKzHxPNPky2BDHR4M2EsFSafJjqCGGyPWhR7qQ9kIk2YcMP5IIglbLDhYlGD6YbvbjYIHwR7kzvFhRtopjcHca1vlhm9kZwvTeGG/1xTLcFMS1I9XSFcWVPOFe7I2hKc+ab8UrunyvnyXgV34xW8fhcMd+MVHDvWBZfnyjgwbEsHh0v4M6RDG4dyuTukQLuHMpj7mgmd48VMncwg5sHM7kxmMr1PbFMdUUyLfRRvnG6hsmBLKb60pjsTWWmP4VLe7eLdvVAPlcP5jA1kM61gxlc2ZfG1QMpXBlM5UpXNJOdIUz3RDCzJ4zZgTgxHBD+4IU9Kdw+ls/NowXMHc7k5qFMZvcJGi+JXNkdwdWuMK7uEiyc6TZ/ptsCuLJXcEYMU3vCuD6QwLWeaGb745ntjRSFb6bb/Zhu92Wmw4+pNl+m2n2Y7YsUZ89M96IjZwdiudYvSAhFM7U7hOs9UVzvCeNGXxRXekKY7Ylg9kQ2987kce90AQ/PFnLnZB63jufx4EQBt/Ync6M/gZsHUpgTxxAlSg/dEPVptjO3P4Mbg+lc7Uvh2kA6s/2JTHaEM7UrFEl1Qy2l5YWk52eRnp5KQmI80VEhhIQFEhzki3+AFwGBHqzVV2CdngIbDRTYrC8n9hOyNVAUu9DaqsjgIL+UzTLLsJZZzhqZZWyUWc5G2eVskFnOBjnhuowNssvZvOJLfPQ02Cq7VOw3tElmKRtllrFFewXBrjqEu6kR5ikl3EuPEHcVsTlSnNBON1TK9iAN0sINSArRF/sSpUeYkhxuSHKoLrG+UnztVAkVuivbSyneokyZsyrFbiqUh2iR7a5AlquS2FCpwF2ZYn8NcnyVyXJTJMlGniwnVYr8dEm3VcVE9QukK01QMNJBQU+b36xYiqyulBX6OigYmCIj1WeFqiAaoo2stg6SusY6yirKyC/IFRtxJyVtJzomhMiwYLEhd7C/N4F+nqw1UMJaT54t+gpsEbg0ohMVxGY4GzXlWCvzJQ5yy9m04ivsFWRYu+IrNq5YytoVXxCgp4qLirxIig/QUhEx5Vtll2Mrt5zNgiOFLlPay4hwVSPWT4dIDzWSgnSJ8dEhxlOT9DBD4v2lxPpqkhJqQFHSGtJDDcmOsiAnwozc2FUkBxjivVWNCDMVSjZpUmqnSqW3DhX+2mQLrd48pWRsUSbHTpXCbZrku6hSsE2ZHFt58u3VyHNRJ32zAmkbVEW4ipKxNrL6mmJTcDltTVbo6iCjayBKMSxVERRWtFmqLmWFVANJfXMDldUVokRNdlYGqSlJxMdHEhkRSqjANwz0JcjPE5uV2qwzUGSzoSI2gsKKkbLoSHtjJRF0v01BhihTbVxVVoiiIJEGWgTpqeKksIRIfeG6DHcVOXy1Vdgs85XYBV3ofuWotKj9Y6O1jMwIQzJD9Yn10STSW5MEdy3CnJTEjlhp4YaiE7NjzEWJmrRwI5IChI4GBiQHCV2JTPG30yTOQpOCzWqiTE35Ng0KXdTJ3KRMnp0quXbqZG5RI3OLOnm2KlS66pK6XkZUXUndoECOIKRopYie8lJMN67iKyU5NEx0UdQ3YKmGLjLaxshoGS4KgiipI6Ojw3KpJpKdLY3U1tSKqIO83GzS0pJJFPQrokIJDQskLMiXoAAvHNcZsUn3VzLS/6Hz42CsxFYtOXw1lQnQUcZXqoK3iizeyivwUFqBv7oCzooy2Mp8RZCmjOhkH3U5kUQkiIb4G2piI/sFWzWXiJIL+bFG5ETpkRioS4y7OjHuGsR5ahLjrkpahLEoniSIJgk6P2Xp6ymOX0Oyvx7poRb4btUgwUyJkg1qFKxTpHCTMqUumuTZaZKyVpl4Cw1izVRIWa9K9kaBhixDqY8BMSu/YvvaZcRbyZJip4OhhgJL1JT5jewyVIwMRVkawQSdnyVqOixVk7JCXQN5Q8GJGkhE3Yr6GrEDWG5eDpmZaWzfHktsZJjY/yIsyJ+wQD/sBCCpgTx2BsrYGyuIigECgdPJWIUtGitwVZbFR5Ck0ZQnQFuTeDMtIkw08dNRZqvcF3iqyRNvpIy34lJidZSJEiRhVuqTZiElc50uG9W/IivWkJKElZQmWZIaokuK72JHMcGJib7aJAXoUJCwShRMKk6xJj/GQmyBlh+9ijhvHTw3q5KxTkNUCdjhqU+FiwYVLuoUOQpyCytIs1YkxkydOAsFsQ1Vlb+B2MKvMkCHiiB9Mm3UibJWw0xfg98uX4qMhgbaGy1QNjbiCzXN/5eyvw7P8lz7ddGMtkCI+ytxFzRY3N3d3d1diBEhIQQSgrtbkECCu5WWFtoihVKqwzvG+HzONefac537uJ/Q8Y1vrrX3sfcf1/G8EZJwvdd9yX0/z+9E1VDkQSUf6ctRlStRV5owz8AIlaENI3T3ddPY3CDlxeKSIvJz0iTNCqGkkhQfRXxMOHFh3rha6uNproePjb7kRKGkEmBniLupJr7aC4iU60uKUwHa6sSb6hAlwHUa84gyNiRBqU+quSGxRuqS7EKkvjaljmYUO5oSrdDAVbaQ6gwbihItKI23oDrdjrxIU0koKStYRkaIjKI4U7LDZdRnL6Y8yZYSwXRPs5eAdzkRlvgu16Z8lT49Eea0RSpoChKPysmkZ7Sb/OeUVMrc9Ml0ELo/lpS4y6n00afUU5/WWCvSl+sRtdgQfSNNtE3lGDpaY+m2DD1bMxRLF7NAppgTS9IXV0NUdZUS5k1lZEzoVfTP5cXaKspEXszNJj3tvRPjokmMjyAhJgwPM6F5Nqc25Wujg7+tAf52BniZahOs0CNKpkeETI90GwVRcl2iTYwI0tcg1UJBslyPJBN96XHibAcTEk30ybDQJ9fOkHxrQ9yV82nMXERuhIziWEuyw2RkhxjPKU2FKMgJk1ESb05lui11WQ4Ux1mSGWpIQbQ5ZSn2ZEaY4umkScVqHXoSzOiMVdIWJo4kDOgQylRinHU1oC3chDYR4Y4GNAdaEGuqR3OQGTV+YqfelCBHPbR0NTBabI/RUlu0nZQsNJOj52CBob2NFIWCjbfQwISForgYmKAyunkTQ8MbWNvdSX1DLeXlpRTm55CRkSxJ0aQkiFYnjKS4SNwstaRiIpzoZytsTm3K00SLGHNDwmS6BMt0SbVWEm8ml7R9BE4xRK5NnJCdMTMg2khHkqnJtFaSZqFHsYOCQnMjPGTzyQ83IydETlawMBn5kSY0ZC2WlndLnhP1ebY05DlQm2lLQ/YiGnIc5pweb0Jjri1eDlq0xlnRGmZEV5iMtiBDSYamxkOfRh85FS4y6rxMqVyjT3uQeCbRmDhzbSpWmJC/SF8qLK5mC9HQUUPb2gxdWzPki2xZaKxA29qShXIT5hsp+VBXwUI9ISRnzEJjS1SEIsDgyAg9Ykk3NVBVVUlBYQ6ZGSlSJKYmxpIYF0FKTDRuFqIia0u8Kl+hDmAnTBdPUy2psATpisos2EDqkkyXv85CPDXnk2RpLIknJSn1iNDTwE9tHiVLbcm1lJFjakiIrjqecg0KI80oiTYjO9iA5twltBctpiHbjvpsC6rTLKjNtKI2w5q6TGsqkk0pTzKmJt2SynRjmvItcLNTlyRf6/wMaQs1pt5HSaOPDvXu+tR5G9Dsp6RylQFNXibUuxtT6KhJvYcxmXZGJFrqE2Opi4uZOuq62qibylmgkDNfrkTX0krCSOpb2zHPQI7xstUolqxA7rwaHael73XPNo7SPzhAS4uQ+K+ktCRXEpATkSiKi1CXSo2LxEPg/CyEVJeBpKISZKtPgK3IkboEa6sTpdDBT0+NMLme1N4EG6jhoT6PTAsTMsyMSRDiSGYycm2MidBRJ0x7AUEa4sHNBXjI1SiKErwjY8riTalKMacs0ZSqVEsac22oSjahNFFBcawRlckmlCXIacy2oqXQlo5iG2qyzXC316E73py+JCuaPI1oCVLQFaqkM8CUNj8lVS76FC1Sp2yJJrWr5bSKqFxtQJ6jpnQWXuyjwE6pjqbMCAM7QY60QsvMGnVTcxbIzaV8KF/qjK7TMjSt7NGxXYSO3SJUJndsZ/3GDQwMDdLa0SZx50rLCsnPSf97hU6Ji5aWs6eTEi9LA8T5jZ+V1n9KdVkbEKnQJtPBjDClHjHmcmKVgpsoI0hfjWA9NZLtjYkx1CFSV5UcSzl+6h/hq7aAQB11qQXykC0kK1ghLee1ZctpyLGlKtWM0lhjqtNNaS22kOS6uiqs6Ci2piJJ6J7JKU2USVHYkGvOalM1BhNsaPMXjEV9ekONafZW0C6E4ryNafEzpcFVSZmzASUO6lQJaGSQOeWuCrasa2PrxgG6ertJLy0mvjifxUEeRKWmsNrXB7sVSzGwt8B09WKMHG0ISIjFIy4cn+QoVLbt3sXwpo0MCuG4tZ1zwnFCzjAnm6z0/1zSqQnRBArai6U+PqK9sRGHX7pSJIpWJ9BQOGMBvrrzJUcmW4mcaECMiQ6FSy2IlqmRbqpH5VIrojQXSrzHIO05Yqb0iLFMjWxBtC5aQU2GOS0F9vRUOdNd5UxbsRWd5Va0lZjTlG9MXZaMtkILGvNMJK2zhlxjGnOtcJbPo9VHRluAqcQqbQsxpj/BgjZ/BeVr9OkQAprOMqpcjahwMaTRx4RqNxlJ9up8IVTv//wLP/3xz2ybOsnYgR0ktxSz/8g+0vPTCYoJwsrVkUV+zuhZ6NM9Pkj9+s45rbPtu3cxNrGFdSND9K3ro6mpkeqqCsry8yRc46/FJSMumhif1VI+nGP56UrSMyIahRN9TXXx09EgWORGYwMSreQkmBtQ4GROjq2SfDtjSuyFmRKvr06yUldyno/aQmIN9fGRz6c+bSkN2ba0lwi651Kacu3oKLWkIV8pqUf1VNrSVmhKZ6k5a8ssaC00la4dpWZUp8twMprPuhgzWkIV9MSb0RVjQnuEkuYgQ1qDTMlyMqAzxISWQFMa/Iyp8zGlwdcEb5kqT16+4sdf/pl3v/8Lu86dom/3ZqrWN3Po6AHi0+MICPPBZJUN1u5OaCg12bB3QpKgEepSKrv2HWTz5FYGNozQ199HW2srdXW1VBYWkZ/9vulOiiM9PoaEMF+pufa10pXE4iRHvheMczFaSJChLpEKA4JlelJfGC/XJ9VMTqIQjpPpUmhvTpqJIfF6msTqa+KrPp8SezNiNOfjZ6RGWaIDTTmOtOQ70ZhjS32mwKRas67KnvZiwXS1oKvckt4qa1oKjCWEakWyATXpctaWmuGkP4++dFOGcmxYG21KY4ABPTHm9Cda0R9vTne0BW0hFhStNKbaQ06Okx4Fy2W4mmjz5MUrfv/Xf+XtD39g/8w5undvondjL5NbR4lLi8Yr0A1LNyesPRahY6LDztMHqFvfQcdYHyp7Dx5mfOs2hkfH6Vu3jvb2durr66kuLaUgJ1NqukU0ZgiV0qgg/ESDLZavEIyTVPfEctbHRa6Ov54GCUo5YQa6RJoaEGWsR6RMmziFHsGa8+fU9uSGpCtlJBrMqe2l6KuSZqBFmLEWpdG2rC1eRG+VA13lNnRXWNNXLV5b05CjoKvUjpYCM9qKzCQxucYcJS35FjTlmdKQI8PR4CM6wo1pCzWiO1JJk58xDV76NHka0BZsQtlKOSVLDUm3l1PpItoaA0qXKglcbsW3v/0dP//yN569ecfeK9NUbO5g07ZRtm4fIyIpHFf/1dj4Lsfc1R5LJ3OG94zTtnkd/VtHUNl9+Ahbd+5kdHSMgcFBOkRebKinpqyC0vxcstPn+sWshDiJi+crYJJCJE4oSdnoScs50EYHd2MtfPU0iDEyJMZIhyxzEwqsjEm2kJFoLCfeUJc4XV1S5UZE6GoSp6VGjkKPfGM9qoRslokW5VFW9FfZS84TjhLLVyjrNeaY0JBnSnuBCTUZQpLLhMpkBYUxun//enuxBXaCoplgQU+4gp5QJQPxVnT4KSQxOGFVqyzJddIn2UJJV6gNQeof0LjaiphAV/7l/4Tv//gLn3z1NQeuzpA31sSm8WEOHd5NVGI4zm7LsPVbjpmzNXFZcTS+X8pCcU/lwJHj7Nizh5HxcYbXC4mZLpoaGqmuKKesuIA8IRCXkihtjeUkJ+FjqYePld7c7CyKio0u/lb6eJppEmCgJaHAQ/Q0JanCWAMhemREtL4WsWKp62gQpLWQCANN0ox0aFxsRvNyc5KNtAk11aUoTEFrnjmNWaY0ZMqpSTWkMcOUlhwzOgqsqMs0oTrVmPrMuTZI5MmadAV1mQo6ii2x151HwxpDmj3kdAeYUuuiS+MaA2pc5dStUdAu7p90MaNoqRH1XiaULTGlfJGc4ow4/vjv/5Pvfv9nrnzyCUcuXyJ6XRknju1ny7aNRCdHYL/GEaewNRgvtaCqo5r2sT5aR3vpEnJcR46cYOeeg1JxWT8ySndvF63NLdSKrbHiIkkcLj01loyEeDJTkvCyNZAkXcXcHGStJ+mZCfEjX3NtgnTVCZPp4a25gFilEQE66oRoaxBtpEekgS5BWguI0hFaPdbULjWn0k5JlsFCKRoFiDPHX0lTui0VMeZ0FVvQkWdLtWhh8kxoy7OUesLqNFNq0kyk3rAh25SWAnMaso2pyVCwSFeoNStpXG1Kk6sRjW4y1gaYU+cqp9lHcLDlEkm8zlNJV5gN1W6mNLmY0dbRzB/+7X/y3R//xuzjRxy5dQW35nTOTB1mYKSHiPhQrFbZsThkDVqmOnRu7qVz0wDtm/rpFpTnoyeFltlccRG6j33reulsa6e2tprykkKpuAhhuPTkeDKS4/CyU/6nE8VyttYh0FoXHwsdCaOeaionTqZPlJ6OtIxjjMS8rCRBbkC8wZyUa5LeQuK0FpCop0qaXJtcc30iTdXJ9pdTF29MW74Z7fkWtOWa0ZptTlmcjPJ4Gc1ZFpRFy6lIVtCQJsSP5FRlyqlIUVKXac5ygw/JX2RIg4s1hQ46tHsb0+appMVDTqevBR1+pjR5yGn1M6cz1JrOMAdKnI3Ye3g/f/qP/5Mf//rvnL17k6O3r+PdlsXpqWNU1BQTEhuMmYu9JJ6pJkSMtwzM6T5uHmCt0Hw8dvoMorhMbNsuqesNDg3S3jInf11VVkJBdiZZ6XNOTE+KI2CxUCEVOzhzGG2h9yiE4fysdAnX1yRSR1syofEoHBmvr0eophpxhnqkGmpT4WhOjrE+sZrz6A9YTP1yOY0rjclZoiDDx4juUntJmnBtkRVriyxpy7ekOceCnGAjcgIUtOXaU5lgRVm8nPpUE6qSFeSG6FGVaMZqo/l0BppS6yaj0cOMnkBLmtxk1KzQp8PHkppVQvNRm3ZvS2pclJStMqFopSGX7t/hD//6P/jzv/w3Tt29x5Hb1/BpzuD8+VNkFKURGOWH8SpLLD0WoyPToGtigKaxXjq3DM4JZwr9sv2Hj7Jl+445Jw6sZ217F3WNdVSUFEsVOls4UQgMJ8QR6uaI7/ttsCAbfcmRc+p6egQK5ymMCFFfSIa5qYT9Fhapq02CgQ4VNiaUWMoZDHQiz1yXJmdTyhaZEaevLu1DJqwxoDbFWGKW16ebSM5rzjWjKFoojtqQH62gKNqU9kIbmrPMqUs2plls4sYpKI8xwUu5kOKVxtS4mlC0RJ8agVxZYUzVKiUVq5QULDOlwUuMoNoUORnR6GFBnrMhj5+/5Lf//K/88d/+O6fv3GP/3Svkrq9n+vxpErKS8A33w9TDFuUqC8xtjenYvE6CY7dt6qNDNNtCd2JO53E3o2ObGBoaZu3abgmWXVVWSmFuJvnpqXPVOT6W6AAX/IQ6s6jOkoyr0Zz6qLU2vvraeGur4q+lSai2tqQGFaOvS5JSSZiWGmkybbIUGjQtt6bI0oBSa0OC1D8i1EALb31V4lYYUp1kTEuOtWR1aSa05prTnGVKc74FHQVm1KSa0JhjSW2yCcXhchLXaEn6j1VxdrjJ1CgQSn6rLMi116dsqYxomRb5K63piXaiwNGSLFu5JLVd72JB0WIZ4eYLufn4Aa++/4k//tv/YOrhPbbevkjvnjFmZ88RlRKJe7A7Ft6LUS42wyvMnaaRtVIkto8PzEXimemLCLD8jj372TAxzvDIBrp6umlpbqS2sorivGzy0oQ0oWhz4kmJDMDPWoa/tb5UVEQUhtjrEmini6+RDn7auvhpaBCspSlplglJrTgdHTIURmQqDSi3k1FhZ0S1o5LaZVbEGqoTJg6xDNQIX6RLaaScylg5jenmNGdaUZ9qSnOmGU1Z5lJ0Sn1hmiXF4Qpqk+0oj7cjO0BBQZQ53iaa5K0wpljI/i+du2+8N96ScFMd3NTV8Vz4ISWrzWjwMifXQZ9cJzmB5loUFRRxanqG3/7zf0hO7L1ygv0nDnLx4hmiUqNY4bMSG98lGNrKSchJoG6wjdqhVprGRCQOoHLmvXyryIsbJ7cyPDxKT283bS1N1FRXUZqfQ25GCpnJCWTGx5ERH4aPpaHkRNFkB9pqE2Yvdrh18DPUJlBHhwgjfcKkaNQiSleHGD0tkhT6dPla0exsSqmNIbWLZKQoNIjQUsdHqI7qfUSwvSalkWZ05jnRmGZFeYyC8mhjyqIU1KZaUpNkTGGoCY3pZhSFKUlyNycjQElZ/DIKY83wNdeQ0NvrYq3pizGnN8yMvlgH/LTVcFOdR0eEFe3BFlS5WJK7yIQ6Hyt87BSEBAZz55MnfPfLP3Pm0QOqTm5l6sJpjp88RExqFHZui7DzXY6umR6Na+ulmblpQzdN4+voFPqOZ2auSLqO+w8dZ3zbVkZGR+np6aGtVWyLVVNelE9BRiqZiWI5x5GZGIWX9ZwThZhwsJ1Murk+0NYAH6U2wXraxMqMiJcrSZIpSFQoyTAxpWGVBflm+pTaGlFmryDJUJNUuS5xhjqEaamSaKZHgK0qrTm2tAjh4GhjCsOtKItxIMPLWNprrEmyoCLehOIoBSVx1lSlLCUnxJZoVwN8HXSIcDBkONmcdbEWrIszIdtGh0WqH+JqqElfoj1rxQ2dQSbSjflN3ibkLJcT4bYYTzd3fvzL3/j+l78y/enHpO/p5fLMWca3jknL2cbNCUffJWgrFtI51kfdYLsktF63sZv2TetQOTd7S9K/FaLrE0LTUewt9vdLQsJSr1hUIOVE4UQhAJeVEI23pWJuU9ZabD7MTSwiR3qZGZJkY0e642KSbC0oXmpF8SI70i2VVC03I95QR5pcQjQWEK6tRrKpjARTGVEKfQmj4uegTV6YPZWxttSn2pAV7ERWiD05UU5UpC2hMNaOqqzVNBV50lDsTH2eC835S6Qd76acNfibqFHvb8Fg7ipqghYRoqWKu0yTJh8H2iLNaRY3n4aa0RRmTkOoBdXinvO8JFxXr+bP//1/8uV333Pp6SeEbm7g4kXxcHu7JGtt7maHa8ASDE106R4foKqviZaxHhqGO2nb0IvK9KWbTJ2/wKGjpyVG+8ZNYwwMDNAh5FrraigvFk5MITtpThwzPT4KXydTiS/jby2EhMW2mI40tbjK1WguTaWxMoOG5GDKPZ1IWWxNY2IoxSttiTbQIFqhR7aDJaH6uvgbaZNkIiPb3ZkYW1OC7HSoTV1MXbIDtYn2FAqQWZYPFZl+lOVE01SRTlttBs0lEVTmONNZ4kpdji09lTHUZiwhZZUZ9f5LyHU0IV5Xi2hxs8BSW6oi19BVFkJbrict2e505HnTVhhEfaYngwPduLm68h/AkzffcOnpI2I2NXF2+gRV9RXS3Gzn7YSH72KMhaLzaDcV3Q00jqyVJFtbRrtQmb16j7PTs0hN9559bB6fYHD9wHuF0XqqSoVifRpZKfHSchZyrUHOguyhh5+lPn6CpSAi0UobN+VCSlfbUOhtT6y5ESk2FhSssiHZypA4mQapVkpCdDXx0lQl2taCjBWOlIZ7krbMiUD9hXiYq5MbaEGalxGlUUvID1tMWZIbNXkBtFRmsLYxn3UtRdQV+Ekng+KYoDLZkspkM4rjLMj3sWNd/krqItylTd/21CA8VD+kpyaa9rJAKVqbs1bRnOUuCW7WJK5m74EdeHm68z+Am0+fcfHzh6RsbuHC+TOSymhgvC8u/kvwcLVn2QpbKvuaJCeKKKwf6qB1Q4/giN/k/MUrnDx9gT2HDzKxZYIRIbLe1UlzUy3V5SUUCHBPylx1Fk6M83PD3UoPfysD/K3mppYAWx08TTSJtzIgUq5JgJEmmY6WhBrqEGesS6ShDtFyXTIcTQm3UZCxwoFCr2WUOFtR6GBJjKUpnsaq1KUtpTXXn5xABxLdZWQG2dBe6ERv2WoqUi3pKHclJ9Sc0lgh52pPWZyVVKFT/UzJdzWnK8WBGn8bwjTUqAlYQpq+Lm1FPjSkr6QudQkNKYtpSHGmPnkZldE27D96mLDQcP4XcO3pMy599TEVE72cPXuCpOwE/CK9CQhzZtVSU0Jjgqnpa6Kqr4XyvmZq13fQs1lSYL4nad2ePjfNvqNH2CYml9Fh+nq6pOIiKYvmZpKTnEhWYjRpsZGkRvhLaqKelvr4S2PfnPS/l5kOHgYa+BposlLjI/zE8rUyJnOpvUTqKPVcRtFSK3KdrYhU6JGxfBH5q21IFWfRcn1cjOfRkGJPe4ErVfGrSPe2pLPYg+hV2rQVOlKbZkN+mCk5IaYkeCjI9DUiM9CI3BBz4t3klIipxNeWRm9L4vU0yLUylA7N2hPtaI2zoV4SDragIdqS+khL8nwN2XXoAOVV1fxfwI3PP+fU0zus2z/O2fMniU2Nwj3Cg8jI1djbGZFXnUd5Ry2lnXVU9jZR3l1P76Z+VK7efcDMtRtSXjx87CTbd+5gw8YN9PX00tLSRK0A9uRnkZea/N6JEdLmrJtwmIWQrtbC31IIBuviY6bNGkNN3Ay1Wa6pSoDckFhTBUnmhsQLytFyS3JsFKQ7KEl3Mp9b8mZCrvVDfPXUWSOfR66/GaVxtsS4ykhwVZAVaEFfeSBhy40IWCwgFD60lbjTUriYhhxLqpIsyPC1IXqNgjLxqFuMKbV+NqSb60hTUqaLkpYYS1pizWiPNac9Sdx/bk1dmDkRVqqM79zC+OROSev28tMn7Hh4nj1Thzh/YYrM/FSW+68iOtoVczNtqjtr5lSXuxqo6G6krKuepr4mVG4+/ISZ6zfnJKxFXty7h/HJLfT39dEqtTmVlBZkS07MTIiSnJgaE4KrqTZugq4qECgW+pLqsreZFkHmMqLNjVmipUq8kx1pi2wI1VEjWEuVaENNYow0STbTpXipKfmWOhRbyymwmTsyEOr0+YE2tGT60JjhRsxyQxJdjWnICybFz46s8CUELdWlJm051cmW5IYaUxK/iJKEVYSuNqHE1ZSeGFuJ0BGiqUqqUofmQEvWRlnQEmJMa6Q5LREWVHjLqPAxI9B4Pq3tnUzPXuN//q//F/e+/prRT84yc/Esh4/uJjoxnEW+i4kJdUapVKNtqIP8lkry26so6ayjuKOW4oYiVO4+/pJLN29xfvYKZy5Ms3l8Ey1NdXR3ddLe1kp9dQXlhXnkCBRKfKTkxPTYUFxMtXAXIDNxb465EFcX58+ahFkribEwIcvJEV+FAclmgk1gTKxCJk0w+VZKcix1KbKWkyJueNJUJVxXnSi5Hiv159OSu4aS2KUkuBsRt1pBacwqAqzVSPexpDLRiRpRtcNNSfY0IWi5MYVxq6nKDSRyjTlN4YuI1tcg11xOhK6GBCprDxUOlFHuKidvqR61XqZUeZuSs8wIN1NtMjMy+OSLF/zyT//Eg9evqb28nbV1OXQ1FFFZlY3FClPCfB1QKjWp624lr6mc/NZK8juqqexqICs/BZUHQivh4accOXmazVsmOLh/F7t3bWV0wyA9nW001FRSVlRATko86fERklBwcnQ4a4zFQ5hCunqOCDcnXa1HgNKABEtzki0tSRDS1UYGJFkYk6SUkWVlRoGVCTkW+gQt+IBgTSFbvUDa6RZqyyv1PyA/yISaRCvyAq1I87KgNtGF6vg1ZHiYEWy9kPDFeoQu1SLQUQM/B0NcLNWpyvTHd5ERyeLATH0eLh9+QLlwapARDQEK6vzkVAua0Uo5uUsMyXTUp9jVgihXJ3z8/fnn//E/+f1f/8rHb7+h6tgGeury6G8qZm1DAevXNeOy1BRzcz2qOurJqi0it6GUguYK6rtbyMxOROXmvY85cvwUFy4IQYsLnDpxkj17JhnfPMqguCuiVmzOFpAn9hTjo0iOCiU+Mpg15oa4mf6DZLUQVTfTxdNIg3gTYxKE5repKYlmZqzRVCNeZki8gT4pRjokiFNBsUGrqyE5MFVpSJSODksM5pOw0ohsP2MqohwJX6RFxGIdEgQmfYme9PxhuocZqb7GFEWaUxhtT3XKGlaYL8TbxgB3tY8I0lKnJciChkBx94MALyuoEurLywzJXSxurdMjWqlPiLEGzpYy9h85zsSu3eSVlRGbl4N3mDvdNVn0txQx1F7OUHsZm4bXsmrVEpzdnXH2XImz10pWeK1mjZipHcxRuXXvLvcf3uPmzetcmD7HpYsXqGuoYOXKRWSmJfynE1MT5gTUI0NICA/G1VKGmxSBev/pSFNtXA00iJAZEW5oSLiBjqT9HWagR4C2Ni4L55FsZICf2gI81efhq6lGsLaGtHUWqaHOUt2PKI6wJd7ZkGR3OdWxK8jztZT0v2MX6ZDlYU5+pB2F0Y7khJuTHWpGfowja6z0WGY0Hx+tBVS6mUmPw9V7GVHnpUuVi4xKF0Pyl+uTv1ifJCtt0myMiLSWs8TOjD1HTjG0aYKotCQC40IpyU0kKcyNABdHRtdWM9heyez0SdIzE1nuupwVa5bj7LmCFZ7OuHquwNHBApXrd+/xyeNPuX3rFrOXZnBeuVy6te7A3m1UVeTSUFtJRUkheSnxpMWGkxwZSnxoIO4OZqw21cZdRKO4+VM40kSb1foLJcZglIEOkfo6RAvmoIYmLoKCqa2Os8Z8lqvNx071Q5arf4SH2jxpoyJGU40lOh9SGmVPfpg1xZH2lIY5ErFUm7poZ6KcNElZI6Mw0pGCSEeyQizIjrAncpWcFXI1lsjmk2xtRK2PQnrgstxdn6rVupSs0qXY2RA/Uw3cZap4majjoZyPk9YC3F1X0L5ugLqONmKS4vCPDJTUQztrskmN9iErMYiBjkru3Jhl6XJ7VrmuYI2rMytclrHcZTnOq5ey2MkGlXPTs5Jw+qNHj4iKimT98Hr8/T3Zv3srvd1NtDXXSZsQ+amJkhNFFCaEBOC3zJaVxtq4mwjnzQmnexjrsMpQjUBtdXw1FxIo0KEa8yTcqK+2hiScHqihRpimGiEaC6XZNkhzIZ4a81m5UFWKxPAlesSuMCDV14o9ixdxbZkreb42pKySEeGgRW64AxlB1mQEWxDkpM8KhQYr5WrYa38g3aRU6WZA2Rpd8pfrkLtYk1RbLYJM1bDV/oBFuvOx01bFQWchllrz8PL1kCBtA8PrCYkJY7WnM+P9dQx3lkui6akxvuyaWMfDO1dYvNSWlauX4eq+gtqaQlxcluC8woFFjpao7N5/kHsPHrFpYpz7d+8wLUn572fvtgk2builtamKysJ8CtJS3jsxkJhAP0Jdl7DCVJs1CuFIHUmF3sVEmxWG6rhqzsNDWwMvDTW8tDRwXziPlfM/xEP1AzxVPyRg/kcEqM7Dd948vOZ9gPeCD/Gd9wGO6iqk+1qS4WdGio8ZB6OjmUlIw99sgcTdivc0IcnLhAR3Bf4OmlhrqWCnrSLJZJtrqlC4TIfsRWpkOqoRbzWfRDtNIs3U8TFWx0xDBVudedjrzMdKex7mWvPIzclkcscuGttaiYiNxM9/NV11eYx0Cg3xWkb7mzh3fBeHdk/g7LyIRYtt2L19lL27NzG+oZfkxFCsLAxQOXbqLA8/fszDR48k8bKpU8c4fvgARw/tZXzjIO1NVVQUZlOYniaxEOLDgogO8CPMeyXOxto4G2vhKhxoqo2LUgdnpYYUVR7qatITAm4L59EYG8T6skyGyjLZUJPPRGMpvXnJbKrOYmNVvqQ8P1qRR39NJhtbi9jUVcpoSzEn9m9hx+ZhxtY1MdpexvrmAjZ1FjLRVcJ4dxkTfZVMdJexra+CqtRItonPN+eyuSmb9TXJJDgbE2SsxmqZKpaaKpLyvKX2PBbJtTDV/ACXZYsI8HZn1TJHnOzMSYn2o6MqnYm+OjZ0VbN7vI/bl8+SkhCKk7USE5kOU8d2SzKsQsL1wM4xxoa7UPn4yafcfvAxz7/6ioKCPKanz0rKRqePHZLEwNd11lNZICaWBAlvEh8WSISvF+G+LiyXa7D8vfK8s0ITZ4Uay+TqLF+oyipVVVYtXECEmZLB8iz6KrPpq8wi1X0J7kIiy1STvpJkBquyGazMZqAim+7KLAYb8hluLmJzXz2bBjvJSInhxux5STZ6qDmf9c35DLcUMtiUx0BjLv0NOcR5Okn3TYYuk7G+NoOBymQGKjLYUJ/Nau2PWKzzESYav0G5UAWlxjyU6vNQqH2EUu1DlBrCPsBw/gc0FiXR21DIUEupJKJZnB0r6efGhfqQFhtMdlLYnFj63klOHtwiiXUKKVaVd9/9lv2HxJK+R1pGMmfPnGTvnh0c2reN7ROjbOhpoa40T+oTE6PDiAr0IcLXhQjvlTjJtFip0GSVQoeVMm1WyBey0kCbJQsXsFT1NzipqDDRWcNoWymjbRVsaCtnU1c1jQVJjLdXSZL9mzoqJBOvRzvK2bqujm2DtezY2MP28SFG13Vy+tAeJtdVv5fur2ZzTyXjPZWSfP9GId/fU8rGtmL667PZ1FPKaEMeY02FrG/IIn61I3YaH2Gs9gHGGr9BrjUPpdaHyMVrYZq/Qan+Afpqv6G+MJlNvfUMtBazdbSTHWN9PLp5ifU9DUyOrpU0Gvdu28CFU/s4c2wPU6f2cObkAVTevPstbWs7uHX7NidOHKW0tIDDB/ayc+s4B/dsY7i7mbbqYtJjQkgI9SHCz4sQn1WEea2QloWzXEj2C1uIs0wNZ5kOjhqq2M//gN7SbLZ21zEhBMmFnnZPDQNNRWxb18Tm7iom+xuYFKJx6+rZ0lfPZE8tW4ca2bmhhRP7t3P84F52bd7E1PEjbNvQzrYNLezc0MzkQC1bB2qZHKxlcqCOrYO1bOoqo6kokZ1DTWxoLWZTVwXDLUUc3NCGYp6IwDlnKTTno9D4EDOteVjrzMdSZwGOom90d6Y6J5b1reVSYVnlaMXls4fYv31UKi5bRto5tn+S9NRIXFY70Lu2lgvnjnH+1BFUnr16TWtXJ3fvPuDJp59g72DJ0YP7mBwf4cDubWzobaVdODEqWALbhvt4EOS1An+PpSwxN2KRXJ0VsoVzjpSps8JICyfN+QQ7WrN7fB07h1sk9sGukTZ2DrdRl5csaWhvG2hgx+Ac+2DHUIvEQRBO7WrMw9Fcm7GRAe7cvcPDxx/z7bt32FsYSmLEezZ2sHu0VeIf7BoV/IMmdo+2MLGuip66HHYPt0hvxqauEjb1iDeqnsxo/zlYhJqARixAqf4brAzVsDRQxVx3AWY6alTnxNNWnkJPTS77t/TibK/k+oUTxIZ4Sk4cX9/GqSPb5rR3j+6ltamE4AAPSQ5b5YsvX7J7/2Fmb1zl9p1bBAT50NnayNZNI0xuXs/mgS66G0opSosiPMiDcB83/N2W4+e6mJXWShzFI2lSFApHqrJMqM7PU+HEnjH2j/ezZ6yHXWM97N60ji2DbRLnYPeGTvaOtrNnpPO9dUiOFrCJLetbGe6p4tzZQ6zft4XOiQ38/Mff0tNazMRQM3s2trF3rIO9Y63sHWtn36Z29o61sW2ogf2buxjvq2b3aDvbB+uZHKxnz8ZWjm8bQusDFRRqgsQxH/lCFexkmtgaqmNvpIGV/kc0FiYx0FRAe3k61QUJtFflcufyCWxNdSnJS6SsQEj2n+To3jmkyaWzR0hKCCE81HMOIHHr3iPEzZ6XL19mfGKUNa5LJRLHxvXr2LtllI7qfEqFE31WEeTpjL/rcgLWLGKpuYH0Ryw2FAQONVYYaWCvt4DN65o5NDk0B5DYOszxyQGObBukrTyHwxODEjRC0DH2b1rHgc197Bvrlmz35h4Obe3j4PZ1nEvN5lJQEleCknngEsX+bX0c2NIlQSMOTnRzUAJJ9EjwiAMCIrFprfS1lvIMDk2IjzvYNdrBrrF2Dkz0Mdxeh5Hab1Dqa9FdW8Damjl4xNqafMqzoimI96O7JpvehnyqcuM4vGs9t2aPEuKzAi+XxdSWZ3Nz9qSk5iyU5gXzwNHRhKHeFlQ+//I1X3z1NeXV1VyavcDDB7ewtlKyaX0PIwNtjA12UpIWSX5SCHGBnoS4ORPguhy/VYtY42iOk6GmBI5YZqTBMrkWEe5OHN4xwuFtwolDHN02zJFtGzg4uZ5DW4c5sn1EgkUc3b6BY9uHOLZtkKNbBziytZ8jkwPs2dTH7s29TOXlcqumnvv9w3yaXck+4cBtfRzbNcTx3cMc2znAsZ3DHNk1wPGd6zm2rYcjO9ezbbiNqf1jHN+1gWM7BzmydYDDk32c2rsJU1111iy2ZETAetbWM9Ev8ClrGemopCw1hIaCeHYMtzLcUcbl6QOcPzqOhZWCDz9SYevYANMn9jN1fBdTpw5w4ewhxjf2MXP+KCqfPXvF4y+ek19cxPlz5yX6RmiIP8mxQQysbaahKJ2yjGhyYwPISw6RgDO+a5zwW+nIGidzCRrhaKSKk5E65toqXJsSsIetkp3eP8npvZs4vnec+rIsju/YyJHtoxzbIbgDoxzZMedQQd4QBI6pfePMV1HBSFOFrKWOHLZeySnLlRyJTMBQW4WECDdO7xllat8wU3tHOL53hNOCwLF3I8d2jXBizyjTRybY2N0gvT6xZ6NE3xCvBY3j2J7NuK90YqSzSqJvjAkN8+psxrqraS6IpzY7kr3jayW4zpXz+ySsiqBvqHygwvlTB+bAEaf2MT0lWA5z5I3Z6ROoPPzsFbcffUZjawu7d+3k+LED7N29g6WOpnS1VlKTn0xtXgLpMX6UpkYQuGYRfmuccHe2x32pNQ4GGjgaqmKjM49juzZx/vguzh3bzblje/7z9dFdnDwggAu7OHt0J9OHtnDm4CTn9k8wtWczp/ds4sROgTcZmSNpiDfg0Da6O2upLclmx1j/HHnjwGamdm+UqBqCsHHu4CbOHNzElPj8vg3S50QUdtUVcm7fGGf2CxqHQJts5Pi+jRw/sJGe5lJpd0ZsLmzsqpFgOmVpoTTmxdJWmsjEUAMHt/dz9fx+JgbrJAfaO9kwc2ZOEfXMyf1cvnCamfPHmb1wktnpKVRuP3zKlTv3GBufoKAgm717xtm5bQxHewXNtUXUFKRQkxtPapQ3+fFBRPuuxmeFA+7L7XBbboO1gSqLjNRIj/Ll0ql9XBRKxKeF7eHiyb1cOLGHvtYqpk8KFfldknr82cM7mTqyVXLY2QPjnBON6+E5hMnFozskfMmlE3uZPrSHM/u3c+nUYcmJZw+Pc+7wPyBMDm7l3KFxzoo3Zf+o5ECBMDk0OcD0wXGJGTO1b0TiwxzdM8xxEa37NzPUWspEdx1bB5rZNdRCctBKajLDGe+tZm1NHlfPH2L25Ha2rG9B5aPf0N5ay8XT++dU8E/t4fqls8zOnOXy7BkuXZxC5erNu5y7cInBoX5i4iIYG1nHxKYB0pJCiQv3oaogmcLUMNIjPEkN9SArNgCvFfYSusRruSPm+vMx157PvcvnuXj2GDPCpo5w6fRhya6eO87pg9slNMnlqaNcOXuEy2cOc/nMMa6cPcFl8fHZo1w+I9gFp7h+QSBOTnNj5jS3p09yZ/okNy+e5da5Q1wTAJtjO5g9NsnM0XEJUyLs/OFxiQFz9uAEpw9s4sKRrQy0VcyBd/aMSgwYAdY5unuEozuHyI4LxkxVBTN1FXYONpMZ4UlRrC+tQre8p44rU7tZvMwBlXkfoaKiwqlDWzi2bxNTR3Zy8eyROUTLxTNcvTTF9UtTqJw7d47R0WHa2tqIT4impqKQscE21rXVsczJmKbiDAoSAsmN9SMlxJWc+CC8ne1xXWqLx3I7jDUFaOYQV6eFzfFfLp0/ytX3DJj+jnquz5zg2vQxrk8LB4nrUW4L/sv0CclJt4RS8cWTeK9ajIOFrsSAsVLossrWDFtxdTDDTtyUtNyGq1MHpYgXDJg5/ss2zh/byvTRSS4cmZScOn14kp6mEqaPbGVq/yaJ/yKiUNjRHeuZPrwd5YcquDuZkRCwguKkQPJjfQj0cuHSyZ3cu3pSct5CtQWYmiq4eGo/R/aMSyOfwKIIkM51Aa6YPc1nn95G5cLMeTo7WmhpbZAeFI+PCWWou4nh3maCvJZTU5JOTrwfOfG+UjQmh7gT4OJEsOsSon1W0lRZIDFXBFzmusR3OcPNiwKQc5r7l89x4vBOrl04yc1fpZ0vHOfGhZOS3bp47v33n+L+lWkcTPWxMzXA3syQRTZyFtkoWLnMhiU2xtia6rDM0YQHAn0yfZybMyckQfIb549y7cwhZiUK0l4unBSQiUmmDm3n9L5xzgrq0ZFJ6XPnjm2TXp86sIVT+7dQmBLJuuYiChP86a7LIic+jMunt7N1tBt1zXmoa8yjra2Os1O7Obp3nBMHtjMzfZSrM+fmODMzZ/j45mVUHj64TX1DJY0NNWRnpRAR4U97fSkD4u6n0kwyEoKpyIqmMDkMf/dFhHktIyvGn8LkEIpTY3hw4+Lf4TV/h9hIIJvTDA91cPfyWW5dFICd09y4cEZaqjcv/PpH/ArQmZK+X6BLBKrkwbXzEiDi41szEkRHIFDEa4E6mQPonOb2JcGPOcvNSwKgM/e7//53XDzFnUsn6emok9LFzOn9nD8uUFKC2iE2EMaZmdrHhnXNbN+4loqsKHaPdbFjbC1XTu7AZ80iLA0XINdS4ejuUfZuEeyXzRIg4txx8WYd4uql0zx9eAc7M0NUtm1ZT8/aehqqSyjMTyciIoCk2GD6O2rpb68m0GMJpRlRxAWuxme1I8nhXhQkhVKQFD73nxCR8Q9wml9NOPfwvi3cuDQ1Z7OnuT479/r6rGC4nOHGpXN///rNy1MSsejOzGnuXpqSYDoPrgqnnpNgOYIdI653Lk3NfSxeXxbwnCkJzCNeC3jOryZ+/ubRPkl39tbsGW7NzH3u5oxAT53g1pVp7t+4yKbRHuJCPaRNh0undnB7+gCG6ipYGy0kJmA1Ny4eZa8YHPZOMDt1mPPH93DpzBEunj3Ms8e3UPtIBZWethI2DrZSW1VMVXEukWEBeLotY6CjTnJiY0UmpRmxuC22ISHEldzEMCqzYpkc7ebmlTkC0D9SiH6lAA33tnL/+rT0tTvvCURib+7X77l7ZYp7V8X1HLeEUwRt6Ffy0Ht7cGUOvPOrA/9v9g8Eojn7Fes09zc8uHmB40d2/n2V/EogujkjID+XuXlzlgP7BEwtlbVNRZw7up1je8Yw0/tIwjltGmzh6vQRDu4c5dDeSS6eOih1GSISb1w8RZCXM8YGC1EZ6q5jw7pGeprKJUdGhvsTHeTL2qYy+lsrWddWxZrFFsQGe5AVF0BFVgINJZkSpuPm9XPcvHqBm+I/8w8OEktP8FEEWunmlSluXTkz95+9OsWDK2ek5SqW5iOBMrk+zaMr0zy4JiLuNA+vnOPh1SkeXjnLQ4lEJOhEU9wThKPLp+ciULwJl89x99o57ol/d+Uc965PS7/75uVpKcKvTYs0cYb6mkrp7xD/6cvnjrJj0zBTR47w4PYNbl2Z5ZOHd5nYPMLk+g4pX6bHBaDU+UjKwccPbJIQBAd2DUubsKJPvHDqADOnD/L2+Sd88BsVaqsLUJlY305XayntDQW015eREBNJWLAn6XGh0q7Jht4mAj2XkxMXTGVuImU5Cdy7Mc3NXxFO12e4efVXJ53l9pVTjPZ3SDlNfE7iXEmIpikJ2yRBwwTG6brAOF2SPp5DPM1hnB5eE+Lr5yXnCGKkMPFzbl4+yfXZ4xIFTuCbrk0f4dq5w5Li/eTYELsrGtg2MMjhoibOpDdwaGIPZ7rH2FzZQntNLV0hsTSuCqCzqpLz+4/ycPYWN67McO3qDNPTp6WcN3N0B3am2pjpL6CuJJNPbl1k28Ze9u/cwNnjuzhzbLekqH/l3DG6mmslruGd6+dR2bS+ifa6fAY6q2itzSc7KQrv1YsJ9VnDuuYyhrpqKEgOp6Ekg46aAo4f2MatG7PcvjHLnZuXuCVyjoiGq2elzcpLZw6xaaCN2eMCB3dcirAH10X0vWdgXZ/hwdVfWVhzdu/yhfeOPit9n/i64GgJvpaUdy+eZHZqLzNTeyX6xfTxrUwdnuTY3o0MD3SwY2CIo+emOXniPKObJukeGWNi92EOHjrOxPg21m8YY6C/l57eNpoamsjILeDU7XvMzsxy+fIV7t26ziHhxFN7pJFTofMBuzf3Sytg61ivBMuZOinobnNL+dXzx+ioq+BkbcilmZOojPY30N1SKjGwhDOLsxIlDlZkgDfdTYLMVkZTubitooT+tjqpKT47dew9A+swZ04e4vzpgyQ4WxGk1CDKVo+sRcaU2Gpz4eQBpo/PcbDEH3BWMsHBev/xewaWNE4JBtb767mj+yT+lZhVTx3YwfH9kxzauYH9W0c4sG09+7YOsXNzLxPD7XS1VNPe08vuHbs4N3WW6dOzHN53jBM7DnFozwnGJvfQvWGUisISigpyySvKp6+qhumDx5k+e45jRw9z/MRhbl+/yMmDWzE1UCXU21lCkcyc2s2Ozes4sH2MEwe3cebkPmanDvH43nWM9T5g++QQD+9fR2Wkt47+zko6m4skFlZLVSHhfq5EBfqytrGMnqZShtbWMdhZwyf3r/HJ7Us8unuJB3cvS0eJj25fkSBgCRbaxJhrkmGpRZzpPOqCXXh8+6rEQRC9lDir+OTOf17/d/v0H17/4/d+evMyD2+el5b0temjXJvex5Vz+5k5KZy9nX07xzBb7Eh7cztH9uxn6tgUB/Ye4cG9T7h76wEXj59nILeCib51VObmUrLKk+GBPpJSknn37bfcvn2TuzevcPfuLSn/mRgsoLupjHvXz7JnYlBy4uFd49IKPHtin5T7Y4PckGl9yL3bgoH1pXBirbSUOxvy6W4qZuuGPgI9VpAYEUJrXSF9TeUMdTVw8eSB/8K++jv0SwDC7lzl8aMb7N62ka+ePJQgYp/eu/6ejfX/K0RslocSQGwOJCbxtW7M8OD6Je5cPsf1mVMSRGz27FFmzu3jkmiqj2yViJjGjovp61lHR1cvx4+eZPLwKaqbOxnfsoOWjj76+oboWruOwtISSnLyiYwMo62ri0effcXt21e5cfsGN2/f4JPH91BqfcTE+k5p7t881Mq2sR5pWjm+byvnju3j57dfYa6nQm1ZBjeuXuDbN18JJ9YwvLaKstwYBtdWc/7YXrxXL6IoI4O6khzWNZfT2VzKJ3fmSGz/n+zxfQER6/+vDv5/sLnGWdAnZ6RIe3TnGo/uXp+ze9f4+K4gd9zmyV0BCrvC5/cv8eT+rBSZ90VBmz3FpXNHpWZ5+vgezh3fg+3q1SQmprBz5y6Gh9eTWlDKusENDAysp7dvkL6Bfqqrq8nLLyQlLY321mZGRoalB8UfPLjLnbvXuHn7Fvfu3iQlIZzJ0Z73q69WGoH3bB/h0N5xKe1cOnMYe8MPeHz3Ci++fMKbV89Q2dBby/qeaoZ76ji2d4xjeyZJjw+lMCePsoJUuutL+PTeNYnjMucgESUCY/cPJLabF9kxsZFPP74mfV5E1N9JbDfeU9tuXuSBcIQgsd25xsd3rvPpvZs8unedj+/f+C8kts8f3ObzBzd4+vCmdP384VU+f3idJ/evzlHY7l/lyd0r3L56gctnj9PS1UpzawM9Az3UlldRVV5BQkY+I8PDbN+6jYq6Rulh+K6uLnJycoiLj8LTy4UTx0/w6N4difYhKGz3797k5YsvpGZ6qLue9oYiqR/eMT4gnTFfvniCGC9nMmL8uHHpPN988wW//913qIz21DLcVcWeLevYNNTK9rEexvrb2Liug81DXRLv6qtPbvPqycM55MjTh7z+4iFvvnzAmy8e8eaLj3n94jO2jK2XGFfffPkZb18JAtsz3n79mWT/yKt69+IJP735QqKvfSfZc7775sXfKWvff/uC79+J6yuJn/K9IKhJ9jU/vHv1dxOUtZ8lapqgrn3NTz98w88/vePHH97yw/ff8OP3byX62nffvpZei6+NbRrhzZuv+fKLpzx79hk//fQD7757yztBYXv3lnfvvuH3f/iZY8cPcGn6OJsH2tg40MqeyWEJzP3u9VOWGHzEnWtn+OKzR7x68wW3Lp2bo1SKOwx2T/RTnBZOXUEao+ua2dDfwsRoD9snBvjq8Q0JY/e1wI38ym754hGvv3zEmy8f8vr5J2zZNMC75094K+BgwoECCvb1F7z7f8DY/Qr/+vbN53z7zVPevX3Gd2+/mkMmvQfV/CPw63/H2H3/9oX0WvrcuzmU3Xc/CDzdK378Xjh77vWcveb7717zu999y+njhyWM3Xfv5uA2AmEnHCjeEIEh+e7dN/ztb79w4uQhrl6foae+kLa6Ig7u3MTBfRPcuXqeFO8lXLl0mh+/eclP374h3W8xKoMtxeyZ6KO/vV7ioXY3FEt9nsgF28bWsW3zOi6dOcj1iyekzv/O5Snuzh7l7oUjPLpynEeXj0nL7vTR3Xz99C4vPr3L809v81pgST5/xNefPZai982zj+eobF/MXV+LN+KZiOhHfPPlY8leP/+U1y8+542w50958+LZnIk35eUzvpEiXLwxX/KtZM/49tWXfP/1F3z3+kt+ePOc7988l1iE7775im/fPufd2xe8e/uSn3/8RtqFfvf2OT+8/Yof3nzJW8EjfPOMN18LJMCXvH3zkj//+Q8cOXKAs+eOkxzqxZE9m5kY6ebMqQN0lqVy9sQBPnt8j3evX/Dzj98Ru1QTlT2TvVKPWFOcTltlDv3tZYwNtDM50i0l2F1beiU65U4JZbeR6f0THNvSzuktnZye7GRqSztfPr7Ny88EcPE9QEzCkTzia/H62UMJkCDxAL98xKsvP5YIj9988fEcB/DLT3j7lVjmn/HuudDDfvKeAyjQdnMsQMEB/EE465VA1wkO4K8swOcSD1BiAv4DC1CyVy/5TmIAztl3b57z3evnPHt0jcc3z3NovI9LYnNXMAAFyu7UTt68+Ybjx05ILMAzp09xaXaGzrJ0dm4e4Itnj4h1sefSzCkpnXz7+gX7NvZQ6G2CylBvHU0VudSUJEtHiePrmqUjz23j69iyoYs9W4bYu22UXeND7J4Y4fLJPRwdb+P4eBsnJ9qZmuzkyd1ZXj178h6I83Auyp4+lJz19fPP+PrLZ7z56lNePn/G1y+e8e1Xn/P1i6e8eyGW9jO+e/l/X+7/xV5+9p79J5zzih9evpak8QU25PtvXvPD1y/59j2LZQ639D4t/G/2/ZsXPHt0g89uXOT4zgEuHZ9k5tgWZo5vZ+b0Tn784UdmZma5cuUaM7OzXJydoaOsgBNHd/H54/vcujXL3ZuXpZ/1h9/+RPoaGfluhqjU5CdRVZRMR1UuG7rrGOtvZstgq+Q8QaIUI8++HSPsnBzkwPaN3Di7n6PjHRyfaGNqvIOpLR3cOntQEgN/9dVDKV9KS/aLz6VC8/qrp7wUIMXnT+fQn1894/uvnvHuK+G8p3wriJNS1P3/A1P8XIIzvHvzQgIpCoe++/b/O0hR2I9fzznxk9sz0tHBxZNb3xMpBTF9Dz98/zNXr177O0zx9u17PHzymOr0CM6eOCid8n33nkD07uUzClwNJdyASmNpuuTAobYqJgaa2bK+XTqLPbBtjD2TIxzYsZHjeybYPble2pm5fvYwhybaObGlnZOTHZydXCshMp998ogXnz3i+ZN7PH9ylxdP7vHi6X3efPEprz+/y+vPHkhQsddP7/P1pw959ekdvv70Li8/u8uLz+aurz+9x8tn4t/N8VdFCvjm2UPJ3ogof1/MJPvqIW9fPpGW/7tXz3j75oW0xN59/RXfiCgVjn01h/V8K/CeL1/w7csv+fTeJW7PnuT8wTEunZzk0nERiZPMTu3j9dfvJObfo0ePefT4Yx5+8oSHnz7h9IHdzJw5zKWLpyWQ4ru3r9jWW01VgBmVfsaodFbnMdxRycT6FulOqJ2betm7eYDjewV5coJjeyY4dmBC6pMEjfLRtWlunz/I/cunJLs7e5x7s2f4yx9/y8f377BrciPbNg2xZaSXidE+6ovT2L6hh8biTOLclrJ5sFWS1/M218THZCGeJmp4Gi/E7z2JMtRazN9aRC/SJXqJHjFOOoRZLyTaTpsIO13ilxiSsNSQFGc5/dV5HNrSy+RoPxfPzdEoZyUa5RVmZy5x9cpViUYpUSivXZdMnM5dmznJpakj0pHFtenj3Jg+xZ0bl/ntb3/m5KkT3L59m08++YRHnz7l0WdP+fzLF+weG+LTj+9LUSjwTdVBjhJ0rNrfDJWhtdVMjnaxa3M/e7cMc1g4a+eYtO0jOvSj+yc5e0Tc2LhNGtBvXjrF04dX30NkBRjsPq+++Ix/+sufpH5s25YNTI4Ps21jP9tG+3GzM2LfaB+b+xpwlqkysa6FeDeHucd7rbQJs9Ih1FqbSKE3a6ND3BIdEpYIoKIRic4yUpcakugoPq9LwlID0lYpSF+tJHWljM0d1ZzfO8aujQPMzs5KCM+Zy1e4cvm65Lwb129w6+Zdbt26w+2b97hx6x6XZ85z7cIZfnz7hu/ffs0PbwWS6SU/fPeWly8E/PEQhw8f4uSpk5w/d44bN27w8eNHnD97co6B9fYVP717Q0uYuUREqg82R2X7xj4O7djIsT1bObFvC6cObJWOBs+fPsqlqeOcPrGXMycPcub4fmmH5fK5Izy5OzOHqHtfjZ8/+4R/+euf+eWXP7J1cpRdWzexfWyYyZFOVikXcmzrsLS15GQwn+G2GrKC1kgozxBrHYIt1QixUiPEcgGhVurE2WsTs1iD2CU6ksU56BFup0W0jTqR1mpEOWoT7aBNhIMmESusuH5iB0d3jHDrhoi4m9y8fkvCed6QnPeQu/eFfcydBw95+OAxVy5dlM52vv/2zd9RnoJEKRrvl6++5rOnT/nkkyfSzzh3/hzHjx1k29bNHDu0U8Iri+8Xv7M7cREdghAXZ4+KhGA/voczx3dy5vg+zp4SJlCcp7g8fZqZcyeZOX9COlMWjNTLZ0/w8Y0Lc9VXNN6fP+TFF3NO/Otf/8qBPdvZt3cHO7aPM9JeiZ+1LgfH+zm2fQx/OxnBiw2JWSYnYbmM2EW6hFktJNJGnQjhICs1Ep30iFusTdJiPVKWGJC61IBEJ12SF4vXhmSuUpLnZkaepxU5bmZcObWTgZosPn10l0cPHki3Td+9c5979x5y987H3L//gIcPH/Hg0Sc8+vgzCVR288qsFIG/8v6EY/70x9/z2Wdf8Olnz3jy2Rd8JnCgz77i1YtX0oQzc/EM775+LTm8qyCS9gRH+pKFI+0ED3U7pw/uZOrobk6JqDtxhNmzJ7kye5arl85xa/Ycs4KHevHsHA/17Mn/4kQRkS+/fMI//fJH/ukvv3D44GGOH9nHj9++JsVvOTFL5Ux0VknRHuSooMDHmhxPC3LdLchxNyFthViyBpLjkhfrkLnCSOKh5q5RvjdjiYWas9KQvFVGFLkoKfUwpdDLQvpZl05spzHZj8n1PXzx5NP3PNQvef7lC16+eMPLl9/w8uu3vHn9ju++/Zb7t8SGxw2+FxVWVFrhxDev+NtffuH7737kpx9/5tuffuKnH3/k3Y/f89P3P/Pt62+4c/MK375+xe9/+IGy4GWsy1jF2jhHepLsUBH7Y9evzh3s3Lx6nptXZ7l5bYbb12d4dOMyD2+JHZYbfCzYqA+u8+zRbWlLX5DUXj59T+h9/hl//v3P/PmXP/D440c8+eQzPn1wn6jlBsSvVNCQHsrR7ZsIX21FaaAjBb4CUWdBha8VZR5mlHuZUuapoMRLQbm7GcUuSgrXKMhfI6fQzZjC1UYUi3bCRUaxIFl6mVPuaUF1uDPXj+4ie40JN86e4M3LV7x68ZLv3/3Au7ffSfbdexOf+/HH30o812cf3+E7kQulEVPkxOf8+7/+K+/efcd33//8X+2H73nxxec8++wR795+zR9/+yOtYRZkudnSm7KU/lRHVO6I841rs3Mw2dszPBIborevvgfKiu0psbNyc26H5d5NPrt3k4c3pnn55M77vCia6if89ofv+Msvf+Tp55/z4MEDCd0Z4qRDgrOcVA9b9u0YozwpiFJfK2qDrKkJsKQpxHZOCNLPjFpvoQ5iQn2gJXWCShRsRbWfKRU+xuSv1pFgsvlrDClylUufq/Ixoz0rkEsnt5O+RJfH9+/w8tVr6ff++fe/53e//TO/+92fJKCssD/+8S/8+S//ysO7N3j+ZK7KzjlRNOdf8d///d/53R/+yO9+/yd+/t3v+e1Pv+Xn3/2Jn//wex7dvy2RzwWO/uuvPqc30YHB9JU0xQvO31JUbl87x8Mbl6T9vQe3Z3l49woP712XaLyf37/J0/s3efbgFp/fv8XT++J6m8c3LvDlo2vvNyQeSk21SNR/+fPvefnyBQ8fPuTtq9cEO+oQu9SISCcdThzcyfqmQsr8rWkMs5fYpB1Ri2gNtqYj1JbWICtagi0ltGdLmI10bQu3oy3UlkZ/c5oCLaj1MaPMXUmlcK63Cf1liZzdOyphj79++ZyvX37N80d3iF1iQFWgFTXBNtK1PsyOYk8zyoIdmDo4Jo2l/+hEEYn/9Nc/UeBpSVXoMtozwzi+f4K+vCD6slzYNdw2t3Hx9hUPr01JaM/+pEWUBy1irNQblbKcZEqy0iUpq+qyXEYHO9k0tJbyzFhqsmOpzYmnqSCO5sJ42gviaMmPZe/Gdp5KFXouJ75+9qm0Tf7Ln/7ED9+/k6qgYOAluTtJ5PEAS1WO7drCpu5aKgJsqAq2pjHEjuZQ6zkab/ivRF5LOqMX0REtmKMOtEfa0RpiR72/GbVeSqo8FZS6ySj3M5Wgs9luxtRGL6M+zJG3376RsMZntg2RusqKtrjFNEU50hLtSFuME80R9nSmeXBy14i0HfedqLTvl/P33zzn8/vXaIxYTLmfNamuZtKNUOsrohnMdWXvhnp+/P4bqcm+cWwr/clLJdjj+kxn0j1tUbEy0MVSYYBCX5NFThaU5MSRHLwKPzsDgpcYEb3ckNhVxiS7GpPmbkqauzk1Kd48uTUtwVglJz79lFdfPeOvf/kTv/v5tzy4/4inTx7TmB1FzBI9Ip20cHU0InipkqRlCpKWyCV8e8JSIWFgSM5KGdkrZOStVpDvZkalkCHws6DW34JqXxNqvI2p8VJQ5WlKrb85zWE2NIXb0CkQyDGLaIxaxnfffi+1KP0FCeSvklMT7EiJpxlVARaUeZtS6mlOR7ofp3YP8+ObF/9JKxeOfPeG/Ru7SFphRNJSQ0IdtMgIcqMweBF1UUvYOVjFD9/NYZB3D9ZKPMP6EFsawmypDrNHxVJPBxulHqYmChxtzAjxXomXox5hzkrClukTs0JGzHIj4lcpSVglJ2mNkphVSp7cneZrCdMp4LGPpeT7b3/9C3/85c88uHuXJw9us31dIyX+tpT62RLrYkFL7GJqQ+yo9LOkxMeYIk8lhW6GFLkZUbjGQFqqjUGWNAkSb4wD/UlLGEpeylD8IgbiHCSccV+cvYQzHkpewkjmCtanL2OgKIy3b77l7dvvaY5YLDm5PmoxLREOtEQ6SJNFQ6glI9XJHJ7o5rfffCPh2yUHvvman3/6jom2Yjril7M21pGe+CUMpa5gneA/py9n/2A1P7/7hnfffM3erhwGU5dKOOP+1MX0Jtqj4rbUHjtrM8zl6rjZGOJnrydFYMQSA4l9Gr9CQfQyUWUFQNZIcmSIrTaf37vwnnUqJpePef7l5/xN9Ip/+Wfu3r7F/Ts3OH1kGzXB1tQF2hLnYkxHzBJao+ypD7emUeQrX1MqPRWSlbvLpGu9vwn1/kqag01pD7NgbbiQpjKnL8qGgVgHBuMd2JTpzFimM+N5LmzKW8WWllzevnwttSdtIeYSJ7o8wJHBlFX0J6+gO24xvfHLODRcL91R+/M3b/6zOr99xS9//QtdqatZJ5yTvITuRFsGkhbRLQi8cfbs7M7nJ7FT/s1r9q7NZCh9uYQ07k+0Z33KIlQsjQ0wMTHCy1YXbwttAm20CXMUPGhD4lcIx5mQsFpwoY1IczMmZY2SCCcdPrs1xSuJvvuIV08f8vLZ3HL+69/+hbu3rnPvxlWpQFX7WVIfYkOOrw1r45bSFb+U9igHqcfqCLGQeNCdYZa0BZnSGWzO2lAr6fOtwWY0BZlITOg6LyOa/RS0BZrQFW7JcMoSRtOdmch3ZWuRO0c2tPH18ze8ffUNG5KcGEpdRraHDeMF7ozluzKWu4ZNeS6c2d7FuUOb+OnN6/+yey4Ikx2xTvQmOLE+w5meRAfWRtnSG+fAOoFaLgvm53ff8/3r1+zqzGQky5n16UsYTHZkUIC1ba1NWWSqKQli+FnpEGyvS8QiHaKXGkpLN3mVnDQXJSmrFRIPOmOlglRnA26d3cXzT29Ju9cSofzZF/zpD7/nb//8L1y9cpnrN2/y/NkzCt3l1ARaUxftxNpYJ9YlObMu3pF1CQJcaCPZekHljbRlKN6WkWRHhpLsWJ9oy/p4ewZjHVgbbCYxUZt8ZDT6ymkLNqMzylr6OUOpTpzaN8mr5694PHuKLfnuTOa70xy+bA5FXOzK3hp/CS576cAGLh3fxY+vxbQiWpuXUsP9v/7X/0VnrK20RIUTexOdaI80oytKSE3bsCHXix/eveGH16/ZvTaH4cxlbMhZzrokOwaS7FGxUOjgaqklAbV9LDQIsdcnYpE+8SvkUgSmrTGWnJjhZkKaq4KMNQoy1yjYt6GVrx5dk4i7YjNWOPEPP3/H3/75nzhx/Di3bt7i5RdfkLHKiJQ1xhJQuy3CQUKo9yctZkPSUtZF2zAYZSNBtYdj7RlNWcTmjGVMpC9jPHMJm8U1bam0hAVUuz/Wgp4wMwZjbFgbYU1HmCXt4eZcnz7D189fcWigitG05WzOWcNA8ir214VKUG1he2sCuHhgEzenD8zten/ztTTyCftv//5vjGQtk4DagmIulmuvkKuOspHUTQQI/IfXgo36iiPDjQznOEtOHMlZznDaIlQcjFRxEU+lmy3Az1qTIFttIhfrzxWTZQYkr5STuEJG8ioZ8c56pK+SkeFqwrqKOJ7dneXlZ6JXnItEceDzx7/8jb0TG7l+fZbPnzwmw92CUAcdyjyNqfBW0BBkSWe4Nb2x9pIT+2PmIm5DvL2EL57IdGYiy5kt2SvYmreSbdmr2JTsxFiyIxsTHdiU5MTO3NVsyV/FRN5qhrOW8dn927x5/ob+dDdaQ8zpCLekK8aW3nQXdlb6cbQ1kiPtkUzvH5OOBsT49uu4JzjQf/7tj+yo9GFXbRA7ynyZLPFkOEMsVwcGEhfRHWXDmy8/lpw4u2+EkdwVjGQvY7RgOUNiYllispA1JvNwM1XF10rI4GvNOXGZPtHLDYiT8qKMxFVyiUoueNFpQvQ7bAWf3Bbj39wM/eLpZ9Jm6B9/+Sd2jK7jwa3bPLh9i5YMf0IXy6kLtqRSgGV8lVR5G1HtLaPBR0ZHoEBnmkoOHc9cLlHAJ0WxyFvB9gIXdhS4MJZkx1jSIjaniAi2Z1fxanaWe7O91J0d5d68+EqcFH7HSIYgkjszlCwQ8jaUBzsxmL6IwYylDGWv4vKRCZ5/fOv9rvgrvns9d6zw6pMbHG2P4nBLBPsagtnbEMyeWj+2FKxmImcVGzMW88nNc1IEP5g5ynD2EoZzVkjI0rH85aisNFHH1VwVD3OBddchwFoUFh3CnLQkInm01OYYErNUl1gnbRJX6EuOjFtuxGe3L7w/lBK7OZ/x9Vef8edf/km6ffjBjRvSbsl4ewl5AZa0xyyiM86RrhgHumPsaAo2o87LgCo3bSpdtKj30mdtuDlDibZsylzG1twVbC1aza5CNybTFzORtpRNyY5syVjO9iJXdpV7srPCk+2Vfrx+8Zpv33zPlsxl7K7wZl+VH7vL3amLXibRwreVeTBWtJrZI5t5/UxE1Pvl/FrkxDfcPjXOya54jnZGcKIriqNtgvkcze5SL3aInFrmycyhIb5/+ZJnD66wrdKDrZUeTAhcaakrKv52c2JpYQ4GBNvrEOaoS5iTtoR1j10uIlKXxJVGRDtpEb9Ydw7p7mxApL0OT26dlxpucar39eef8+LZZ/z1r3/j2dPHTB/ezbVLM5zcv5PqIEuaoxzoS17CuuRFbBD9XaIDI7H29Efb0B6opNVXJvFTmvzkNPuL4qGkL86aiazlbExZynj6MrZlrWCLuBaskpwlInFbbQjffP2Wl0+fsK14NfuqfTjS5Mehei/6E1dyYSSJE73hnBrJ5MKhEek8R3KiONx6/ZKffvyBiZpExovd2FHlxfGOSMmJxzsjONoUxEHx82q8OdKXK7U4YsdqX3sQe5oCOdQWwoGWIFTClhgRtVxB3AolCSuVpLmZkbhKRoqrCQkrjEhZLSPB2YBooU8jtGmc9UlYrkfyKiPuXzzMi8/uSP2i1Ct+/qm0p/i3P//C2ppcLl24wOWZaSr8TKgMMKczxo7ueBsGkhbTE2XFSJwto8KpCU6MJS5iMt+Z0bSldIaa0+Anp85XRoWHLvWeerQFKlkfYys5cUfRavZU+bKz1IMtTQl8/eIrHop7q6vdOFbvy7HWAA7Xe7On2otz61M4MxDL2c1lXDg4zI+v504Mv3/vxF/+8hcG0laxPmMZvUn2kvUl20uFY3+tPwcqfdhT6cvu2mDevnnOt29ecqw3jBPrIjk9EMPRnghU4pbqkeqiJM3FlDxvS4p9LSQrC7CmNNiWsmBbskVVXmVI+gp9UkRkrtAl013O+f0b+Orj25ITX3z+iJeffc5f//JH/u1f/oM4VytmLl2QNkTz3A2lTYPGSFtawy3oibKV+sLeEAsGI63ojzBnJM6OnYWuTOSsYIsoHHlr2FroxkjaUloCjal206baTeCQtKnz1qU/yY7NBS7s7M7j+ZdfcWG8iqMtfpKdbA/mRFsApzv92N8azYX1iZzbUsPFfcP89M0rKSd+//UL3rx8wb/9x39jX603pzsjONkVya5qT8YKRK9oS3+yAx2RprSGmtIZbsvrly94++YNJ7qCuTA6RygXV5WUVXJyPS0p9LGiOnQJteFO1IYvojLEhtpwO+rCbanyt3h/smVBua85RZ7GlPlZMtlVzOf3Znn15PHc5uznT/nDH37Hv/3H/0GQ1XxuX7vM40cPSVuuQYm3gupAU2kiaQoxlYpKm79S4qOsDRaQazOpOo+mLWYkxYkNGYvZUuDG1jwXtuaulCr2xrRF9Mda0+ClS3OgkhpfI9bXZvLs6TPOb07lTF8o5zoCmerwZ6o9iKmOIHozvLg4msTFnW1cODzKz2/eSMv5+6+f882rr/k//sf/wYFKN441B3B+MJGz6+I435/M6Z5IiZi+o9yV5mAZZWvUmT5xlFdfPudEWyTXt2RybiSBC2PJqKS7mJDnbUF5kCPVkU40hDvRFreElujFNCcsoT7cgbpgKxpCbKgLsqA+WBQJR1pjF7GhKo5Pb1+QjjpfiLz42VN+/ukH/ulv/yKNiuLJo5vXr5KxWpcaX2MagoX4mQmtYeZS0zw3hRjT6iejM0DJ+gR7BgSaPdaWnig7msMspC2nQTHPRliyNdOZyfTlUpE5VOPPliIXRgs9ONSZItFzL48mcK4rhDNrAznfHcypzmBa4lYzO57CzK4eZo5t5qfXr9878QWvX73gP/7t3zjc6M3hRj9OdUVwqjuC452hnOwK52h7CKe7Itnf4MuJlgCOtAZzuMGbqbUhXBlL49LmNC6MJopINCJtjZJisXyDbCnys6IsyI76MHs6E5bTFrWItlixPeVI+3vrTXFmbfJyujLdeHT9PF89ecBzMUd/9invXr/mlz//E6XhznTXFXJgxzZqQiwYSF7MYMpiBhLt6Y2ypj1YqAwb0x4kp1EUFT8Z3RFmtAUb0x4sYIVi10aflhAzSfa52U9GX5g562OsGUty4lRLOKc7BYs+hksbEpkeiWN2QwLn1gZzut2fs50hEgZ+tMCVC2PpTO/r5frUtrk7KIQTX7+QEO4/vHzG8VZ/jjaIVBDCsbXhnOwOZ6ovnjO9kZwfTuDihgTOr4vi3LoYLvRHcqYrlNNdIVwaS2N6g3DiSiNSVumT5qok001J6mpDMlzlZIrdFU8lNYGW1Ida0xphLzmwO2Epw1mu9Ketpj9tpfT8ybNPxE1Mj3jx5DGvv3rOn37/C/u6SygJdGS8zJNNecuZLHFjc+FKxnNXsCF5EetiLOkMNZPQ6s2iInsbsjbcjLXiKDLEjJYgYzojrVgbYSkt+zY/BV1BSnpDTeiPtGBn0Rr2VrpzqCmQc33RnOmLZGYgmrPN/pxo9uV0awCnWgI43uTP8aEULu3r4db0YcmBv0biN1+/4un1UxxvD+JUeyiHGny5sCGRSxuTmV4fz7nheGY3pXFpMoOL6+M52x/DmZ4QprrCONUZwsWRRK5sTkclY7XIiSbkeCjJ8zQh18uUfB9zCv1MKXCTkbNaj2J3GcUeQrhRSUOUHZ3Jy+hLc2YgaxW3Lh7h2eO7fPX4Pi8+fcyLZ1/w+z/9ldmD41SGLGZbhSeTpa7sqw9kd50Xuyvc2ZKzgs2ZTmxMsmMo3or+aHP6wowZirWkX4iMx5gxEGPBYKK1pJndESqjO8iU7mBjekJM6ApRMpJsy3CKHRvTFjNesJzJopUcqvLmQPkajtZ7c6rFn5MtgZxuD2a4JIiLO9fx8Y2zfPfiOd+/FCPcc75/+y3X9vdwfl00U2vDONMVzvn1ccxsSGB2QxKXNqUyuzmdG5P5XN6UxVRPBAcbIjm9NpRTHSEc7wqdc2KBjzmlPpbkeZmR721OvqcplQFiD9CMYm9jir1NKBXagx5y6VoVbEF1gClVQeZUBRhz9fh2nj66w/NPH/PFZw95/uRT/vLLP/HFg7sUBlqyrzGQA83+nO6K5mhHMCfbgtlb6cKB0jnbXeDMjtylbMtezM5iZyZyljCW5cBwkjUjyTYMJFjSG66UHPirE7tDjFmfaMNQooP09VExlSRYM5RozWCUJYPxlmxIsWdb4QoO13rSle0t7eB8ee8G755/JTXNYln/4be/ZWY0j4vDccwMxTK7Po7p9bHSEr00kSHR0y9PZHJrh8C0F3FuIIbpgRjO9EVwtjeSqc5QrmxKQ6U6zIaKUFtK/M0o9jOlLMCcykALKv3NKfc3ozLAhBpfM8nSVhpSH2pJTYAZ1cEWVPibcXBDPU/v35Duxfn8yX2efvKYP//ln/npm5eMlnpwal2sVOnO9sVxujdcerdPtwdxpsmfM00+nKjz4mSdNydrvTja4M2BajfJdhatZFv+MibzFjMSb8n6WHMGo03pjzRlXaQpG4UTk2zoj7dgo9iWSrBjMN6O9TFiQ8OaddGW9EZZSNcsFxknJtp59ek9vv3qS75/+SXfvnjJ3/7yVy6MpnB1LFVCxF/blMy1zSnc2JbJlS2ZXJ3M5drWXG5uL+XKZBazo8lcXJ/AzHAiM4PxTA/GcXE4EZW1SSvoSFjC2qRlNETa0hztQFWY5dxJm5hzBdvOX8y8xjRG2tMUYUtDsDmN4ZbUhlmyqTpeOiH8/OOHPH38iM8fP+RPf/krnz+6y+x4KjObsqTcIX7Z+cFYzvZHcrTWnRO17pyq9+JotSsn6z051e7Huc4gTrX5cWZtMCdbvDgh8luLD3uLlrEtx5EtmXasTzCnL1LBxiQrRtOFI63ZnL2EgXgLaYkPxNkyEGnJujATeiMEr8qCEh8ZB0Ya+OaLJ7x+/pRvvvqcN199xX/8y78zuzGSq5uSuLY5kUsbori6MZ7L4+nc3F7I9clCbu2t4Nr2Aq5M5HF1Uxrn+mM50xvGue4wzooC1B2OykiBK6NF7ozke7KhwJN1mavoTlxCe5QdrRE21ASYUBtgSrW/Mc0RlrREWNIcYUVTuCVNYRZ0JK3k/uXzPH1wjy8e3ufpw3v88fd/YM9oG3f3FnBpPI1ZqRVI4uJQHOcGojhW68Wpeh9ON/lwvNaDUw1enOkM5Fx3CGc6ApnuDWOqzY+z3cHS5041eHCsxpUTdW4cqljJ3qIVHKh0ZWfhUsmR41mLGE2zZyTFlmERneGiaBnTGSIqvaBhyNm+roq3X30lnQW9ev45r7/6kn/585+5OZnC3Z3Z3JhI4spYHFfHRGGJ5+bOIm7sKub2zjIubc3n2pYCrk5mMT0Uy5m+KC4MRM05sicclbESbyar/Nlc5s3WmkC2VgYwlrOGkawVjIqtprSlUnvSm+RId6I9LVHmtMda0RppRVukNTVB1pJmwmf37kj26YNb/PTDbxmojuL27nIpMV/Zks2FDQnMbEzgsvgjWgI50+TH6RZfphq8ONvsw3R3KOd7wznbE8LsQBRnOgOYXhfJ7LpIplp9mGr05FyrL1NN3pxp9mO6O4jp/ihOdwZxuiOYXeWr2ZBhz5CgpYUZ0ytyp+RIpeTQ7op0vvlKbJI84+vnn/P2+Uv+9ru3PDhYzMd787m5JYVrmxO4MhbP1c0p3NtVws29IhcWcn1HEVcmcqUlPTOaxIWheM4PxHGhP4ZzPWGojIkhviZQcuRkdQCT5b5sKljNeKEbW4pWM1Gwgi3FLuxu9Gd/UyA7a7zZVuUhHRf2JNlTH2zMtRMH+OTeXR7fucPHt+/w9t07dq1N4sauEi6PZ3J9WwEzG5O5NJbKpfWJTHeEcrbVn/NiNGv05WxrAOfXRXCxP5pzvaHMDkZzvjeEi4NRXBwK52y7P1Nt3pxv8+Ncq7j6cqbDn4uDEUz1hTIzEs+0aG/6IjjfF8r+Chc2pdowEG1GT4QJayOV1Cf78Y24Y/fZM1598SXvXnzBb19+zNOpWu7tzePG9nRub0/j+kQSNyczubO7lPt7y7m5XURjqeTEm9vzubU9n5mRJC4MxDG7Pp7z/ZGoTFYGMFnpx0R9EDsbQ9hc7MHmAje2iG2eElcmS+de720WVTaA/c0BHGgOYV+jP4dbQzjUHCj1avvbYjk5kMjp/mSO9adzfDifKzuLuDKex9nhJGYlJyZLy2BaTBXtAVIOPN3qy5l2X2aH4rg4GMPZgXAuro/jXH8YF4eimVkfwbl2f861+DDd7seZZi/OtflyvluMaZHSqHdxYxwXhsW/jWB6MJJTrXP59fzaIC52RXC40Yv6uKV8ce+KtH33+e0ZvnxwjTvH2/l0qp7bO7O4v6eA2zvTubktneuTadzaWcSjAzXc2FbE9a2F3NhWwNWdeZIjL26Yy/EiIqcHYlHZ2hDMRG0AO5oi2N4QxPZqP8aKvBjNm3Pi1nIXdtf6cbAlhAOtIRzpjOTI2lCOrw2Tqu6BRj9OdoVwrj+GiyLMB+PZ3xHO9Z0VXNlayMzWLK5N5jO7KZVL46lM9YYz2xvOue5gLvSEzeXCnhAujwgnxnJxIJKZEVGAwjk/FMnMYATn1gZwptOXCx0ien051+7Lma4AqQE+NxQpTSqXNiZySkTv+jimeoK52BvOjLD10UwPhHN+JJmHUy08OtnM45ONPJnq5NGRWh4dreHGzhwe7Svg7s5cbm/P5ebWHG5vLebunjJubi+SHHhnV6mUF+ecms/FjclcGEqQqrXKjuZwdrVHsrctmh1N4exsDGdPSzB7GkRz7MPuOl+O9ERyrDeKw2tDOdYbyeFOMR5FcLInjGMdQZzuFREQy/T6GM4PxTNQ6MHlbUVMT+RxbUs+lydyuDSezpWJLM71iWUbxfS6CC71R3GhN4yLfWFc2pDEzHrRMsQyu0HknEhmNsQyOxzDhZ4gzncHcUFEnXBUTwgXesXYlczsWCKXRVuyNYNLmxK5MBLP1dEk6U25JCaOjYnSTH13Vz5Tk6V8erqdj0818MV0Dx8fr+PJqUY+PlbHk0M1PD5Qycf7K3iwu5y7u8u4Ky3pau7tr+TOgSpu7S7h3p5y7u+tYXZjCldGU6UZWqWnJILe/GD6ikLpzA6iKcWb9kx3ujK96cn2oy/Xk3U5/oxVBLG+yIuBfC/WF3gxlOfBukxn+rNW0Ze5ms1lvmws82GiIpDcwGVsqg5npMyPnU2R7BODe3cYJ7oi2FPrxd4aNw7WebOv2ou91e4crPVkX70v+xr82FnnxcGWIPY2+LG3wZe9DT7sKHVjR6krO8pc2VG6hn3VHtL21cnuWE72RTPVH8P0+lTODkZxTMy1vSGc6g6RVoiopMfXBnG6L5Tx1hiu7y7n8o5ibuyp5MqOEq7vLOX6zhLOj6QzM5LG+cFkzq9P4txgKqd6Y7gwmsGZoXRODaRwpj+N470pTA1kcHY4mzO9SZzsjkHl8u5aZidLmJ7I5fLWImYmcrk4nsfFLcVc3lHOpW2lXN5expUd+VzZVsS1XUXMbMrg8sYUZjbGc2UihaubUri+NYNbe0q5u7eCTfXR3NtXzc29FdzZV87tHaVc257P3e150mbBZREtI0lcXh/HlZFYLg1FcW0yncvjaVwZT+HW1hwujyVzc2sWd7ZlMjsUyaX1EVwZieLy+ihmhyKYHYnixmQqV8Xvn0jh5vZcrm1J5sa2DG5sz5B6v+vjidyYSOXa5niuTSSwpTGce4fKuXOwgkfHanl4tJp7B6u4d7CGmzvyuLM9j5tbc7mzo4Dr4xlc25zKnV2F3NhRwI2tedzaXSEt5Vs7yrixvYRLoylcHI5H5fruCq7uFO9O2dx1Wyk3dlby4EgTdw42cH1PNfcOtXBjdwW391Zye18FN7fP/ZKbk+nc3pbJ7W253JzM4NGhOh4dbuD8eCGPDtdw92CZlJzv7ang7q5i7m3P4/rmNK6PJXF7czLXRmO4NhrH1ZFYbm8XPyeTW9uzubdT/NHp3N6Vz91dOVzfGMfl4QjpenVDNNdGo5jdEM3N7WK6yODqeAp39xRxe3sWN3fmzP2b8XhuTCRL/d/NyThubE3gWF8YH58QebCO+4eqeXC4klt7y3m4r4q7u0VOLOTm1mzub82TppgrkvNTuLEzn9vb8qSeUeREyXbkc2uykMujaah0DfSytruT9o42mgQhrb6WyppKystKKCkpksR6s3OzyMhKIz0tnrTkeJLiY4iPjSQuNoLYmHBiokKJjgwhKioQrzVLWGqmhbOpFs7SVQMXM21czbVxsdDC3UIbD0sdSUjXw1JXIgwJVJOziRrOugskMfMV6vPx0tHEV1eb1eqqrFRXZZW6Kms01HDV0mT5wgUsV1NlmfoClqsvYIXaR3joq7NaRxVntQW4CFVlLTVWLpyHr4E2wQL9aanAR08DF/X5uGuq4qmthoeWKh5aC3HRXIiLlhqrNYQmrjquJuqEOxuQ4CcjNdSY7ChzEv0NSPDXJynIiIIEK7KjzUkJlhPvr0tKiBG50SYUxpmTE21MdrSSjAgZWdEKMiPl5MebU5ZmJ11LUqwpiDGlMMGKomRbCuItKU+xpTDenKIka8rTFpEYYER6mDGRHjJs9T4k1kKDhlX61LsIQrAR9S56tAXI6Y4V5+6mdEYZ0xalpDHClMZQY8o89Sn11KPUW5cyLz1K3XQo99Sjxt+A5kgTmmPNqAuTUearRYmXOrX+hjQK6pyHHsUeujTEig16Y6r85dQHK6nxMiVymQEWBvOQmemhb2WKob0l2tamyJ1sUTXS5zdqC/mNhirqpgrUzE3QtDRDw8ISbSsbtC1tUDexYIGRMfMNlajqKVhgqGS+oYL5RkZomirRMjNFZaCvl66etbSvbaO5rYm6hhqqqiqorCyXgrG4qIACgXoW4PHMRFJTEkhOiiMxMYb4uCjiYiOJjQwjOjyEmIgQwgK9WWljiLOFNsvNtVhhpskqcy1WW4qbLXTxENQRKQhFQM6Zp5Uuq001WGWgRpDCQAoYL52FBBtpSoHkpa2Kh+YC/A208NReQJBClzVa83HXU8NdV0MSlo9SaJPpICfRUp8YMyPcVOcTbqqPn5466XaWBOhqs2bhR7ioL8BFTRVXddU5KXANNVw0VXHRWiBdXQ3UWKOcT7K3GYXxlhQmWFIQb0FqhJy0MDkZEUoSggzIijIhO9yE9EAFqQEGZIbJyYkypiDenPwECzIjFaSEGJAXZyYFYmmqLWWpdlRkOFCR6UCx+NkxZpQl2VKZ4kBFsj35sVYUxlhRleRAXqQZoa4G2OqqkOEkp9VVQZOrnPqVBjS7y+gSW61hpjSFmtAWZ0WFnwFVXobU+xnRJvCGAcbU+hjQFmZMpZecEhdDilbrUrRam4KVC6nx0peOj2p9DClxUadwlTrFqzUpc9WRrGi1DhUeMkpdjMhdpoOXuRpmeguwWGyB5QpHtC2VaBgb8ZG2Gh+pz8fA0gx9K0vUjU2Yb6RgvlyOqtKcBXJzVI3MWKhvwkI9E1T1jFHVVaJqpEBNacpCuQhEExbIjFBZPzJEX38v3T3ddHR00NTUJMGJRUBK2bG4kKLCPPLzs8nNTCMjI5G05ERS4uNIEAEZG0l8TDixUaHERYcSFRGAx1JzlpnrsNJMl5UW2qwR9BYLXYmd4WY+F3z/GIheVrq4WGiyykAVXwMNwo31CZfrEKnUIUBPlSBDTcIMtYlR6JJkakSsQp8IQy0SzPSJNdUlWqFForEuEfpqhEjZ70NCBX5bT4tQmS5+huq4qX8kBbWb5nzWqM9jjdp8XNRV8dTRItbGHA9N8bUFuOqrskq+gAR3OXUZ1pQnm1OaaE6+QDLGKilNtCQ/zoKMEDkZQTJS/WVkBBuTHiQjPdCIohgLiuIs5oIv3V7KhkVJVjQVraA2dwnV2Yukj4uTrSlLt6M81Z7SBBtK4q0pirWiOM6Gwjg7ChPtiHKTY63zAdmLlLS6yKlboU/tSn3KnbUoX65F5QotOoKVdISZUbpGh6KVuuQ761K4TItMey2SrDQpdJaR7aRD/jJdyl0V1HrJqfOUUbpKm2p3A+l+lLwVapS66VHro6R4jQ6FK3UpchaAQHVyHdUpdFPgZqaJpeFCrJaYo22mQEOmzwcaqizQ10LfxgylkwMLZcYo7BejobRATWGBqszs77bAyIT5BgoW6MqYp2vIfJkRaiKLmipQVRihIzLj+rEx+ocG6O3rpnNtB61tLTQ01lNVUyllx7LSEoqLRXbMJi8ng/SsVNLSEklNiiU5IZbk+BiSYqNIiI0kISacqPBgPJbZ4iKCz2KOeiOyoeAxiYAUpdnHWg9fG33JpMC01sXdQgcPhSb+BpoE6mlIwRdnLsNPewEJVnIiFHr4as7HV+NDYuQC+KIxR6kxUCfIUJ016h/irr0Qd+0F+EtALH3ybA3ItTUgQn8BGeZGZFvIKbE3pXyJBRXLLalwtpAIZInmemQvlRMkW0DqMks8lKrEuRlSlyOw5vY05DhKwMDKNFMqUi3IizUlI1RJmiingYZkhsjIClWQGSKfy5IhRpQlW5MTY0ZenAV1uUvnMmKGA+Xp9tTnL6Ox0JnarEXUZy2hKdeZskRbssOMyQk3JS/akqIke6K9lNjrfECBkxENq42oc9anabURrZ5ymj3lNLgb0BEgTv1MqfE0osZDTq23ghpXwVUxpsxFKVWLLHtjMuz1yF6kT+kaQyrWGFC+RpdGwbYPNKYl0oLaQPGMiyE1AQqq/AwpWqVJyWojipbLSF+uwNlYDQsjbXQVMuZpa/Kh5kIW6OmhbmyExcpFaBib8KGejN/oGzHP0AQ1EZAyc6ks/2qiTIvyrCozQt1YzgK5IQsVMlTlRixUyFEZGd/MoMiOA31SuW5tb6GhqZ7ahlqqqyspe987Fhbkkp+bQU5mKpnJcwDt1MQ4UhJiSYqLJlEEZHS4dA3zXo2rlQGufw9GPbys9fC21cFLMKGt9SVyeYC1wHkaEmBriI+VHq4mmvgZaRIm1yNIb45hFaqvRYDeQrw15xOhMCLO1IDcRXIiDVSJN9Mla5EpoXJtguVaBMs0iDMzJEamR4GDKalmuiQptIhX6JBmLiPNxJAInQUEaXyI/8LfUOJkTc0qe3JsDUix0KXa1YY4Cz3WyDQIW2NIXqIxFem2VKbbUp5qTU2GPQ3ZS6jNsKci0ZKaFAdK4qzIDBbZUUZ6kJF0zQqVUxhrQkm8GVWpNpQmWVGV6URD/nKaCldQl7OUygwH6rIWUZXqQHWaIw05y6jPWkZJvC2pQQryYq0JXKmHk/48KtcYstZHQbOPCDY9emMsaA83pjlIRlOAIbVeOlR7aFHuok21hx617gZUrTGk2UccUZtT5W5BooU2xSsNaPRX0ORvTqmbETWBxlT66lPmpU2VvyG1wXLaYi2oiZBT5mckHVhW+5qR7WGCveGHKORafKC1kI90NVHYW6Ows8PAzgotexMMF5mjbWWMjpUFqsYmqJua8pG+oZQN5xkopGAU13l6cj7SN2K+gVx6/aGujPn6ImPKUdm0ZYINm8boHxaaPH10dXVIAVnfVEeNgOyWl0oBWSRgQTlp5Genk5WWQkZKIunJCXPBGB9FYlwk8fGRxMVEEhvlh+ciUwlnJfWIFnp4W+vjba0nlWRfaz2J/u5vO0eBD7AzxMdOAIc08dJfQIiRFqFGOiRZyUkyMyJUT4NwQ22pBAsLloh1uiTZmuBvpIq/tiphuupECAKoTJ94uSZpFkYkmxiSJzKDtYxwHQ1ijfSIMNCmYsVScq3NKLI3JsdSX4K5ZZrrEWkwjzCDhbgZqZLgIqetYAklCeYURBtTFGtKcawZueFyssONyI82kTjdOWFKskLkZIcqpNe54cZkhBiRGWogBWRdlhMFsUryY2TUZNhSlmRFUZwZuZEKMkONpGGmLMmG8mRbqlIdKYm3IyfKiqxIK7yXaLJE/yPKVurRGShnIMmangRzOqKNaY9U0BCoR3OwEeviLeiLNaM7ypSGQMHINZduKapy1afU2YBKL306RPbzsyB9kRHpDtqk2eqSZKdNqqMuBavk1PqZSiW62EWP5nALGkNMqQ1QkrVCvId6WCsWoq2tzkJ9HSxXLcV05SKUzvYoVtgjX+WAwRIrTJwXoe9giZ69KbJFtpgtXYymscXfg3GBgVIq0xpKM1T1TFigY4yqnpIFesbM1zeeC8bRzZsY3rCBofXDrBOg4rXtNDY3UFs3N8yIYBSDTFFeLtlZaaSlJZEuKFbvs6PIjEnxESTFRcyV69gI/J1tcBO9oqWeNDF72/wakDr42WoTYK9LgJ0B/jZG+NuJgNTH21QLL4Um3vqqBBloEGygS7hcHx8dNUIMNYlSaBJqsFBCJ4qeMEymS4joJU2NiDOTkWlvToqZjCxLExKMDUgwNZTIWD4L5pFork+GnYJII22SzQxIUmqSbSMjz0FJnp0hVYtNaVhmTb6tEi+lKv6OWpREW1ESZ05WiBHZISLo5kpxZrAhGYEy0gNkpAUYSL1jWqCh1Fc254lsZ0lxrJLyJDG8WFCX40h7kTPtxctpKVxCY+5SShMtyAozIFdM29EmlCRYUhxvQUWKLQUxYjJX4m2vyXKZBu1RVvSliof4jOiKVdIZJW7CMaEnypKuKAsa/fWpFdnNXTA0lTQHmlLhbkjFagWN3iZUe4hbtMT3yKjzMaTO25imQCV1PkqKVgpgoBE5jgZUrjKgeJkmhcu1KVptQKWnXLpx3N9RF3OjBWjpaKBtZoJimRPGy53Qc7REx8ECXUcTtK2UqBkr0bUVwWiNqrGceQZGcxlRyopK5huYsFBXDDAiCI1ZoKNE1cBU6ik/0leismX7NjaOb2b96AYGR4bpG+ynu7eLto5WGhvrpWGmsrKC4pJi8gToNDeTjPRk0lP+MxjnsmM48XHh0kCTEhtFqMdyXC20pec9PC21pawozEfqFUVGFEGoj5+tDv52ugTa6kuoXi8jDaLk+kQr9KWeMFBfA3+ph9QgVqFHnKmcaDOZFIy+WgvwkyDSgjKmRphCjxADLSlThugvJMFEjzQLBYWLbEixMsVPUxU/LVWSTPSpXGZJhqUeqUpNUmQahGvOI0ZXXSrnHnI1iS5WEGFKcYQxOSGiBBuQFSSwvgoKo8ypzXCgq2wla0vnrKt0hYQDbsixojnfVrLqbEtqciypz7alOs2a+qw5UHV1mg21GbbUZ9nRmOMovS5NVFKVbk5LkR1txWKwMcXVdiGrZPNoCDFmbYQJDQEGVLpr0BJgxNowY5oDjGgPldMebER3mBlNPgpq3OUSvLA10IwGHxM6Qy1o8DajcqUBNW76NPkoqXY1oM5dQaufOS1+xjT6WhBnpk2wwXzCjBaQYKpDmoMRBatlFK6W4WK2EDP9+SzQVEVNKUOx2B4tKxO0LU3Qt7NE19oSxSJHaRiZJ5MxX65Ax9oSHSsbPjL4tVQb89F7WyCyoK6Mj+RmLDCxRN9hKQZOznPBuHlyCyNjG6WA7F8/RO+6Pto7xWTdSH197fvJupiS4hwKctPITk8lIyXp78EoLDkhgsS4MJIFBzUhipggb9yt9PG00JK2cnysdaW+UPSLvpYCvK1PoI0eQXa6BNjq4W9ngLelNl5yTWJMZUQZaROoK0q2DuGKuUwYbKBFgM5CwmRaRCoM8BX7hWrz8NKYT4CBGqkWxoRpqxOkLXCgBiTI9EhQ6hOn0CPcUEuCx6abi0xoSrKJDolGGiQYapMg0yJBrkeEthoB2up4KtTxt9eiJMaaikQbymItyAtTUBJjRkOmPfWZoqRaSiYCqjnPidoMa+qzrWjItqI0TkZZgoLyJFOKYuWUxCkpjlFQGqekNF58TU55gimNWba0Foje0YrqNHNaCyxpLjanKlNJVaYxHg6aeBhr0BhsTEuIgp54C6lMN/ob0eCnoN5HLj2F1hGooN3XiCZPQ+lptGZ/Bc1+RqwNNafGzZD8JepUrtCjxsWI8pV61K4R+5XGFDoupGSZNhWr9cl30qBosQEFiw2p8DCmxltBrouclOVmLFMsxNRAEz0zOaaL7ZA7WmPoYC1t38yXm6AqmzM1ExM0TM1QVZiiYWyBvpU98/QVzJcZo2vriGL5akxc3JEtX4XZGg9MXdwxXu2G/hJn9JYsR2Vy9w5EQG7aspnhjRsYWD9M/+AA3b09tIjJuqGRutq5ci34YEX5eeRli4BMkvpGEYgiKNPiY0iNiyI5LpKUuEhigz3xsDXAw1xb6hu9rHXxs9XFz1oHf+u5TBhoq0uQ9GCDrlSqpZ7SWJ0wfQ3C9N5PyzJtAo00JaB5gL4GkXIdohXaRBnrS9O2mLw9F84jUEeNbBtzkowNSDWVS6U82lCHeJkO0QZqhOvMI8tKRrS+GkGaqgRqqhGoqYq/hioBWuoEa6kRoKWKr5Yq7kaq+FmpkR9qSkGEGXlhJhREGtOU40RjtgM16ZZSAIksV5ViKQVWeZIxdVnWNOaI4LShKk1JQ44FzQVWtBZa0l5sTWuBDTVpplKglsYrqM+woiXfhooUBZWpCloKLOkss6M2y5TSRBPcrXTwt9GmO96MdYni+ScFbUFKWv2MafJWsDbYhM5AYzoCTaheo0XdGh0aPfRo9lBStlJfsuqVRjS7KahdoUf5Um0qRfAt1qLaWZ8GVznNXsZUC9WI5ZoULtWheJURifbzCbecR5jNQhYrVdFeoMKCBSqozPsQlYXzUNFW5yOZLgsUMj4U/aCRkt/oGUq94Ye6cj7UU0jBKTKipqUNRouXoVyxEtnSZaibWqKqNGOe0oT5SmNUDA1RNTVDRd8Ale379rB15w42T44zPDbK4MgIA0OD9Pb30SZOZZqaqa+tkUp1mciOhQUUZGeQm5lKVmqyNMRIARkfS0p8NInxUSTFRZEQFYLPMisJs+0lMNtWuvjYiECcMxGIgbY6UmYMstMjSEzV1gb4mKgRb6xHjEyHWDM9Yiz08dKaJ03MkSYGhBtpEmesQ4KFgiRrEyIUuoTJtIk1MyRUpkmytYx0R2PilNokyjSJ1p9P2VJzEg3UKXOwJMPMSGKiB2qp46e+QArGYF1NQnU08NFYgJ/OQv7flP0FdB7Zdu+LajeYxMxskpkZJMsosFi2WJZkWWAxoy1mRkuyZBBZzCyZuY3dpkb3xiQ7yUlOkpucc3LP741Vn3fvneTc997VGP+xqlZVffrgX5PWnLP2aC9lr+lSTlsLL1mTcFczYryWSwSM9jYlzs+cpMBVxPuvIOnMGmK8VxDjvZwIT22SzhqREW5CWqgxqeeMSQ42IvmsPilnDUk5a0KUpzaxPoZEeeoR6aFLtI8+kZ76RPsYkBBgQkKAKfFnTEg8Y8F2w6U4rVHj4jFD0oSqPmxI2iEDUo/qknxYm2RLLZIOapB2RI/Eg1qkWeqRJNJ096qTuF82H29pSvBGLUK3aBCwThV/CyVCN6kTt0+fiN3aUkhI2I5JR03w36yGw/EDvP35Z/7x/4b/9u//m7//X//OP/3P/8Wzb7+nb2GeG/PztI70ElSYhHtSMO291+joaaejt4PQ2FBOnj7JMaejbLfejtnu1Ww4th0Lq40YbDFDfbkuZhtXkVtTTG5jGUllF0mvyyezvpDspnLxxNhW6VFqFfW1lFZXUlQiI6MkHS9mkpKSJLMdoyKIOB9GSPA5gv39JUL6eQl1/WevWkhHLycHvFwc8HS159iOtewRqtlMg31iXC5UsybWIqzziYhHV6pxeKXMuz5srsEBExV2qi7hqKaqpIoPqsnLAuHG2hzV1+CQULd6MrXtYqrH2S0r8TDXxGeFDt7mwnnRxG+5Dl6G6njoKhO2zhRvI3X8TLVxVFXA11ADN20lbFSWcUJDRSKjeCC1IKaV/BKsFZawX0vU8S0hwm0VF0K3kXp2Ayln1xDlZSyRMe3cOhIDVhLvv5LEwFWkha0g8/wKMsNXkhG2nNQQE9LDzMg8v5y0UFMSAw2I8tIk1lebC+fNuRBuTnKwITF+WqSGGJEeZiqRNyXYkMQgI6K8DfA9ocEm7S+xMVMg47ABcfu1idipTPoJHXKcDMmwMZGkZYaDPsk2OmTYGxJvKZwTdWJE/5wtOgRvMyFklwHJ1rrEHtAm+bAhSdb60nbcQVGRoEuCpRHRe/TxXauMtc7neHu48fLDd/zuv/0TH//27/jxj//Az3/1N0zevculgV4a+3opvNaAY8pZAjIi6ey8Qmt7K1X1lbh4u2Lrboe1vTXr9qzHcOtyNhzZzsr9sm1VYzUOnTxEfkMZ4dmJxBSmE1eSSVJFtgS5y1ev09hymdrGS1TU1FJYVkZOSSF5hQVkZ2eTnp5OcnIS8XGyUE94aBjnAwMJ8veRVmR8PWVhHsl+dHPEw8UBb0FMV0ecju5l7ypt9pupsdtUWZKMhwUhV6hJZBSjTF1rYG2mziEzNcnG3KurwGF1JQ4oLuOA0jJs9TTYp7SYfYqLOKmngYe5Lv4WplLwWzgjQWvNcNFTw9NEBx8TQUo9gtctJ2iVAS7a8nib6BC43Bh3bXVOqioQYGGMo546B5Z+yUH5L6VnVbtqquKjq4mXjiZH9BTZZbSYCNfVJPiJwPQKMkI3knl+GynBG0gKtJDImBiwihgvI5ICDEiWCKdBvJ8OiWf0SQ8xIzPMnPQQU7IizMmKNCM3ZjkXzhuTfNaAtHMmZISakRJkRIy3DjHe2kR7a5MRYkbaOSMiT5uyTvMLnDerUh64ijwfM4r8l1PgbUricW3ij2pLoZ7MkwYS0u30uOhoRKYgqp0haUcNidyvQ6ajOcE7DTm301Bqq5PjbE6mvRmxlsac26ZLxF5dqW9R9B5j9hmrkJZ9gRfvv+X3f/9P/PaP/8hv/+af+P43f2R4/iZXxga5NNTNxUvl7DrvSnplFv19HXR1tVFQmoOzhyMO7nZYHdmHyQYzjHcJybiDFXvXobvWEAURwQjzpaa9icj8FGKLMogtTCe5NIvY/FTk2q5209R6hfqmZqrq6impqKKguIzcwnyyc7LJzMiUCJmYmER0dIwkHcODgwkJOEOAn/cvZJTUtSChixMerk7SnJvNIfav1Ja858NmalibaUiOi/VyZQkyVa3K4eWqsgC4JBnV2Kkjzz7VJVirK2KvoYqdlhp2Blo4GOtz0kAHz1VGOBloYK20CGvlxZwUUlJXHXtNJexV5bFRWcppfS1CLMxxVJXHWV0Rb0MtfASMdHDWVMFWeSlOqgpErDEjfvMKwlYZ4aomj7PyYqx1lrDLcBHnnFZJ3m5KwBpSgyxICVxFcsBKks6Yk+BnQryfMennzLkYYUZu9Gqyo1ZxIXy5RECBlLNGxPnpkhxkSGqwCanBxtKcOCcz3IzEMwZEemgRIxyW03oknDEgMcCA8FPahLuZY6HxJe6bVUk8rk7uKSNyT5uQ6SyIp0/KEXWi9qqQZC08Zn0p1JN90oQsB0PyXI1IPqItU+0nDEk7bkSClQkJh0wJ2qBK/H4TSSJG7tIjZq8Bp82VcBONBtcaUVZbzb3nL/jbf/of/O7v/oFf/83f8c33H+mZmqZ1fIjGwS4SGwo5EHmKrOILFBVcpK6xgqT0WOzcbCQVvffILow2GWO+Zy1rjmzHdI8F+qv00DPXIa0km9rOFmLy00gou0B8YTrZNYX4RQch19bRzeWr7TQ3t1Ld0EhZVTVFxWUUFBbLVHX2RdLS00lKSiI2NpaoyDAiQ4MJDwwk2N+PM96nfiGkBDdnfFyc8HR1wcPRFst1RpL3LALdwpOWgtwitCORUkjGT4RcoSoR9IDI4tFTYr/aUqzUFXDQ1cRFXxcHHXWc9TQ4qSGcEnXc9bU4ZaCNvY5Yt5aX1PZJHXXc9LRwFw6MrjIO6gp46enirq2JrcIybBSWYqusgIuKAp5aKgQa6uKlqYSvnjqeakp4qMpL+zb6KuzSXUSY/QounF1PxtmV5EauIi9mDXkxFmRFrCQnajVZEYJ4xqQEiVCPDmnB5qSFLCfWT58kf0Muhq6QbMikICMS/PUlssX76xPjrU+cr4yICf5GJAeaEetjQFKAsBWNJNKKIPtK1c/w3qVOup0xSce0yHE0JN/RmJJTZmTYGZNua0LsPh3i92qSsFeLDGsjYkX512o1/Jer42GkScxeM87v0MfTTAtHI32CNxsTvc+YuH0meJtp4aCymJA1OnibKnFi+zoWnjzkX/83/PV/+xd+/us/8vNf/4Gnbz5wfXyCtulRGvo7OV+VxrEkPxpbaggNC6CpuYbQyLPYudpw3OEI2/dvRXejMcstN7Lq0GbMdqxCxUiVLQe2cKG6gPTKXFLLs0kpyya1PEeai8lLQa69s4fWji6a2mTSsbKujpLKSopLysgvkKnqjIwMUpKTiY+LJzo6isiwcCLOnSM0KIAzPoKM7vh4uP8iIT1dnfF0c8Hb1ZljW1Zz0EQVq+Vq0hKgwCEJYhlQkFGmrq3NZThkrsZeA0V2qyzGUlWe4xrKUrjFXkcDB33hwKhwRHkp7vqa+JroEWxhxmkDTRw1lTltqI2vmT5OGirYKCvioKqCnaI8xxWX4qiria26Ip7G+rirq+CotAgPtcVErzIgerkBCSt1iFtjSJipLs4m6mzT+JwQO31yIszICDUnM2wF8Wf0SQzQI8Ffl5QAQy6EmpMaZEKin7GEGC9tSdqlBJoS4aZFjJchEe6rSPRbQYKvIYl+JkR56BNx2oBQF22ivQRBTQlxUyfYRY1oL12SAowlSep3XE8iY+AeLTKOaROzU7Qy0CPVUo90Kz2phDdhvyapBwxI2KlDvOifuFmD5P26ZIoVGEsTEvYacG69Ft5mItCvis8KLTKOmpNw0BDfFeo4asgTvEaPsHW6nDZYirejNa9++oHf/+O/8Zu//xd++qs/8vNf/Z5bz19wfWKcq5NjNI3cwCk3DMfEALJy0qSnCl250ohvoAd27jYctrFkw851GG5fzpqj2zHfvw6dtQYoG6rgGXiavPpiiYiJxZmklGWRVpFLpiBoTT5yHTf6uNreJUnHxhaZdCwR0rG0jMKiIvLz86WnTaSmpJIYn0BsTDRRIsVMkPFsIMEBPpzx9sDntAj1CBI64yGR0RlfdzfsD+/mgOSwaPxZMq7Ukggpk4yfbMflmp+kpSoHjJU4aqAuxRiPa6txWFUBS6WlHFJeyjF1RZwNdTisIrzhRRxVXIqTliYu2po4aahzSk8XZy0NTiguxUZFnqPKyzistBRrYXuqLsNRfSleusoEr9AmZo0e8RZ6RK7Q4ZyBBu6qS4lcqYeruTrbND8j6LgRyb7LiXTR57yTHglexiR465Psb0i8twERrlpEn9Il1sOYKHdDks+YkeRvTJKfEYm+JoS760oqN9hZj2AXQ+L8jSSbMN53ORGnRFzRhGgPPSLcNUkLWk6sjz7xfoaSdHTZp8lq1S8I3WtA3HZtQldrELNZk9it6mRaG5Jvay551yn79Uk/qM+ZVSr4r1Ym+aAhCXuNiNymTegmDc5v0eb8FiNOm2gQuVubONE5ZpcuvitVCFqjQex2E6I26mOvv5i4iGB+9w//zB//5d/5zd//Mz/+/o/8/Ic/MP7gPu3TU3TMTFI72sWRjADOZ8Ux3NtOV+81CstzcfA8iYObLdbHDrB8x2qMD6xjjc0uTPZYoLlaF7MNZiQUp5FeKaRhNkklFyTJmFGVT2ZNIRcaipHr7Omno/MGrde7uHT5KjWNjZIjU1xeSWFxKflSmCeLjMxMUpKSiY+NkXnWYaGEng3i7Bk/Avw88fM+haeXM56nZVJRSEfv0+64nrDiwEpNLJfLkiEkySgIaa7BYXM1jopYowh+L5d504KglsbKWIqlP3VFnLS0cDXUxUZdmcPKy7DXVsfT1Ah3I31OaqtzRFkQToETyorYqivjoKXOKSN9Tpno4qClhIu2Kl76mpwx1sbPUEMaz5pp46mjgKeOEr46Knhrq+Cq/CXB5pr4G6hwQncpO7S/xPugDsk+q0jzX0uq7xqi3fVJCzAh9YyJNGYEmpHib0S8ly6hLmqEuxkQ72NMnJeeRNbkM+bE+xgR5qRBhLM+ES7C2TGWSBcrSCtCOH6yuZQgU+J8heOiS5yfKSd3arJe9TPCt+kTt8uAiO2GJO03I9PKmIhN6iTvNSB+tw4xO2VZPCl7dYkRuY57tUnYrUvMdm1SD+kTu1+DeCsdkg6ZkCS68Rw1lbzq0K0axB0wJnK7DjE7DDhmrkh+aTF/892YvQoAAKzFSURBVC//kz/80/+QyPjxb/873/3VHxm4e4vu+QU6FqYpHLrC7mRPSpur6O0RjzfrJDk9Dls3G+ycjrHn8G4Mtq9gtfUWCfpbzZHXV2Lnoe2kVVyUCJhekSep59SKXDJqCrhQX0SakIztg4O09/RxVbIdr9PQfPmTIyOC4OUUFBWSK2X0XCA1OYWE+FhiYqKkjJ7zIWcJCfAmwNdLWpURYQGv0y54ujtKZPRwO8mpk4c5sNIAKzN1rMTqyycyHlmhJZFQkPHoij+RUmY7HjRV4aC+Ms4GsgQHZ21NTunrYq+mgqueNi66Wpwy1MNRS12Sgq5CMmqJFRdNXHW0cNJUw1VDDRcVJTx0VDljqoW/oQbeuqp46Sjjri6Pk9JSPLRUiN5gyMWDFiTvNCXUQp2zZiq4rlBnu9bnBB4zoiB8HYlehsT7ColnTEqAEemBJhIJU88Yk+hjQJSrDgk+RpKUPHdSE28rDUJPGhB3yowYd2MiXQwJd9In6KQ20af1SfQzJfq0IK4BcT56MnV+Sp9wN23Ou+sQ5qrDsa0qbFL/gnPbDIjda8L57Xr4rxShK2XCNmiSuFeXxD2aJO/VJvWAPin79UjYrUWqpQFplsYk7zMiers+cXsNidkuI2f8bl0pmydGEHe3KWG7jKTQj/9mXaw3mDJ+c45/EfbiP/9PfvPf/oXf//0/8v0f/kDvnXlu3L5J+80ZQhvz2R3jTot4Rt7gDW70tRMUfgbb07YccbRm68HNGO9ayRqbnSw/uAGttYYs01yMpd0+susLJBImlWVJSKvOJ6OuUFLRGXW5yPUNjdDdN8D1rh5ar3Vw6XIb1fUNlFZWSWTMKy4mP6+Qi1k5pCenk5SYQFRclKSqw0POERYgguDesjCPlwveHoKMLpJHLdmNbo4c37ZSytYR69Ii4G31Kd54WKzEmKtIJBSElI1iXo2DeoocU1HghKISJ1SUsFOW4bS+Hq462tgqK0r79qpiOU9TIuoxxWXYa6hgp6qEt5Y6wWZ6BBprE2CkRdJWM6LW6RCyUiYV47YYkrTdgNBV6pwxVcFdaxne+sqErBT5jars1vocl51qEgHjvAwkzzk1wEQm9Xz0SfA1IPPcCsmWFEgJEqsxhsSKoLivKalnlxPuYorfYRPCnM3wPaLPOUcDIt2MiHQzJuaUIREuOoQ7ywgYaKtFiIMgsy5hJ/U5tl6VfXpLiN5vRIzIT9ytT9J+kYNpSOrhVXgLKb5cmaR9RuScMCN2px7hG3VIOWBE0j59kvfq479anTOrdIjcqUfUbj2ithkQs82As2s1CNmsQ8wuPSJ26uCzVhXnw5sZvTXPr//2H/n9P/wrf/i7f+Sv/ul/8Py7n+m5eZueu7fouDPLmbYiHHPDGB7sYWiwh8vXmnDxcZYko7XtIVbvXoPR7hWsPrYdo92rUTfXQkuE3+LOSY5LQlEGieVZJFfmkFYlJGO+DHWFyA2MjHOjf5D27l6utHfR3HaV2kaZV11SVkGRUNX5hWRn55KRfoFUEQSPiyFGZIOHhhIWGECgn5e0RHjG8xR+bi6SN+3t7CrFG/1P22N/YBP7TUUOoyaWn3IYhWQUalmoZ0FAQcQ/wVpIUAM1rNWUOaqihLVwZFRVOKqoICOcqjK2qsqcUFbATk0ZOxUl7JWVOKmujoOAIKOeBj66anhqKRBorE7Eah0y95gRaKKIo8LneGguJnmTEWEr9LBX+RInsd6toYCLngon9BTYqfUZbjuFTWhIhEhicNXnnIMGsZ7GRLjpEemuR4yHAQk+BqSfXS55xPG+5gTY6pLgZy551oKgyUEipGNCtJehtNyXEmRCrIfMBg1z0CHETodztjqcd9Inxt2UEDsDQuyN2b9Cnr26SgRvMcF/tQ5BG/SI3G1AymFTEg8aEblDj+ht2kRt18fTXBd7XW1O6moQulmb0K36+K3UxHe5FlG7jAgVrc9MRehrGe76SgSv1SLAQovzWwyJ3mXMKQsVzvqe5u3Hn/l34I//9n/zu7/7b/z+H/6Zu2/e0nf3Nt33btN2a5JjRVHEVGczOtIvoaqxAgePk9i522J54gCmW1dguHsV5oc2orfJBGV9RbYd3ExOfSmJpReIK8kgvvSCjJAVOaRW5ZFWk0d6XQ5yg6MTCOnY1TvAtc4bMkdGUtV1FFdWUlRaLksty82V7Ma01BSSk2Tr1ZHh4ZwPCuSsv1DVnpzxdMPf3QVfVxd8nAUpnfF2d8b5+AGsVmljZa4tsxnN/yQZ1T/ZjerSSsyRFSoclRwaFak9rqWWClaiMEtFCStFJSwVFTmkqIiNmjo2akrYCFtRSUEio7OmOs7qMvgaGuCjp46bCNVoKRK30YgQc3XOmWkRvkqX6LUGRK3X4qy5Jm7aypxQXYKjtqqUYHFEZRn7VBezQ2sR9hs0iPdYToKXGREuwubTJc7DmHhvIxL9lhN92ogodx0SvIWjY0bcaSNSzphIUjNFLOt5GxDnaUyYs7m0Dh3joU/MKRPJIQp31CfE3ginHap4HNAi6IQRkU4r8LHSxeeQAXuXy7PXQJ7I3cvxMjcgcqcJaYdMObdWi1N68jjoKEhpcW4mqriu0OKYliLBW4zw2GbGqfXGnDRUkxJLjmsq4PuJzFG7zAjZpE/IBh0ithoTsc2Y81uNOWGqSF5xFvHx8awwM6emqYV/+F/wu//+r0w9/4r+B3cZuH+X4pledl0IpPxKHaOjA4yPD5KalYLdKVtsXU+w7dB2DHasxNxyPeZ7LdC1MGCx+iJOetiRXVtETEEqscVi1SWDxMpckoTdWJVHek2BpLLlBiQyjkqqWvKsO0QQXCYdS2tENo+QjiXk5uWReUGQMZnkREHGaImMEeeCCBFZ4L5eEhl93Z2lkI5ERGdHvNzs8Dh5DOvVhliZaUvxRiH5JDIKb3q5MkdXqnJ8lboEoa7F6swBMxWsNJWxVlLCSlkZS3lFbLU1pSTbI4pLOaGiKNmHjhpq2KspS/FDJzUVnFWFvahMzDZ9Mg6YErdZh6RtJqRsW0nYCi38dOUJNlUlbpM+3voqOKoq4amviZ2GkrQubaWwiH2qi9its1hqex5so885Gz2iXU1J9l1BopcZ0S6GxLjqkehlLEm00JPaxJ4ykSRdlJvwsoUk1SXW04hwZz3CnHUlbzvB05QIZwP8Dmnjd0gf38M6BNmZ4GWtQ7C9Gd5HDKWcyOTQNewyV+CIiQqJR0yIsdIl4bABGcdXkGljxkXHVcQfMiDTVjS9MSTHxZBUe3MOaShwUGUJB0X2kcpSThoq4rdej6DNuoRtMyJsuzFn1ukQsduM6P3GhO8yJGizDlYmGlTU1+Hi5MyGdesYnp7lH/4n/Prv/4mRJ4/ov3+HgQcPSJ64jk1BJL393QwN9dLX18mZED9OnrbnqOMRNuzfhNGuVayw3IDRzuWomWqgoLpEWnW5UF9AbEEa0YVpxBWnS2RMFJKxMpc0QUiJjBPzDIxM0Ds4LElHYTsKR6a+6TIV9TJHpri4jPz8Ai5mXSAtPYWUJFFFKALgEZITExroT5CvNwGep/E/5YqvpKqd8XZyxNvZDk93W6y2rWCPmQaW0rKfusybXq4lLQUeW6XB8ZXqHF+pwbGVIgykLLMxtVU4rKaKjbYWh5SVsFSQx1pBAVtlVezUVLFVU8FBQ4R1dHHV0cNRXQ13LWXOrzchZqMJAcYahK7UIna9PmcMFDlrosr5VToEmKjjY6SBq8gM1xLqXQkbJXmctNQ4baSDvbEKO7W+5OgqJRI8VpDmv44QWyPCHfSJcTMl3ElXUqlh9qYEHNbn7HEj/A5p4XdIkyBbQT5jol3NCDupK5Ev3sOccAddIl0NOWuvi4+1Dr4nDDltbcqRDaocXquAyx49PK1N8Dligd12HTYbfMEh0yWkHtcj214k0goYke0gsroNpDHPdjnBm9Q5oCXP9iWfY6muxI5liwneYUTBqRXkOpmRccyYRGvRXlWHC6KZ5BFDonfq4rlCC68N+rgv1+LgGkPq2pqwtjzE8ePHePPjR/7+f8KPf/xvDD9+yNDj+ww9vU9oeykehfEMjw8yPDZAS2sDnv6uOJy2l9acV+9Zh9G+Nayy2ozJ5uUoaStiaKpNak6yTEUXZhBTnEFccQaxYr8yWyJkWmUumbWFyI1MztA/MUe/pKr7ud7VS9u1bsmREallIgu8uKyU4uJicnJyyMxIl9mN8XESGSPDzhEussD9fSQynnF3lSSjh7sLXs5OeDo54CvyGw9s54CJTFVLuYzmmhyWVmOElJRJxGNSvFGQVBMrkVyhp8IRLXVsNDQ5ZWCEu64RLtp6eBob4W5ogN9yY4JWm3PWYiX+K8wJWG3OKT01fM3V8DNRw99YE29DDfxEJrOhSJbQxVFDAScNJTz0tPDQ15LFHrXV8DY1lALs+1TlOaotVoHkObRSnljvtcR6r+S8mymRbiZEupqQ7r+eszamOO/WJdBuDQG2FgSf3IL/8XXE+uwg1mcbYU4rOO8mchuNCHYwJvr0WiJPryH8tAXRPuuJ9tlApMdGkoO2khG6k8SAtaSHricpaDNhrjvYrLMEK/2l5DiupMzXgjwPc3JOr+CiuznZbqvxMlHn8NIvsVZTYYfKUiwUv+TUej3yPVeSZm8glRkkHxXZPiak2YhtU5IOG5JsbUKSlSnJ4rk6R5bju16dQNdjlNdVs3v7Ds6FnecP//Qv/NP/hg+/+z0jj58w9tUTrt2axq4qgZSmYsbH+xgZ7aO0qkhSwfan7NhvcwDjnStYb72e7cc2YrpRD2Xtpey23EZGdR6ROclE5SZJZEyqyCOpPJ8EsQojyFieIwW/5Ubm5hmZnGd4bEaSjiLueLW9h+a2K9Q2NlBeXUVJWZlExtzcXC4KVZ2SREJCnGQ3RoWHEXo2gEBhNwrJ6OaKr6sTPi4ueLucxMvFDi/nk5y2O47lKj1pue+AkI7mKlibCWflz1k8UkqZ5E1rclDUVhupEHD0AOdd7Yg8dZIYDycSzriR4umIq6kegRuMcTZUx01fi7BdWwnetZXze9dyfqOxREJ7NUXc9XRw0tXgqPIiTi03wGO5kZT7eFJfg4OKX2Cp9AUOOqocWPwFp9cux3fDWk6uNmaX7mKOrFEnLeAA8V5bCLQxIdLZgtjTqwh1MOHUXiO8Dq/EZb8evjarSQ9zJDHYhvizh4gLOEaoxwHOeh0g6qwdmbGeJIYcJy5oP8nhBwj330h0wD7Sww6TFLSF1LNbSAm0JDHQirRzO4j2Wsdm3aW4bjIgbJcZzlrLiN6/nJKok1w8ZYm9pgK2Ivdy6a+wNdPl6CpjXA20iRM9RAOtSPXeSbzbBuKd1xLvaEGcswUJrmtJdF1P4qktxJ/aQqzrJiIdt+G6y4CEuGAKa8rYvHET+cVl/BPwfwHPvvuekWdPmXjxkJaHk5ysTaaus4XhkRv0DXURFR+Bk4e9ZDNutpatQVvZ72KP5UaMVmmipqdAcFQA6RU5nL+YQPiFOKJzk4kXdmORDLFFaSSUZHJRSMax+bsMjy8wPDZL/9AYN/qGJenYer2DS82Xqa6po7yigpKyYvIL88jOukBGeiopyYnExkQRHR5G+LkgggNk69R+Hi74nnLGz81VZjM62Utr1F7ONlivN5WemLBPLA+aqEuZOrIKQbHyoiJBhHoErEQttd5SKdM42HI9590PEed/kmhHK/x2rub0ck3Cdq8n6uRBwo7u4vyRnXhtMSVk7zp81xrgbaKJnepiPA1EEFwHF11NjikrcFyqq9GUKg2P62jitNoM7x3rcVxhykmL5Zxat5Kjuqrs01nCoZVKxJ/aQYzbRsKdzCUnI8l7M1Fu6/E7sgb7zdok+VlSlOpDYeoZwv1siD/vRlp8ADnpERRkRpAV7096rC95aeHkpXgT6r2J2MDNRPqslMoQRG5kmIcJsX7riD2zlrgAUY24mvXai/DZt4LcoD3k+u/govse3M102b7kMyyXLcZBU01ar9+97DOpXihgtQFpZ49xIcKBjLDjJAdZkeS3hySf7SR47SDJey9J/gdJCrAmye8QCd77iHLbjvOB5VRVFXEuIpy9e3bT0n6DfwP+5d//nbvfvGH02VPGnj8gb6obh5IE2vs6GOi/wfXuKwSF+ePi6cBxtyOsO7iejQcscHbey4ED6zAzU2elhSFJOckkFGcSnZNEaEbMJzKKbJ004grTic1Pk5YGL9YWIDdz+z7jMzcZnZxjYHiCnoFRunoGudbZTfOVNmobGqisqqKsXCRPFJCTk0VmZjqpqYkkJMQQFxlBhEi6FU6Mn+zhWd6nXPB1kTkxQip6Otnh7eaAzZ6t7DRW+6WzhFDFQmWL1LFDZsrSMwDE8z4lYpqrsldvGSdN1AncKLJNDPFep4O7uRon9JRxWaGHxwpDTpvp4iJyFI1EAZYax1QWcVJdkXNrVxG4fhVeZgac0FHFzkxXaoFiqaOC1/Z1hB3fzznr7XhbGHFmgzlnt63BfbWZVI/tqKuKtbEq+wzlCTu5hhiPTZy1W0vAseX4Whvid8ScMMdNBNmuwOewCa57jQg4YUak20pSz1kSH2zLWY99RAXuITZoP7mJ3uQmeBHpdZBAO3OiPc1JDNhBjPc6ok4tl8pez9hoEuJkSKizIR6HdFmv9gV+u3XJdlvJRe915J63ItpuK/bKizi2bBFHVJdR6HcCvz3rOSy/iND9Flw4f4LEYCsSgg6QFLCHJL/tJPpuIcl3K4k+O4j32kmc505iPXYR77mbGPeNnNipxbWOq/j5BXLI0oqHL7/hfwF//d//kdlnz5l8+YKJVw9JnmjhbP0FxidH6Ovtory6GFcvR9x8nDjqeAiL/WvYd3gjzrbb2bXVFC3Nxeyz3EFmSRbhF2IlIkbmJBGdn0pMYRqxRenECIcmN4X0shwS8tKQm7tzj8n5m4xNzTE8Nk3/0AQ9/SN03Ojlcvs1GlqaqK2rpUJKnigmLy9HUtWpaYkkJsaQINaqw0MIORtAkL+3tCzoI8jo6oK3ZDN+koyuJ3E/dpDdZhrsFmQ0VpU5M+aCkCK9TEhEkbkjIFPhImFin54CR/VUsVRZwiG1ZVJGzR6VpVhqKkqFWjaiaEtTCTsDTU4aaEplrva66hxVU8TeUI2A9cbk2B3g/N512Oop4WCii9f6VZzdv520k9YEbZHVSrvoqEspZp46GriaGbFTazG7dRdz3n41id4rSD6zjothx4jxtMZtrwk+h1bia7Ucz/3a+B8zxGW3Ngm+q0kTybYBK6RamFAXA0KdTTjvvpxItxUEHjfE00obnyN6eFvr4WulJ4Vy/I7rSoHxMKfVBB5fxdENyqxTW4TbWm0iD5oSe1iXDMcVxO83kNLjRJzVXn4Z/hYahFiuxUZxMUk25qR5bCLBzYIEl1XEO60kzmkl8S4riXVZQZzzahIEnFYSZW9KtNMKzh0xwuXoZuqvtWJtZYWbmzs//83f8b+B3/ztH5l59oyZly8ZfnkPz8vZJDQWMDZ6Q1LTeUUXcPNxxv60LXtt97J2rwXH7bZge3gdm9cbY2CqxkmPk8TnphBxMZ6wzFjCL8QTmhVPWHYC53OTpJzGuIJ0cqoL8A/3RW7u3kOmbt9jYk4QchYRBP9T3LGtq5NLrS3U1zdQXlVNcVkxBUJVX8wkVXjVyYkkxUQTfT6U0HOyeOMZr0+BbxHecT2Jl7OMjJ6iHOH4QfaYabLHSIV9QvII+1HUxohaD1NBSOHYyBJtrU3UOWCkxm5teXaoyrNfSxVrPU2s9LXYqLCYnaqK2C83wnWFMc6mBtIYtHUdrgY6MklpoE743g2E7lqNh7E6QeuMibXcTPDm5ZyxMMR38yr26ahhpauB40p9jmvL46gjy4t00Fdnj8Zidhl8ycmNWrju0MLjgCanrXTxPmxCwPHVuO7R5fQ+A07tM8DnmAlRp9cR7rAVp13aRHqtI8h+He77tPG21sX9oB6hog+oz2ZS/IXE2kmIq7lUWhDvs0oiosdBI/wOmxPubIHf0ZVYqH5O1Akzck+v5KLrKqKsl5NybC2hGw1x117KGUMtvPW12bLoc6wMFMhwsyDR2ZgEJ0MSROGYgwHxjoYkOBmR7GpCopMpCQ5mxJ80Jc7OmHh7U9w3qeLvfIKrNzrYv3cfhaWlUtBb/L377a+Zef6YW29f0f58DqeGNIqv1TM+MczwaA/pWUl4BZzG3vU4O47tZOPB9djb78Zy90rMTTXQN1MnIjWCmOwkwtJiCc8Q0jGWc2nRhGfFE54dT2hmDLG5KaQVZeIf5ofcrYcvmL17n7GFm4zOzjM8PkX/8Ki0KtPV1c8VkQnedEmSjuWivrqgiJyL2WSkp5CUnEBsrMyrjgoV8UZfAkXw+5Qbvq5CRQvnxU5S06ccbDjteBzLNcbsMpT13hHYb6KMlZkylqYqEqxMVDlkosYhU1UpYWKXljy7dJTZraWEpa4GR0z02SmqBEWS7JqVOJgZ4brcCAcDdey1lHA11MROXZFTxhp4mGhyVmSB66vhtdoAW31F7FZqcHq9IT7LdTi7UpewVQb4m6jjYiDyJBVx01XE21SLQ7pK7ND6Et8DpvhaGhLrvpHkM7tJ8NlNtMdWHHfosN94CU47dEn120+y/17i/PaScPYIASe3cXSbPvss1HDYJyoID3D+1Ebi/DcQH7iaJJEl7r+SWC9BYiOpNtv7mDFnjq/G3doMy3VqbFJbzLk9eqTbGJJyXJ9M1+Uk267j7GY9jigswllDBW8TXWy1VIiyMiNNdJmwNyFFeNIOBqSKQn8Bse1kQvwJQyIP6xJ92IjIw6LeRRNr/V+RHBdB2oV0tmzeQkPTFYmI//f//t+8/P47br97x9zXLym714fLpXR6R3uYmRimf7ALvyAvHFxtOX7SmvWWG9louRp7my3s2WqKnt4yduzeQGJuCsHJEQSnRXE2PZpzGTESwjPjJWKGpMcQV5BCWHIYfsHeyN17+jU37z9n8uZdxufmJen4p1WZ7v4+Oru7aL16harGOnJyc2TSMDFeqo1JSU6S1HR0VLgU4gkN8ifAxwM/D3dpSVBIRm8XIRntOGV/Ag+H4xzdspJdhqI1nip7jGXqep+JuiQpDxqpYWWigqWJIgeNFdlvpCQl2h4z08HFzABHEwMc9PU5ZmzAdhHgXmWGi7khLsZiScwYe00VrJZ9KSXa2ooCf5EHqaGEp5EGZ8WDq1dpE7BKm8BPRfv+Bqr46anho6fGaV0NKQPc20ybM2sMsNJexnatLwk/uZI0/3247NbDfY8BvseWE+a6Cdetmjhv18N6lSL7jL/EZp06HgfMOb3fHL9ja4n13U+83w4i3FZy7uRqjm9S5cQmVRx3aOBpaYy3lRle1muJ8tiDv80aIr2siPSxJPzUHuy2GbJR/QvCDpqRbr+a2ANmeBgpc0pfFQ8DdZw0FHHVVsJWfhE+K9XIPLmC1BOGpJzQJfm4HvHWBpzbqUPkQT2iDukRd8SY8wd0Cdsnewyo3yY1PNZrYqm3jIryImLjEti3Zy8L959IZPznf/03Hr/9wO13b7n14SUZc20ENKRSmp9BQkQwBTmpBJz14LiDFQeO7GD5rpXsO7KJk0c3smWDIfr6iljZ7CYuO5GghHACk84TkCyDIGVwZoxEUEHGhLwUAsJ8CQj2EWR8w90nz5m795SphbtMzC4wOrNA/8goTVfbKCgpJCf/IkWleVRVFFFZXkJJcQGFBTlkpiaRHBtNfNR5osLOERJ0hiBfD/xE5o6bM55CMjqd4LSDDe52JzjtaIvt7g3sMlRkj6mirFfjJ0IKYkptUIR6Fm1RxJyRKrt0FTliqIWrqREuZia4mZniamqCx+qVHDfSx1ZP5OaJJTNjPEyNcFBXk3IavY2NOLPclIDlZgSaG3B+nT5nV2pJmTuntZVxUJHHRnEpttJatyK2KgIKUvD7oMJS9qnJs11zEZ4HDQlxMiXM2YJwFwviPDcTcNQch3WKRLvuJP3sMeK8DxDivA37bbr4W6/Cx8oc2w2qOG/VlJb7/K2NCbEz45yjPhHuJkSL/jqeO4n3O47nsY1YbtDinPs+ogKOEe1/FOtNemzRWkK05QrcTdSwVliKqyi5FX2H5JdwaNkyvFdrk3LcjOTjoueOHsniySRHDaTGT6K509nNmoRs0yJosxqBG9UJ36VPyA5DQnabcmabPj6btbHfbM6N3h7cXN1xP32a9z//hv/57//O7//2b7nz9RsefPuBye9eET/RQECsB5mRPhTEB5MdF8iFuCDKi1KJTw5j2741WFquwnrPSlaaaqKrp4jPOS8iMxMIiA3BPzYEv/hQ/BPDCEiJkCAIGp4eS1RqND5n3AkK8kbuwfNvefjia+48ecHo9E2udXbRfLmF69ev0nOjm96eXno62+m8dpmWljpqayooLSmgqCCHnAvppMTHEB8dIbMbRfDb1wP/0yJrx0VWJShUtL0t7nY2uJ08gc2eLWw3UJNa4wmyyaDyCymFhNz/J4J+IuNBXRWcjQ1wMTbG1dQcdzNzTpma4m5qgouJGXs01NilJEoP1HDV08VNWwd3PX1O6etxSkcLf2NdfAxVOaWugI3CIo4rLcZWRR43LVVO6ahjr66InaoCDqqKOKgrY6m4lL1qonHoIo4uV+bcieWcszEm8KgBZw7rEHjUlHDbtThsUufUbiN8DpjhZ7WCs0cscN2kKT28znWjePqfBqd36uN30IxTe/QkJ8d1rxYelrq4H9DB02o5HgdXcmKzLlsNFuNmLQrAjmK1Rps1SnKy7hjyizmqIo/1smU46CmSdNyEFFtDEkQZ6iFd4iz1iLMS2zpE7dMkcrcGwVvV8V+vzpn12nit1MBrlWjtoonvGg3cV6rhslwZW9NlHNu5mtqWRg4ePszZ8DD+9p//mX/7H/+Db779luknXzH99CnXH83hWRBF/HlPMqJ9uRgbQG5iMHnJweQnnyM/MZSSzGiqizOJPHsKU31lzEy1iUo4j/c5Xxx8XHAN8sA1yJNTwd54hPjKcNaLoKggTvu7Y3vyMC7u9siNzcwyODLO4PAQU1MTzM8uMDs7y+TkJKMjwwwNDNHX00Nn+xWut7fQ3FRPUWEuqUnxXEhLJi0p/hcyhgUHctbPkzMeLni4OeDpLFSzDadOnsDF5ijOtkdxOXKQ3abaMrvRSJXdhn8mpIAg6S8wVGGPvjJ7NOWx09bipLYODjq6OOro4qCrw0kdbRz0dHHR18dJW4ejulrsVZRn59JFWCopYKOijI3SMhxUluGtLbJ5lLFUWMzBZYs4KL+IQ4pLOaS4DCupoF+Bo9K4VEq2OKqqwFrVL/A4YEyo7Soct6jhsEmVU7t1OGNtgsdefU7t0sd2vQLRzps5b7cBh/WqnNqixUkLZQ4bf8nJNYr4HDAm6LgF/jar8LdZgbe1Eb5HDDhja4q/rbE0nnVYS4jrXnabqrNVZxGbtRexVukz9il8yRFFBey0lEg6Yiqp4vjDOiR8egRv3AFtqew0ep82odvUOLtJhcB1yvhYqBO0WZ+ADTr4rBFk1OCkngK2eirYmahzxEBNcgrXGGuRmpfH5c5eKi+1kJFbRERiKran3bA95cgRFztW7lmPs/0hjuxYxXYLbbxO7ic/NYSi9FAKU8MoSA6nIC2cogux1FTkMj83RmRUKGvWrWTTjg1s2rmRTbsENrFp9yY279nClj1b2LFnE7v2b2HNhhWsXm2CxWoT5CZmplm4e5u7Dx7w6PET7t67x/y8IOM442MjTIyPUlZajJ3tCfbt3oq31ymSU0S29zmCgzzJvpBCfFQEMaJBVHCgpKYDTouwjiOeTrYSEV1tj+J84jAuNkdwOnyQHeY67DBUYacgpCCcREahmtV+IeZuIyUZxOOF1UXpqjInRKWgpugkpsoJdRVsxKiqJGXw2Im0MkUljigrYq2szBFVVbYpLWXD0i/Zr6LEbqUlbF+2mK0KS9guOuMqLuWA0lJJJR+RX4qNwjJsFeU5oSSPnfwyqcRho+oX2Al1Z2fB2WNmBBwxl+KKwbYrCbFdS6TDZum50OJhspF26zljZcqx5YtwWqvCqS3anDuymrN2qwk6uYpAezFa4HfCHL8TxviK9ezj5gSJeft1HN+kzzqNRWzVlmeL9mI2KHzGzsWf4WuhJalfIfnipZZ4mkTsVydqjxoRu1UJ36lC+A41InZpEb1Xl/O7dDm3XZfAzVr4rdXAf50OgZv1CNxkiP96XexNNDikJ/I1l3Bgzybaem7Q3jvCpaud1F2+QlZRIZ4BfngG+OPk5cYu6x1kJZ2ltfIiWfFBFGdGc2T3Wg7ttqDkYhSlmVHkp0bQUlvI/NQQN25cxdJqD3sO7GT7ge3s2LedXft3sOuAwE52HtjOTsvtUgxy78GdrF23ig3rV7Fhw0rkFu6IoPc8t+/e49Gjh9y9f497d+6wMDePt68Xx44dIfBsAGvWrcbJ0YaaqjIuN1bTUFVMQlwoKUnRJMVHERF+ljAR3vHzJFAEvp2d8HC0kVS0IKPT8cM4H7PG7chB9q81ZbO+ItsNVdklVLSBgGiJpyJhr5CWhrL53bqKbNdYgq2OulRSIGJsInnWRk0ZRx0NbFQUOSFsKWV5LBWXsVPUQovaFzVljigpcFhJAWtFeSkXUmwfUJaXiLhPYRl7l8mza8kSdi1ezNrFn7Fh6RdsXfYl2+S/ZLPiIjYof47tBi1C7Fdw7oQ5Z4+vIMR2HUF2azhrs5pzx1Zz4cB6EjYaY7tKgSDrVcQ6bMFrtz7Oa5SwX6uEz9EVBNmt5YyNhbSGLaSjzzEzPI8LD9qcExu12GG4jB0GimzRWcp2fQVWqX4udWSL3W9IlGg/sk+XqL3aEvlENzHRDllIwtDNKgRuUMZ3nQreq8QCwVLWKP2Klcq/YrWynDSuUPoVy5U+Z4Xy56xQ+gJjhS8wUVyE/hI5tm5eR0RCHBcLCknLziY2NRE7F0cOHrFkn/UeVm9ZxdHje2gpzyQ9ykdSzc1V2WxerYe7/QH2b1tBZkIwZbkJjA9d48HdWZKTY1i91pRNWy3YuHkdmzevYcuWNazZsIo1m9eyZtMaNm9fz/bdm1m/aTUrVhhisdKYlSuNkPvq5Ws6e/q4df8Rd+8/5NXLV1JihJ2DA8ODw8xMTdDf14f7KWeOHjtETXUZl1saqKkso6ggg/jYc6QkRhJ+LpDzQQEEe4vQjrtExtMOJ3Czs8XV5jjOxw/hdPQQzscOcXTHWjboK7HFQImtesrs1JOR8C8hiLhHT5ldukps1VJgp+Ji9ssv4qBEJkG8JZKq3bb0S7Ys/VJqJi8axx8Q9p78Ug4oiD46iyWDX3SJEOr3mPxSji5bwhH5JRwVbU0UFnNMOmcRh5Ytwlp+MceU5DmhsIyDikvZoPI5litVcd5piO0mDY6uU+bIGiUsVy/DdbkyA6bruGO0jefrrCjbuhHbTeo4rVPmuGiKarQEx82aeBwyxuuwOV5WAqZ4HTLFy8qYY+vUpFWWFcpyrFb9jK06y9imvZTtBooSGY8byxMhOszuVCdkm2htrEjAVhXObFLBf70SvmtV8LRQ5NRKRZxNl+FgsBRrg2WsVvoMU4VfsVrpc9aoLmaN6jJWqSySCGmm8iWmyl9iovgluss+w8HlJC3XRKlJC0VlFVzMzeGUrwfHHG04Zn+EfZY7SYz0IispkMwoX/KSgilKP09BxnmKLkaTFhsokbLjciUP5saYHe1l944NbNy4mk2bLdgsSLh+FdHRoVy/UkdVeTbFBWnERQdx+MguzMy0WGGujcUqA1avMEbu2x9/prntmiQd79x7wOPHj5idn6GppYm52SnGxgYZ7O1mqLuToRtdjA720NpUT21VGZWlueRmxJOaEE1MeDjhgX6E+nkR6HEKH1cHKdjtbHtcUs/Ox6w4aW2F49EDHNu7iY0GqmzWV5KwRU+JnXrK7BHqQ0+Z3cJO1Fdht54K2/WU2Ky1hO0qX7JDfhEHVJZhqarIPmUF9kqSToF9CkvYs+RLDqjIc9LcCEdzY5xWmOC03BDnFUYS3FcY47HcRAoRiYYAbmYGuJoZ4GSkj4OxHo4mMjgY6+JopMMJI22pn6T9NhP8j2/C79ga/I9bcObEGnxtLIj2O0b/9RpaqnMZ7W4jLy4Yu3Xa2G4yxmaDHk47TfE6uhZ/2/X4nRCScT2B9uvxPr4Kxz3m2Owyx27vKhz2rcFl31qc964hyGEPHoc3s8/CkMBD60m020Ss7XpibNYRddyC80dWEWK1kvBDawnYYYqd0VJsjJZgYyTPcf0l7NZZgpmCHGbychIhTRQ/w1zlS1aoLZFBdRGrNJZgprIIE3UFwkODud7ZSevVa9Q21pGcnsRJNwfs3R04dtySk3YHyYoNIiPCl9z4QCqzoilOO0/ZhWjKsqNpqcmiuiiVqaFOntyfJTXpPCaG6uzauZ5Nm9awwWI5zo42dFxtpKOtnq62Ojrbqrl2qZpLVcWSjZmYEMq+3RswMlBB7ruffsvE7Az1zZe5//gr7t9/yIuXr8kryKa0tJCZ6Qn6ervp6LhCe3srnddbudF5lfracqrLCqgsvEh6SgSxkWcJD/LhnI8ngSLO6Oog2YvOdsdxOnFYkor2VpbYWu3l+MHtbDNVZ7OeIpv1ldmkJwipzHZ9VbbqK0sSc5uhClsFEfUU2SjOU1nClqVL2bp0CduXLGHnUtkTC3bJL2X3oi/x27WJwig/skNOkxVymoshp8kO9aTwvD8JHnac3rse/0Nbcdy6HO+Dmwg+upPcYGeKzntRHOFPYbgfBWG+EsR2fpQ/WdE+5Mf6U5QYQElKEKUZIZRmhlB+IZKh641kJIayYbUhNkcOMDc5RmdbPUVJwRQnB1GQcIa8+EBK00IpSztHeeo5KjNCKcsIpiwjiOLUQIpTz1KUEkRxSgB5sd74ntiGh9VGLFfr4rrLnFN7VhLtfpCyRB+KYzwpjDxN7nl3csPdKYjwIP60Nfu0vmCfxiIsdRazWWMxhopyGAkoCPwKQ/lfYSD/OUaKX2CqJo+ewiJ05D9DT/5XqH8hh9Kv5FD+TA6Vz+VQ+1IO7aWfofnlr9BR+JKQ0zZciPAmPdqHmtx4StPPU5x+npKL0VypLyAxMoBrTZXcmx1hbqKPDauMUPpSDs1ln6G+TA6FxXJkpcXQ33GJzsu1dLXW0dVWTfeVKnqu1dJ7rZHutnraGiuorsxD7t2Hn3jz7kdyi0sZmRzn9p2bPH78mImJCWztjlFRWcjY2ABdnVe50tZAx+VL9F5ro731ElWCjAVZFGYmkBp9jsggXwI93QnwcJWW/9xPnsDJ9giOxw9hb30Qm4O7OHFwO/ai5/cqE9ZqK7FJT5lNusps1fkEbUUZdBXZpLOMLdryklG/SXUJ65ctkRySTUsWsXnpEjYu+pwt8l+S5uNEVXIIpfHBlCaHUJ4cSmliCMWJ5yhODKYw+gyFsYGEuR4hN9KP4rizlMSdpTwhhPLUMMpTwqhIFgilPClEQllSCMXJAueoyoygLiua2qwoqrOjaChOoaOpkuuXKmiqyKOuNI+JkX6Gb3RQfjGWipxIqnMiqckJpyYnjMqLYVRmnafiQhjlgpDpITKkhVCSEULZxTAqMsMozwylLCWY7HAvor1sqM8OpyIjhKrUYCpSAilJ9KM03p+y2ABqUkKozAgh/awLW5QXs131CyxUFqG79DP0lwn8Cr2lcugt+xX6CkItf4GB0hfoysuhK/8Zuss+R2fZ59K2zrLPPo2/kka1L+Q4tN2CxHOnSAhyoyjtPKUXoygQ30l6GNebijnjYUNS1BnmJnt5dHOCqsILFGUl0FpfREttAZeqcmiuyefGlXp6rwky1tEttq/X09/RRH9HK/0dlxnobGGw+zJ9N5qRe/32R779+Buar1yhsLiY+/fvc/P2Aq9ePONCVjq7dm+jtrqcwYEerrQ109RQw+VLdbRfbaaloYqK/IuUXEzmYuJ54sPPEujlLuUxejrZ4Gp7GMdjh7A9tB8bqz3YHNyB7f7t2BzYyv4N5lhoKbJRR4ktOgps0ZH/MwQBpbmlbNZSYpOmMptUl7Jm6VIslixi3ZLPWSEnxyEzfSpSI6nNiKEqM5rytHAJFemRlKVGUJ4WQWm6IEAEEV72FCaGUH0xmvL0MIlg1ReiqLkYTVVmpLRdfSH6E6KouhhN5YVIqrOiqSuIp6YwntrCeCoLEmirK+VaUw1FORlcSIyiMDOd5rpabrS30ViSQW1+HHUFsdQWxFBbEEtdfgy1edFUZUdQnRVBTbYg63mqcsKoyAqj4mI4lVnhVGSFUJ4eQnlaCGnnTpMRfpr6vGiqsyMpSQ2mOCGA4jh/KoSUTQshP/4MVRnnKIjylh6mZCb/GQYKchgo/EpGRoVfoaP0GTrKi9BW/AJdYSsqfImewucYKX2O4Z+gKBuFHSmk43J9ZcJ8nIkKcCE1wo+yi5FkxQeQn3KOa7V5BHrYs3+bBQPtDdyZ7GN66AaBXg7UlqZTW5ZOTWka1cXptDfX0FBTgOW+TXi4HSPnQiztbfWM97cz0NNGX28r/b1X6etpZ6C3A7kX777nzfufuPfkOTFJ8QwNj3Hz1h3u3b3D7ZsL2NgeYd+BndTVVdFxtZWG2jLqa0ppaqzkemsjdaUFFF9MIi89jpSIIKLOeHDK9hAuJ6xwOXEQxyOW2Frux2b/Ho7s38ThvRs4sncjh3euZb2hOmt1FNiou4wtQgrqLGOz9lI2aS1hs9YyNmspsFlLns1ayqxXV8BCYRGrl36BsZwcwQ5HuFKeTV12HPV5cdTlxFGXF09DfgL1uZ/2c2NpLEomLtCdgtRw6nMTqc2OpTY3ljpxzn9Cbc6neXHtn5AbI5GxMCOCgpRgclNCuNxYRV93B92d1+kUpsu1K0yNjzLU30dxdjKFWTFU5MbRUJpGU2kyLWUpNJWk0FAYT0NhLA2Fcb+gvuC/7guiNpUkkRRymvLM8zQVJFCVcZ6y1DDK0sIoE6oyNZTS1BAqMs7TWJBEWWooZpryaC0Rkk9IOJmU05NfjJ7iErQlKSiOyWGisggz1cWYqSzGXHkJxspL0Fz8K04dtyYj8hwR/m6c93UgNtCJ8swocmODyYsLoL4oidykMPRUFpOXEcv0cCcP5sdJiQnilMMhWusKqC1Jp6Y4nfqyi1xvrWB2opfpsRtcqi0mPSlCilnu3rUaLw97mhoqmR7tZ7yvk5H+a8g9e/uOF9+85Zt331NcVk1OQRHzN+8wNzPLk8ePabzUwNp1Kzlx4jBNDdU0N9dQXVlEdXkJTXUVXL1UTll2Knlp0aRFBRMX7E+Amx1Oh3fjcGQ/dkIqHtzN0f2bsN69mUO7N2G9ZwOHd65jo7EWq7QVWaMrzwbtpWzRXiZ5lTJSLmGz9mKJjFs0FNioIc+KZb9irdISKjNj6WgsobUyh9byC7SWZUhoFj9+SSqXyy/QUnaBK5XZpId7U5IaTlNxGo2FKVwqTKapKJnm4lSai9J+QVNhKk2FKTQXJ9NckkpjYRINBYlcLs8kIsCZNeaqWJioYqi+hLKSHF69f0tt7zU2HthNYV0lr37+wI+//hHLPVtYqa+Kma4CGTFnaavI4nJZGi1lqbSUptJckkJzqXhdGVrKE2kui5fGlrIkGoviqc2LoaEwgersaKL9nbhcIa5NoV7cLJkR1F4Ip+rieSqzhISNpr4gjsaiRBryU9hgqIPql3LoKshJkk5ffjE6iovQVvgVevJyGCp/gbmWvPSAIRONJRL+tK2rKMehbRYkBXsRcvo4WTH+5MQFkH7em4LkUKoLklhloISH/UEG2+uZH+1msr+DbetMuJh8nrb6Qpqrc2iouEBLbT5D3Ze5OdlH95U6Oi/XSKq650ojc6M9XGurxc31GEeP7KIgN5lbUwPIPX/1lhev3vL12++lwqzQyAh6h3qZmplgZmaCBw9vcfacH+bLjXBzs5dJxuoSqsRadWk+LXWVNJTlk5MayYXYEKLPnOacpwNOx/Zy4tBubK32c+LADg7v3cShXZuw2rkeqx1rsN65lm0r9FmlqcBqbUUstBVZpylIKFT1UomMQl1v0VZgg5Y8xvJyHNtuQUdDEVdr8mmrzuFKTQ5tVTm0VuXQVp3LlRoZWquzaG8oIiM6kMLU81ypzuVy2UUZSjO4XJrK5dI0WkrTuVyWweWyTFrEfFmm7LiYKxHkzqC5PIMrtdlcb8jjSmM+7U1F9KYkcO9SC8/u3KZ/qIcnL57w6ztf8VV2OT2lGbQ2ZtPacJHm6jSaKpNpqUqlpTKFlspUmivTaa5Mk7YvS3NptFRlSPOtFYK0KVwqTaa5PI0rtRcpzAglM9KX67UXuVyeTEtpEg1FsdQXxVJXmEB9oSB0Cq0VqbSWZ3C9Ppc9681R/pUc2vK/QkdxMRrCaVH8EiOlL1mhrcQqHSWWa8qzQkseM/XFmGsswUDlczav1CIz2pcwj+PEBTqRlxBESuhp0s57UV+UysEt5lgYKNNYfoGZ4Wvcn+0n5pw3+uqL2LHenM1rTFi7XBfHEwck52Rhoo+BriaJiDeuNtJ3/RKDnS1MDnZwIT1aCu1s3mjOEasd2Nnuk5Hx2au3vHr1gafPXpGYns6FnFympmaYGJ9gYWGWsfEhDh3az8pVhgQFeNFQU0J5URbF+ZlUFmXTXF1CTkokUQFunHU/QfBpG6nIx+7gdo7v3yiFco7s2SKR8dCOdRzavoZDO9aydYUeFloKEhFXay5lreYyNmgosklDgc2a8mzSUmCjljwminJEB7hy43IFV2pzuVafz9X6PK7V53G9roCO+iI66kvoqC+nvb6MnpZKshPCKUqNovdSGZ11hZ/OKaKjroD22lw66vJor82mvS6Hjtpc2quzuVaVzdWqXK5V53K1Jpe22hyu1uXS2VhI56UiOpvy6WkrYuhcEPfPRnA/JJqbHoE8j8/mNzf6eRISw0BJOh2XxDW5tNfnyF6/PpvO+hy6GnLokJBNR53sPXTU5dApHRdz4vws2msu0FmXTVd9Ln2XS0iP8acyJ5YbTYW01+fSUZ9PR30eV+uyaK26QHOlIH4OV+oKuFafzeDVehwt96MgJ4e6vBwrjbTJS4miMjue2vwUKrMTqMlPoq5QIJVLJZnS+nJmpD9ZUX4EuRwi47wXySGnSAx2ozQjgkul6dL5pVmRDHTWMD3cynhvo6Sa7Q7vZrWpHhssTFi9Qp+L6dFMDFyXQj43rtRI3nR/RzMDXZclZ2Wk9yqlhZmsWK5DXMxZbs2NcKPzMnLPX7/h+av3PH75ga9ef0tj81X8g4K41NTIxPgYo8MD3L41KwW7N6xfweYNq0mKCaW2NIfi7BQKUuPIiD5L2nkfzgkSuh3H3+Uw57xs8bC34si+jVjv3YzVrs0c2rkR6+1rsNq2Fstta9lhYYSFhjwWmoqs0V6GhdZS1ugoslZLgXXizlVdxEZjNVorshm43khHSxUdLRUyNJfL0FTG9cYi2htL6Gwso/dyNXkpEeSlRtJzuYqOhuL/gPaGYjovlUhol1BMZ6MgsiBrIZ31BXTU5Uuk7W0uJSnch3XLNVm3QpNNq/VYuVKNWJOVPHEL4Kb3GWasHLl76gxfRyZwx86T4xtN2bBKk3UmKkSecWboeg03Wkol9LSU0t1cIoPYbimlq6n4l7mu5jLaBeEa82i/VEh7s+y4QHKYr/T+u5r+9BqldDdV0C32m4qkm6WjsVBCZ1MREzeaCfVx4ws5OfZtXUVxRgzF6VGUXYilOD2CkswoSjJiKc+Kp+xiLNGBrtQXJBPgaEWMnwOpoaeJ8jtJRoQ3LWXpVObGkpMYxNXGXKZHrjE9fJXuy0VcTApHRU2Bz5d+gdzncmzfuYHuKw1MD3XR395MT3szvTfaGOi5Qv+NdsYGupga7WZipIv5iT5JSk4MtjM2LGzG1+94+PwdIq/x/levGZuaJjQinMTERG50d9DXd52B/k4W5qelRqHLzbQ5uGsD6QlhXEg5T2K4P9EBp0gK9SPCzxk/p8N4O1jh63SYEA9hO+7CesdarHauwXLHGiy3rGLfltXs32rBrvVmrNZSYJWGPGu0FLHQWoKF5lIsNJdhsFQO12O7mR5sZ6iziYH2RhmufxolNNB/vYFBcedda5DOq8xPpSQ7gZGOJvraaqU780ZbjUTS3tYKelvK6W0qp6+5nN5L5fQ0ltLZVEqHwCVBymLa64sk0nY3lRF5xhVbyy04HN+F47Hd2FhtJS0ujBLhsJ1yJvzwIUKPHib1jA8NlbmcOW2Dw4kd2B/dRnzoKYavVdLXXCpJuP7WIvpbxVhCX6uYK6WvtYzetlJ628robS2n53I5N5qL6Wstlq7pbS1l4GoFLeUXyYgOYvhqLX0tZdy4LIMg5Z+u67lcyo3LJXReLqe9pYTh7gZiz3lzwnKHjIAiRHMhijIRUciKoTw7horsWM552tBYlEJGpA8+dntJCHAi1u8kcf4O1OXH0VSeRmFaKNW5ccwMtTE12MZAe60kKYPOuPOrL3/FF8s+Z6niYvIzkxnrvSahv72FgY4W+m9cZqCnk7HBG0yN9jEx3Mn4UAdjw52MDt9gfFjM3UDu/jORz/ia+QdPmLv7gLlb98kpKMT/jB9Z2Zl0dl3h2rUmeruv09N5DUf7Yyw31+CkjRUXkiNJjDhDVOApInwciA1wwc/RmtMOlpKRK1R2oOsJju/ZJBnGB7dasGfzGvZuXiVh1wYzLPRVWClJRwXWaC1lteYiTFS+oCgthpsjXQx1NTHc3czojcuMdLdI419iuKtZmp/ou0JDWQ7FFxOZ6L/OQGczAx3NDHW0MChURPslhq/XM3itlv5rtQxcq2Xwai39bdX/AX2tlfRdrqT3ciU9LRUS+lqr6LtcRX9blXR84HodHc3VNJUXcqk0l8aSHFoqChm81sxwe61EDoG+VnGtDANtlfQLXKlk4GqVRLDBa9USBq5WSu9l4Ho1A1dKJfRfFedWSOcJjHRUUyhCVRnRjLVXM9BaRv/lUvovl0nE7bksUMaNlmI6LhfR1VpMlyDnlWquXiqW7Of8lDCKU8MpST1PaXoEFReiSAk7zcVYf65WXcDzxC7CTh+XiBh+6ihZMT40lqRQkB5KTnIgwz0NTA62MDnQTE1JIpX5MezduwW5z+SQk5PD/uQJSQ2PDbTTd71JImJfd7MUxhnuv87MeD+TI/2MDw3IMNLPhCDnWB+TY/3I3X3wnPmbj5icv834/AJjkzNUVdXg5e2Jk7M96WnxNNSUUlNZTEVpNpmJERzYs561FnoE+7uSFhdCZOApgj1sCPU+ydlTtnjY7sPjxC58T1py9vRx3I7v5fC2NVhtWc2+TRbs2rCC3RtXsH/TSjaaaWKq8YUkDc2UFrFrtZFk80wPdjDWc53x3nYm+jqkcaz3KmM9rf8JbUwNXKeluoCSrCSmBq8w0n3pE1FbGe4S4yd0tzLWdZmxzmbGxZcmbbcw1tX0Cc2y/c5PY1cLo51i/hLjXc1MdF+Wrpvsvcb8QBcL/V3SONffwUxfB5P93UzdaGW8q4mJ7mYmu5sY72hkvKOOsfYaRttrGGqvZaijVlLfQ9drJfLKSFkjEbLvSgn9V8roa6ukr62Cvsvl9EmEK2OkvY7M2GAuV2X/RzJeLqGntZCey0USISW0lNLZXEK7JC0r6GooxuXoLk7sXo/T/s24HNzOyQNbCHA+RG9jISnBrpw6tpVIHxtCXa2I8rWjujiJIG9nkkK96b9axcxAK/Oj1yjJSyLAyxE/b1dU1FWQ+/wz9I0NuFSdz0T/FfraG+gVGqyjlb6eJoZ6LzM/1sfMWA+jwjkeH5AwPdHHzESvhIWZQeQePnrE1PQ0Q8OjXL16nfKyMjIy0gkM9JXIePqUI1kZiZQVX6CqJJOyvHTiws+wdYMp+3asliRjdOBpgtyPEeB6mFAPW3zsD+JpswfXw9txO7qLMy5Hsdm/hb0bV7Frk4VERAGxv2W5Aeaa8ugslSPAzZa708NMDXYxMdjB+HAHY0PCnmhndPg6Y4PtjA92yTAgtjuYHe3h+qVqSrNTWJjoZXKgUyLy9EAnM4OdzAx1MDssw8xQO3PDncyPdDM/0iVJ3gVpv4P5kU7mpHM6mRpsl15DrBy0N1fL0CJQyfWmGq5eqqKjqYr2hgquNVZwtb6cq3XlXK4robUun5bqHCm75UptgYzEgpxdjYx3NjDRWcd4Ry1jHbWMd9Yy1lnL6CeMdHwipiDqn4jbLqR4NQPXhDStorOphLhznvQLc6OlhJ4WYXMWy2xQYXd+sjE7P6G9UdigBZId2VlfwlYzPZYv/YJVisIeV5fIGHL6CH4nDxDodIjzHscJPHmAyoxoPF3sOXxgMzdaS5kZaGJu5ApNVQUsWryYL5YsYcmyxSxeuojPvviM2OgABroaGexq5HpzxScPup7B7lZmhm+wMDHAxHAPk6OCgAL90hKiwMLsMN+8eIzci5cv6OruJr8gjwsXUknPSJLqW8LPh+Dm5oiTgw0+ns5kZcZQkpNMWW4aBZkJnDvjxiYLA1xtD5IQ6kvQqeOccbYmyO0oZ5ys8LLdg6fNXk4d2Y2HzQFO2e7j4JYV7Ny4nJ3rzNi5zpQ9683YaKaDjuLn1BZn8WB+ktmRHolgM6M9zIntkR5mhruZGe5kdqSDuRExCuJ0c3u8j47LNeRfTGRhsp8pcc5wN7PDXZ/Qydyna+ZG/rTfxYIwngUhxwYkzI31MTfaK2F+pI87k0NcbSjHXFcFY00FTLSVMdVVxkxPCVMxp6XI7g3L2WlhynJNESZR5MCGVRzavhZzXUVWGapjpqvExtV69F+vZ2G0m+nBTqYH2pkZuMZk/1Um+9uY7GtloreV8RstjN1oZri7kcGOegY66+jrrKW/s47hjvpPqGOoo4ax7ks0lF7gQnIYU/1tDHc2MtLZIJF3UKj569X0Xamk70oFvW3ldLX82R6+3ljKwPUGbPduQWfZl9ju3cilokz8HKzwPLGHEPejnHE4QLjPCQrSIzmydzuNpanMDjQz2dvC1OA1Vq02ldTy4mVfsnjZYkk929oeoautnsnB67QKx6ulUoopirXooRttzI/3MjEkHJcBZsYFepgd72VurJfbM8P8+odv8HZ3QO7O7Vnu3pmjpCSfpMRYkpJiSUiMITIqDB8vd5xPnsDB/gi+ng7kZcRJkfeirEQpyOnrfoK9W1cS6u/CeX9HSSUHuB3By+EAPs6HOGVnyXHLzZJ6cLfZh4vNPvwcjxHoZkPwaXsCXE+QGBrAzYkhbk0KYvTK3ujoDRZG+5gfG2J+bJDZ8X5mJ24wP97DwugAN0eGuDs5SOf1BnIuxHN7coCb4u4T5B3rYV5gtIf5kR7mhmWYF0STIDu2MNbH/MgAC6ODLIwOsTAyxM0xsd8v/e/RG610NFdJku9KQzlXhQRsKKftUgVXmitovVRGW1Mll5uqaW2uobWxikvVpdRXFlJXmU99ZQFXLlWyMNLLzfE+FsR7H+9lYUxIhH7mJgckzE+Izy2O9zM/1i270cTNMiq7qYSElqT1JxJP9LVJN5cIpdUVXmDixhUGrzfSe62O3qsiqFwrofeqQJ10M/Rdr6W/XbYtbOw7U300VuZInnBJbgqNZReJPetGiOdxzvvZUZ2dQGKYNxmx/kz2CpOmkbuT3YQFuEmhIkPtZRgIbab0Bbs2raChIouxvitcb6viiohKNAnJWEvPtUuSszLYe4WBnquMD/VIZJwfF79tD7enhvnNt29JCA9GXtid1UKVDPdy/Wo9KSkRxMeeJz4qlKiwIM74e+DgeAxbWyusLbcRFnCa/Iw4ctJjKMiMIzPuHC4n9mN7aDuxwe6c87CRbMbg07Yc3b2WnRuNObp3HU5HduBpb4mvozVB7scJPm1HgIsN1fmZ3FsYZW6qnwXpBxNvsvc/jNIP+BfHBAT5ertayM9J4s7sMLPjPcyN98ruNgl9zI0PMTc2IB0T8xKhxQ8+3s/Cp9cRRBeQzp+QXS/CDUJ1COJL5J8QZBLvoYdbE30Sbk/2c2dqQIbJfu5OD3B3evCXeTGKa2Tn/2n8M8Q5Nyf6JdyaFOjjpvg/n+bEZ/1l+9P+rFBtk33MTfZL7/Hm9CCZKVGM9lyVfTficwtt8gkzozeYFF7rQDtjfVclsgzfaGO4u01y8KaHOrl2qZK8rERqSzMpF0X1Qaek37G+KIWLcYH0Xa9m6EYDs71NtFRkY6ixFBPNRZhpLcFQ7XMsTFUpzoplqKuRyb5rNFfmc1WEz5oqJNNG/K/xvusMdrZK73Oi7zrj/dcZG+lkYaqfj9++5mJGHIs/k0NPbQlyLY0lXEgPp6Iog8KcJOJiQoiOCCYiLJCQQB/pOdK2toc5bLUX60M7SIwLJj8tRlpxyU2NJCP+HJ7Ohwj2sCX27GlO21uya50xB7eslILeLsf2SfHGALcTUqhHnBfi40RPexN350YlqfGXP8Kf8J/3/4TbU4OSHZKXkywRUTr3L6+TICOcgGz/0zlCHYsfTpBNIl0v84IIQrIKok72sTAlI9vt0T4Jd8b6uDP+Z9yd6P8F96YGJRIK3JkSkBFUuv4v8JckvjXxaX6qn9vTAxLEUpiA7DOL7+LP38l/IehffD/DfVe5kBIlaRWJkL/cZP/xBv7zdg9zU0PMz0ywMD3OgzvTTE30UFKcSUXJRRyO7SE+3JO40FO0VWUx1tXAcEctMwNt2BzYLC0xCiKaaizCWH0RyeG+dDWVcWuqlyuNJbQJIgpt0lonedPjfe1SVs6QcCh7ZOEeQc6pgQ6+eXKburIcKeVM4Us5LqTFI1dfc4HslHDyM+MoLUgjOz2GlJhQ4iJDiQgLwsfTBbsThzh+eD9H9u/E09WO3PRockVgOfk8+amRZMaHEBfqIz1jeudqIymU43xUkPAgfk7WhHg4EOHnQoiXHVlxIdyZ6Wdhrp/5mUHmZweZm+mVpKMkIf/Tj/CXP4YgorjDctNiuTM9JP0wc1N9zE/1SdJF/OBiXxDq5mQv81P9zE4NSMazJK1mxI8/yL2ZYe4LzI5I2+K17k0O8mB6mHszQ5+knJBoPdyd6uf+5CB3J/q4O9n7CbK5e78QcYB7U30S7k4JySeDeA0ZxLZ4D7I56dgnIv4l/kzGfhk5xU0yOcjNCXFMfA5x7NP2eD/35oZpqiuluPAidxbGpXXgv/zOxPclPtvtmSFmZ4aZmhpmYWqUuVkZ5udGuXdnmtsL49RUF1NWksWJQzspzoxluLOe/vZaJgfayEkJR1NeDiOxbKixWMpVPONxgpa6XG5P99Hf3sil2nzaLgkHqkqyF8XvJCTjYFcLw90iwnFNJh3723l2f5bLlypQXCaH/Jdy7Nu5gZuzg8iJlJ/y3EQyEs+RlxlJQUYkGXHnSIsNJSH6HOfO+uBgf4yTJ6yxP3aQA7s3EnHWi/y0aHKTz1OQJlKoYnGzPcj+bauwt96Ju80BvB2PEHTalgg/RyID3Qn3c6Gtroh7tyaZnx5hYXaMhVkxjjI/Pc7C9CgLM0PSjyAIc0sQU6ikafHD9ElfqrjTctPiJFtDHL8tiDYjw61PEuauJJ0EcQe4OyPINciDmSEefCLfg9kxHsyNStv3Z8e5PzMuEfDe9IBELul1pwe4My3Ub7803p8e4OHMIPc/QZwncH96iPtT4hpxvvi/4lqhQns/QdwYPdyc7OHm+A2Zyh4fkEFS3z3cnOplQRBxSny+6wz2XKO3rYn22kouV5RTX1BIa34x3RU1jLVc4Xp9PddbRBD5BoODfVy7dpWGhjrqasqpKiukpiyf4pxUSi4mkZ8Wz4XkWJLdPWi082UivYynPeN89eAhMxPCPBIY5+bMJI/u36W5qY6slBguV+cz3F7P0PU6Rrqb2L3JHA2RpKu+BNUlcjgc3UNtSYbkUIrP0FydR1NdAVebSrh+qYS+a/WM3rhCb0cTQ92tjN7oYKK/U/p8T25PSTeYvo4S8kvl0NJYxvVr9cxO9SFXU5JOVWEy2enhJMcEkJsWzsXkc1LiZGpMMIkRwZx2tueE9X4s925m63pz7A/vJTclUkonEijJiichzIeTh3fi5XCYc54niQ46TUKoDwnBXlI2z/TwDe7cnGR+dlwi4s052SjbHpPiTPPTfdyeGeDOzCB350a4uzDKnYVR7t8cZWqom/wL8dy/Ocy9hRHuL4xzd3ZIUnfCZhOEuTcjs90EAYXEuzcjCDfMvVkZEcX2/ekJ7s9MSSS8PyO2BQQhx7g3Ncz9yQEJgoh3p/u4Kwg3M8bDmdFPUnNAkrDiJpmb7mN2qleSSMK2nR+7wexoJ9NDwtm4wnhfG+M9lyWMdrcw3HWJoa4GBjvFqlGj5FCIlaSW2mLKs9KpSUvnSnYxt3tGWBic5PqVDtqa25ibnOP27E0m2roZqGml60o3VzPKqPGNId/tHMUuwVwMPE/y+WjyzoRT6HuOTB9/ssIiyElMJjk1mdzsLDLz8mho7+DuVy+ZmpllYnKcyakxpmcmmJ2alJZ9i3PSaG+uoP9KtRRfrchPwkjjS8w0l2Co8hn7Ni2XhI9YaHi8MEJ3azV1pRdpqS/icmMx7W1V9PdcprejmcH2ZoY6W6QUsdHea5KEfvfyIXu2rUJJQQ6lpXLkpEVza2aQOzdHkSvPT6IsP46irCjSYoNIjwsiLz1CqvoShEyJOYe/qKHdtxWrXRux3rMZG6tdxISe4WJSBFkJoWQnR3IxNpT0qCAyYoOluZykcGlsrini0d157t6e5d7tGe7emv4PuHNzitsLExLpbs+P8OjeDG1FF/DfvwnHzaaypyKITramativNcRziynhe5YTfnADY+1NPL0zy6OFSR4tTPBoYYzHC1M8/g/bs/8JMzy5OfsLnt6ak0bZsSme3Jrgya1JntyckvBoYZzHNyd4fHOSJ9I54n+N8WBhlAfzI9yfH+buzCh3p0ckyXhzQoShrkmYGrrKzMAVZgfapIDxRF8TIzfqJTL2Xquhq7VCikvmpMdLj8Bru3qF2PR0vEPCKalppKWtg4ZLrTReaqW8roXc2ibO5xcTlJVLfEExRTWXCEvJwCcmAcezYRzzD+RsVDTnAs9i52CHo5sj1nbH2H3kEGGREVzIvEDrtXaeP3vD61evmZycYnp6Roozz89Mc3N2iudPHzI23M3VpgpGbrTi5XgUbcXPMNFeIqXQpcWepfNKNXcXhpgf7qC29AINlTlSdndbg5CKjdwQS7HXmxjqkjkuwlacH+vnN999g7ebDWpL5SR4uRzj9twI05ODvPn6mSBjrOQRFV6MISs1jLS4IC4mhUiEFGNmvCgn8JIIKCDqn08esSLglDMXEs6TERfMhcRz5KZFk58eQ356NPlpUZJz0331kiQRJwc6GBvoYHiwU8JQfyeDfZ/GfjF2MNh3lcmRbsJPnWSbqhwuazXx3KhHwDYD/DfpcHqlMl7iEWMr1KWHNLYVpUqL7MJDHO29ymjPlV8gEjVHB65Lo7TdLzOcBf60bvqft//z8ZE+2bXDPVd+mfsTxBcs4cYVxv70P3uEfXSZgY5L9F2tkySGKE1oby6jo6VMSnoQ6fpXG4toqy/gcm02TZXZNJRmSwkna7ZuxtnLi7amVmqyC2lOzWOo/BJDZU10Vlymrqqewpw8uvOqmS5pZTinnktx+TQ2tNKeX0tnSDrlfuHk+oWQ7nOWpJBQUiIjiHf1IOmkM5kOrhRFxJCSlERxXgEv7j5idmaG7q5uem500nujg76eTumpVwvzk8xNDdJcW8C6FdoYay+T7MWzng5cbShhYbqX27ODdLWWU1tygUtVeTTXFEqLAV1ttXRdraenq5n+G63SbzM12MnPH15SWZCB5lI5dJQ+56jlTinYPT7Sw8tnj3j//gVypTmxlGRHU3wxhnxhLyYEk5IQQEZcAPkZEZTlJJGbGoObnTXHDmzH4agVJ49YSq1KUuKDyYgPISs+VErXKsiMlkhcWZAq2XiiNuLB/Bj3hY32FxDq9+7NUe4LCTM3KpU53lmYYPTGVZrzMmkvuUhHcTrVqeeJcjrCtbwk2gtSaM2JpyUznrFrjTy8Nca92Qnuz05xf3aS+3OTPJib4v7c1P/xf4q5/7f4z6/xHzHC/bkx7gt7a3qSuzPCduxjflLEEPsle0oEgcfFjTDQyvhAC6N9l5nqaWG8u4n+zgYp9nfjahXtV+o4an8C7ZXLWb52I7aup4nIvEDf0DjX27spK6siOi6JjKIykrKKaLh0hb7BEaZmb3Lv/hNKKmqIS0mj5XIrvT39dHf0UFVdg7O7E4F+nqTFRUl9kexOHsXW7ii79+8mMyebx4+e8uDBQxYW5phfmGR+flIaF+ZmefXsESO91zDVUcZIcylWO9dKSSi9V+qkhBSRoFJbfIG6kgs0VGTTVJNHu5RVVSMVWYmMHeHAiJv268e3mB3rxdxQETOdpWxda8ToUAfTE4M8e3KX7799zZtvXiAnk4qRFGSeJz8zgrz0cGJDTxPgcYzzga40VeZKMaPzAR4c3LEOd/uj+Lq64mZ7jITwQLJTw8lJCCU/NYqoUC8qCzP46u7c/2sCyH7gMe7MjXN7foK5qREyUmJZmBiS/ejC85uVnfNfr/v/7389XBj/f8AED8WNI8aFaQn3bk5x79Y4925P8OD2FI9vT/D41iSPbsnOFer7wc0x7t0a5d7NUe7MD0sQjpQIp8yN3mBmpIspkSI1cJ1JsZQ5cI2x/jYmeoW6viSttgi7UXic586fw2DtWrbsP0Bg0DkyLuaQnVdAQUEByUnJXMgpJCG3hHNp2ZTVttB2uZ2egTFar3aTlJ5DQEgkF/MKycrKITExmYSEJFxOneaIrQ0Ozifx8HAmIT6GvJxsevr6mVi4w9TdR9x7/Ii7d29y+84cN2/OM3dzgZvz89yZn+XNq6+42lyPntpign2dKc9JICflvBRMv36pjOKL8VQXpVNXdlFS01cvlXG1qZyOy9X0XBVr0y1ShOT966fY7dvKGs0v2WqiRs/1em7NDfPw/jw/fvcNH9694N07IRlz4yjOiaFItKrIiqYqP5HkKH/iw73paCmV7oCRG21cbazkhNVOTh6zJNjPDy9XJyLOektvLic+jKyE85JI/uru9H8hzP8b3L85xa3ZcakxwPR4Hw9vCqn3fyKbkLoyyftg/s/HBbl+OUey7calUThBD26N8ejWFA9uTvHg1jRPbs/y4PY0D+7O8ejOvDTevzvHvTtifp6HYu62OHaTJ3cX+OruPM/u/Wmc49n9eZ7dX5BB7N+d4/m9OV7cn+OruzPSd/Hk9iSPBYEXxiTvXnjNc+M9TA+1Sw7OkAh9dLZRUlbAjiNH2HHoMK6nTxF4xpeGulqa6hspyMmluqKK7JwComKSyMkqoaiojLLScirLq2i7fIXcgmLKKqppa7tKfX0jDTUNFBcUEXwuGGdXNwL9zxASHMS+fbswMTHE0dGR2YVbvPnwnnv3bnH37jxiNe7WnXkWbt+UivJu3Zrn+bMnzEyOkBwbxnD3ZaoK00iPP0dqdBBZYgUnK4GyvGSaa/NprMyjub6YtuYKulvrJcn483evyYwNZY3WF2w2UeRaUwX35iZ4cGuW7z+85tu3L/nuw9e8fv4QufKL0VIpYo7oKPWpU0BFfiJXGgokGyc/I5rmqgIpVJIYEYjDiYPEhJ8lOuwsqbGhFF6IpbIgjbvzozy5M82jm5MShBT5f8KDO1P/AQ/vTvHg7hQP78/w6N48uRdSmZkY5MmDWR7fmebhXRke3ZmW9gUeiLl7Mzy5N8PTezN8JXB3hmf3Znn6cI4nD2d5+kAQ5ZaEJ/fmefbwNs8f3uarh7f46tFtXjy8zbPHt/nq0R1ePrrHi8f3ePnoLq/E+PQ+L57e5+XTu7z46jYvn97h9dN7vH56n9dPHvL6yaP/BDH3gFdPxLV3ePnVHZ5/dZsXz+5I1794epsXT27z+skdXj2+zfPH4n/f4dmT2zx/dItnD+/w+MFt7t8WWmWG6eEhenu6GBkcZGxwiLnJcabHRxno66Osro6uvh5mZyaknNPh/l5u3OjiypUrXL16hUuNjcQlJEhPw2253ERZSSmpGelkZmUQHRvB+YgQ8guyePnyOe/evOHl0yd89Vg0cLjPo0f3efT4IQ8f3efxJ7x88RXfvv+GrustknS/3lxOaV4yWemRZKdH0lSdK6G5vkgiW3dbrdRB4vHDOaloa6+ZGtuMlWmsLuDuwiR3b07y4bvXfPfhJR/ff83vfvyA++HtMslYnp9AZV4chRnnqSvLpL25XLoDUs4HkBEVTHr0WcmdL7oQR1lOMqVZiZTlJVFRnElVSTaXa0t4emeGr5/M8/arm7x7do+3n/Du+X0J718+4MMrGd6/vMeHV/f48PIe376+z3ev7/PD63t8980jvn7+kJryIt6+esr7r59J+O71M75//ZzvxV305iU/fv2CH99+xU/vn/HTOxl+fPuMH998JeGnt8/+Az6+ey5B2n/3jI/vn/Pju2f88OE5P377gh+/fSXDd6/54btvJNXxC759y4/fvpPhuz+Nb/9/4qfv3vLr79/y62/f8PH7N/z0wxt++v4tP/3wjp++f8ePP7zlBzH34zt+Fvjp/Se84+NP7/jxp7f8+OMbfhL7H9/x009vJYi5P+GHH76Rbf/wju+/e8+PP3yQzvntb7/lzi0RWG7gb//6d/zm5+/43a+/5/c/f88ffvMDf/j1T/z254/8/MP3fPz4LT99/MBPP37g4/cf+On7D9LrSfjpW3766SN//Nu/4u/+7m8YHBKxzR6mJgZpayyjpjCdvPQoIs6eluqkW+tKuNpQwdWWakZHOvn21SO8j+9ki/5iKvNSuXlzgltzY/z07jU/ffsNH759xe/+6jcUJJ5jt/6vkKsvTyU3+SylmRE0V2ZxqTpXKsaODvDgvP9J4kM8SY8MojAtior8FMpykyjJT5YaRdaXZVNfnk9dVTYLE928fXqbD8/v8+3L+7x/fodvXzzi/YuHfHj1iO9eP+GH10/54eunfP/1Awk/fPOY779+zA9fi/Eh718/lshRV53PrdkBfn4nrnnCD2++4vtvxLWCbC/44d1LfvjmJT+9fc1P717x09tX/PTuJR/fPuPn9y8k4v1p/M8Q89Kx9y/4UZDyw3N++vCCj9++/DS+4OfvXsmII0GQ5/1/wI/S3Cf88J6PEt7K8KO45o20/Zsf3/8X/O6HP+O337/7Bb/74R1/9f0H/vDDe37903t+/eMniG0J7/i1IIcgzEdBFEFQGT7+9IGPP30rEevjx/f8/vc/sjA7zlB/N3/1h5+lOYHffPye3378gd9//JHfffyBX//8Az9//JafBRk/fssPnwj58bv3fJQ+27d8/PEj//av/8y7999ILRH7e7uYnB7mQnIUDlZbuVpfTH1ZFtmZkVy5VM61y9VSnsOH119xraGInYbLKEqNYH5+mIXpYX765jU/vn/Dd9++4W9+91t6r1RxzEIBx02qyBVlhNNQksKlClnwW4RoLiRGEBvkQfw5b9KjzpCVeJYi0SkhL42qgjSqC9OpLkqhtjSLxkohovMk1JfnUFN8gdryHBqqC2itK2Vi8LpU0Xe5JIkrZfFcL03kenki18oTaa9IobMyjesVKdxoLObpnWmePxA21zzPP9ldQu3+gvszPLsvzpmVjr94MM/Lh/O8eCgbXz5c4NWjmxL+vC3GP8+/fvznY68f3eTrJ7f5+umn8cldac30m6d3+ObpPQlvn97l7dM7vPvq7idpf5c3X93nzdOHvPnqE54+4O1XD3n71SNpfPfsMW+fPeLrF0LSP+Ldiye8f/6Y9y+e8EFsS3jEB4GXT/jw8ukniJv30w388oEkWb59+VSCdPzT9X+C9Lovn/L25RPevHwiaZN3n/DNqyfS/NtnD/nq/iz3bwrbeYibw+10NJYy1HGJka4WJm60MtHTymRPG9O9bUz2tjEycJ3xkV6++eY1333/HZ0dHXRca6e7s4ueG+309XYwNjlKfXkhroc2cbW+iCsNFRRmxNPSWCpJv5dP7uJxyIKMiFPMT40wPdHPh7cvJO3y3ftv+PXH73l8dxq/fab47NXDZ68uctebSmipy+NC/DkuJIQSH+5HqL8riaE+pEeeITv+HKUXYynLS5Ran9UUpFFfmSN1DRDZHo0VBbTU5NNcJ16nRCLnpap82urLaKkpYaLnGuPXa7hemUJHdRo3qtLorUqjr1o29oqxJoXeunTJ8P/2/Uu+eSF++Pu/qPr/guf3eP/qLu9e3uHdq/u8f/WI9y+f8P7VY96/Ej/iAz68fsy7r5/y9punvP36Ke+++Yp33zyT8OETvv/6xS/44ZtX/PD1c35881RS5z++ESr+OT+9k6l0YQb8Z/UvHf8FwgSQnf/nY6/4+O41H99+w8e3b/n49s2n7W/48d0bfvzwlp/ev+Xnd2/5+b3s+A/v3vDDh3f8+OH9fzAJfvjwVnb+pzlhBkjz/wcTQYZ3/PThG8nEeflonucLo3w1PyZlt1+rzWKiq1bC6CeMddUx2tUgpYuN9zYxNdbHjz9+5OnTrxgYGGRkZIyhoRFGhoYZHhhkaHCAsfFhupvr8bLaydXqPDqu1NF2qY7nTx7y7NFtKrKSGBu6zvjYDel7l8yTb9/ws9Aw370l2s2S09uVCdirS/B+PeSuNBQRGeRGTNApzge4ERnoRkKYJ+lR/uSnhFOeFUdFdgIVOQnU5IrSxhSaqnJorMj9JBlzuFxXRGtDKS0NxdRXCamYR0tDKc11xfRca2Km/wodNRdor0ylW5CyKpmuqhR6a9Lor8mgvy6D7uoEHs4O8N27t7x58Zy3rx7w5uUD6e5+/+IB71/c58NLITGE5HjM29efSPb6K969fs4337yQxnevn/FWzH3znPdfi/0XvPv6JW8Fub5+wcdXL2Q2p0Q8mY354xtBnBcSgf6f7M7/f/BfrxOvKcNHYUa8E+Nrfn77jh/fywj2k0TINxI+vnvDT9++5Ydv3/CDsFX/E7n+K+H+v+EdHz+8kW66Fw/meHZzjCcLo4y0N9DTXMhEtyBgLePddYx31zPeLSPiRPclxnubuTkzys8//4b5+QVplUaM8/PzzM7NMTM3x+zsPFMzc0wvLDA52o//if1crs6l98ZlZsYGeP7kHhNDfYwOdfP6+ZNP9qjsM/z1739L48UoPDcrEbRfj8C9OgTu1UYuyMuO6CB34oM9iA31lHqrXIw5KxX/lGfHUZmbSGVeElWFKdQXplFfekGSgpfry2iqLpAi7631JVJnCbGmebmmQOpiKvY7LlXS3VrL/OAVekX5ZVU6XVWpdFen0SMkYnU6fYKMNZn0VaYy3d3Aj9++5O2rF7x5/pR3z4XEe/CJhDJI6u3VV7z7+hO+ec6Hr1/w4Zvnkj364zdf8ZNEiq/4+PUTfvhGzD3n19+85Oc3QkoJvOLnd1/z87tvPuFrfn4vICSZsClfSisGH9+/5NffvuLX376W4cMrfvNB7Iv5F5/GV/xGOucVPwt89wnSsb/EK37z3Wt+8+3X/Oa7V3z8/mt+/O5rfhLbH17x84fX/Pz+G34SEk3Ya5/I9/ETJPtVHBMkkxypN5J0+eXY9zISimNiXpD61x/e8P6NIOMsT2+O8Xh+hIErVQy2lTF5o57xHkHCOsYlUjYwJkojJDK28Pj+TX74/iMjI+NMTU1z9+5dqQ/Tnbv3uHvvPvfuP+DufTE+5O6DRzx8cItwtxM0lqYzNtTJcL8MTx7c5OcfP8gcwe/e8Iff/VoyBwL3GBBhaUC4pR7hB/UJ26+PnHBQks/7kh4VQE58CAUp4VRkx1Gbl0ptUTrVxanUlGRQX5pFc1muRLaOpmo6W2ql7OfW+lJZ5P1yNV2tNVIWdLNYMG8RCZY1XGupZuTGVXoaC2krT+VKZTLXq1N/gVDd3TXpdFQLu7GEOwvT/PD2a94+fypl84gmU23NVbS1VNLaWC7ZocJ7b64tpqm2iK62Bm5cbaCpWtSeFHOtsYqkyEB2rNIj9owLbdV5NJZeID7Yk+NblmO3bTX2O8RjdJdjt9UM+23mOG41x2GTGQ6bTHHcbIbTFvNfRtdt5pzevRKvfavx3LcC7wOr8DmwBt+D6/A7uJ4zlhs5s3893nvXcGrnSk7tWIH3vrUSPPaswnu/BWcObSLQegsBhzYTYL2Fs0e24Xt4E9WZcTSXZtJ1qZjuyyJLupK58TGmxoaYGhtmenyEqYkxCdNTk0xPTzMzPc3s1DRzQlrNTjE/O83C7DS35ma4NT/LwtwcC7NzzM/MMj05ztjoEKP9XUwNtUuVewUZUVKtjSChTDXXMSLV39QwIorGOmRx5RdPn/D2zQcGBsRDzsdYWLgltUsUNVMPHj/kvli9efyKB09eSYkXD5694O2bb8gM9aU0M4EpkeY2O/mLRBfmxE8/fJDMkyzfI0QcMpThsBHhVvqEH9JDLjUmgKz4cxSkiqW/eGqK0qgvE7bgRS5VisKiPImArWIhXNQTN1XSe7VBalXRe/0SHS3VdLTW0HWljp5rdVKMqb2lRrZGKeJNLbVSpsvTm+N882SW717dlxnuLx7z7ctPePVEUq/fffOa//43f83f//EP/P53P/P29XOaGys+NZsqo76igPqyHOpKZWisyKcgIx6bPWu4XJpJS1kGLdUXyU0KZaehCpar9CnLiKG6IIX8pHMcW6+Hlaki1suVOWSujLWZMkeWq3LEVAVrYyWsTZQ4YqKIrbkKxwWWq3LCXBkHC2Wc18ngtFEVJ9GhdqMGzps1cduijet6DZzXqsmwTh2ntao4rVPDZaMWLhu18diqj9c2fU5v0cVjq5607bLFkMJ40csxjN6mUkbaa7lUns/QYD/jo2OMjUwwNjrB+Pgk4+NTjI9PMzE+y+TEHJOTQnXeYnZ6nvmZeebEQwHmFpj7hNm5eeb+hPmbTI4OMTHYw/RID8/uLvDxvTAP3vPTh3d8/wk/fCvGt3z//g0///gd//qv/8r3339LfX0t165d4fr163R1dTEyMsTc7Dy3b93j/oOHPHj6FfefveD+Vy+k5mHPnr9gdnJUKkN9+/XzX1TzT9+94W9++xuulaZIJEyyX0my/SrijpoRc9iEmEPGyBVcOE95XqJEwMu1ebTWFnO1oVSCWPLpFJVeLZUS4Trbauhur6fvRiuDN2TZGENdbfRcv0R/ZwsDXS30dzXRc10U1zfTe62JjrYGZkY6ebQwyrO7E7yTHJP/g3Py/AFfv3jMH377kX/427/mj3/1e37/h9/S3dFKo6gtqSmltrqE2spi6soKqC3LoaYwEy/b/VJzUdHu7mplLpcrsmksTuPoZlPWqH+O1/F9lGfEUZQaiffh7ezTW4S1uSKHTBU5aqaErbkqx0yVOGqqyHFzZU6YKXHcXJ7jZjKcMJfHca0qzhvUcd6ohrN4vosYN6rhulkL9826uG9Qx2m1Es4WKjitVcZpnSpOa9RxXq0iPfnAdaMm7pu0cVmvjvM6NezXKGO7VvNTO74oRq9WMtFZK4VJetqvMTU1yfiEUI8io2aWyekZZmZkdpogwpyQfIJoCzeZX7jLzZv3uXXrHvO37jJz5wHztx8gngm5cPcud+7cY2pihBlRezM6wPPH92SxxE+xU8kx+lMcVex/+5aPH3/k//q//o0P7z4wPTnF5MQEQ0MD9PR0093dRU/vDfr6eunr76e3t5e+nm4GB7roH+hloL+X3u5r3Ls9y0/ffZCcMUHwjz9+K0U90tx2kOlsQaqTBakOK0lzXEmynTmJJ0yRE8FKoVKFRBOS7MaVOnqv1dN3TUYmqUeKhBZpe6j7GhMDIhPnBhP93UwMdDPU28FQXwejA12MDXYx2Hud3i5RhHOd4e52pga7pTSsRzfHePvVnf9KxGf3pTDFNy8f85ufvuO//93f8Me//gN//3d/x83ZSZobq2lrbqDlUjVNDeU01pbQeqmSqoJUrDbosstAgWAHSzoaSmgrL+BqdTHetvvZoa/INjM1Th3bjf3+DViv1uTISmWOW6hxYqUKNquUJRw1W8ox86UcN1/KCfOl2Jgvw8Z0KbamS7EzU8RJ9PWWiKUiEdNJkG61Eq5rVSU4r1bGYaV4lqE8J1co4LhCEUfRa3u1Ms6rlXDbKJOgp7fqcHqLDh47jfDdbYLTBm2KYgOY721mtq+J2uwYagpzmZkUj0CZ/US+WebnZOSbXbjJ7Pwd5ubusTB/n1s3H0gS6u7dB9y/95h79x5z/77oPvwVDx485+HDZ5JtJ7rqLoyPMDsxwpuXX/1ij0rq8xMZxSggpOPvf/sb/vVf/o2XL7/h4f0nPH76nMdPXvDk6QuePXvO8+fPefb0GY8fPObW/C3GRofp7rpKQ30VcbHhFBVm8u3b5/wsXvv9G354/5bf/fonrhXFEX/CmHQnC3Lc1nLBeTXpTv+fut47rOosT/f1Pnfm9vT0dJVVRkAyklTMCck55xxEUMBAkJxzFMkZc05IjpJEBbXMCTCHCm0lq6u6p8/MmZnzfO6zFnZ1n7nn/vE+a7PZwnbz/r7h/b5r/XTIEqvrUuZcPH2Yi2fECaKHpQVK2qDOH6btwjHaW0/Q3npylmhtwgZ2RoZf0T0N9LXR39vGJbEZu/sivR0X6Otqp6+rg77ONvo7Lkr0yfX87Kx4pJtHN8fkROa/k1Fob1MPb0kNSkTGD99/yx9//JHH9+9y4ugRTh4/wKljLRxraaT11DHuXL/K3mAXbHTn4qC3ALfVKhwqTedYXTFnWirIjtqKlc5CTLUXEGKszlZxs/JNygRuViZggxIB60XKXICPwQLcdD/FTecTPLQ/wVP7U9yX/h5XAUEovbky8vms/BzfVfPxXT2fAEGoVYsIWL2YoHWKBK5VwH/VfPxWzsN/5Xz5OGD1AgJXzSJ0vSLhhqpEGKqw3VCJMCM1woxV2GaowtGSJAZbWxhqO0RqkCP+Jnr0XjzBLXFg651bzDx5PIvHT5h6PC3ruJnpp0xPPWXqyUump17ydPo5T6dnn5+ZeS7xdOYFz5+/4snjx1wbHWJybIiJy0M8n3r4qyz08umTX0koZCNJxufT/PD9t/z5l3/l1at3vHn1jtdv3vH63Ve8+vIrXn/1B15/9Z5XX/2BV19/w9uv/sD7b77j/Tfv+f79d/Jv9urVMx49ecjLmWe8mnnKV69e8viL6wQYixuyLyfbz4AMDx3yfJaR461PjpcOBd66zBnsEWednKG/8wz97cIefor+9lP0dJyiq+Mk3Z1n6OkUJwFckEdRDPZ1MTTQyZDci9HN1YEeLg92MzLYy/BgD8MD3QwPdjM61DWLS72MDQiXdQ/Xh7u5NzH0fySjiIxCrpl58oCfvvsDP/34Hd//8B3v3r3hyuXLTF6b5P7d+3z91Zd8+e4tlbnJuKxdgvsaRTzWKOC07DNKooM5f6iBEy01HKjIx3q5Mu4rFhJpocU2Y3W2mWgQbqJJ+BZ1wo00CDdSY6eREts3LSF8oyoRG5XZvmkxoRsWErpuAdvWzmfb2gWErV9E2LpFs+v6RezYqMD2DYvlGr5ZiR2bFNix/q9Y/DdsUGT7BkXCNy1ht7E6u4yUidi8iAjDJRKRlrqcby5m6MJBeTpEuKUeW7cspfVIC6+fP2dmaoapJzM8eTLNi2cvefXiNc+fvvgbnr3g2TOxvuT5s1ezePpxffaC169e8/jBAyYuDzN55RK3Ji7z+pnowv8WGaVu+Wyat1LbnObVy6f88sef+OOPf+Tly9dSa3zz+q2cxLx6I/COV2++lHjz5kvevn4nv//uzVdMP34kPaqT45fkVOnV8ycy7X/39TtaG4tljRhurEec3SqKt64iw02XXG89Cvz1yfTUY86vG576Z7dAijP1ft2NJjYxDXZyeUDsOelk/FIXl4d7uXKpVzqbhQvl2lAfV4Z6uTbSz9XRAem4GR8e4PLwENek33Bg1l0z0iu3AXxxuUdOOabuTzB1b0LOsZ+K+fWDG0w9us2TB3f59ut3/PGn7/ju+/f84Q/f8MXN60wKSeHKBF9MTvLw9i1StnvjKGq1VYtxW70Yl2WfscN2LadbxDRAnDfTiI/5GkK2LCHaWped5urstlRjj7Ua0Zbq7LVUJ85Sg1gjZfYYKhJjokK0sTJRRors2aJIrNESokyUiDJVYa+5OtGmKr9ij8kSIrcoEL5pEREfEbp2LmHrBD4jbN3nEtvXz2f7uvnydbuNlxBlqixljD0mKuwyUiHF05Du49XyVImGnF0ErppPlPMmrg738er5S2ZmppmZEpji9cs3vBJ48Ve8/v/Fm5dvefNGjAG/5v69W1wfFw6kYR7cGJdS0N9rln+NjG9ldHzM2zev+cuf/8R377/n1evXvH7zltdvvv47fPn/xds3vHv7jru3bnDqxCGmHt2VI9K/Sk1fvnpGQ5y3vOuriIZRNrqEGeuzL2wzub76FPrqURJowJyrQ2LrYgdXpGdQmFMFeWYtWBOXZ/18k1cGuCmsVFeETeoy9ybGuTtxmbsfV2GpuiOtVWPcvjrGHfHcxGVuXxvjnnj9tcvcvXqZm2PdXB/p5NHNUUnCmbvXf42M0/duyRHW4wd3+PL1C/780w8yVX///fc8fPiIiYkJJicnmJy4ypMHD6nITsRa7xNJRs9Vi/BYtUiS8kBpBqcON0qXeUakN6FblNlhoka09VIS7LSJt9Ik0VabJDsdUh10ibPSIMlKnWQrdZIs1eSaaKE6C3NVkm00SLTVJMlWgyQbTVLsl5Jkq0m8lRqJNhrycYK1GjEmikQbK7DHaDG7tiwkcvMCwjfOJ2LTQiI2KRBtpiJ1NUHKPcZL2GGoRPYOZwbONdF/ron9ewPwX/E5GaHOPLx7i5fPX8hULFLu1JMpWvYXsz89juayTJr2ZdAsTtwVe08q8jlcWcDR6iJO1JVwsr6U0w2VUvU4e7ie4c5z9HcIH+UpHt++xtvnz/6bOP5RnxQ64LPHfPP1V/zlz79w/do414YHuHF5iC+ujHFrfIS7N2/w+PFDHj+6L898vzM5xhc3x7l9c4K7k1fov3iWrtazvH0lZuiC8FO8e/OCJ7evUBC4gSKfFRT5r6LYfyXp7isJ2qRH2Y5NlGxdQ2HgSubcEer8jVHuiXntF1d4eEtYpYSNSticLnP75gi3ro/wxfUxbt+4zP27kzy+e2N2bntngqnbk0zdusGTW9d4fFtYpK7w8ItxHty8wpMbV3h88yqPBL4Y58Zoj9xN92higJm7V5j6uzQ9fU9IPreZuX+PF0+n+OnDt/z4wx/46cOPPH82w8TVCSav3WBy4gpPpx7L7Y/OKxVxXTYXlxVzcV/5ObZLf09csB0XjjZLSakiK4YQExWirLSIc9AnwV6bRNulpDjokeG8nAxnPUmmDAdtMh10yHbSJcNei3Q78ZwGafZqZLnokuW2nAwXPTJcdMh21yPTRY90J115+90sZx3S7HRIstYgUUgUZkuIMxW3V1Ml3kKFOHNl9hgpEGWmwk6zJezYvIiQtZ/huvQfSA+x4WxTIceqsknx2EC0sYqcTMw8e8bM06fMTE/z+t2XjLWdZJexBsGb1Nhrv4xkFz0SHXVJdtYj1W0ZKc76ZLisINPNgGQHHRLExWOnTbLnetqPlNEmTkQ7ViNn3YKMwpk0O+WZ+ltHLRqNZ4/46Y8/89XLGeJc1hJjoU6stTYx1tpEW2kS7bSaU3W5nBXHCR4qo2K3E6VB6ynetoHCbZs4VpEqfZvv3kz9SvKvv/6SKz2nyPFYRpHvCknEYkFIPwOKA9fgtX4pOUGbKN++gTmLfvd/s+Cf/oH5v/lH5v32H/nnf5zDb/9hDgvm/R6dpcoE+7myI8CFlOjtRAS4oD3//2K14j+xUe0TtmjNxVxnLlZ6n2GzcgEuaxTxXKeI5/rFeK1XwG+zMt4bFuO9XhFng3lkhLtwe7yTu+M9TN+ZJeOUNCDMklE2MffvyfHdD999w4cfv+enHz/w1bt3XJ+YZHLiJlevjPPo/n1uTY6z09UQJ/1PcV0+Dyf9uVhr/hPW+osoz06mobKIrOgAtpkKMqqz21qL3eYa7DJTJdpcjVgLdaItVCVJ9lppsNdKkwQbAVUSbdVIttMk1UGLLNdl5LgtJ8ddn0w3fbLcl5Hlqk+akw4ZzrqS0CJaJlirk2CjTpK1iLKaJFloEm+uRoKFOvGWqvI1ac76pLgsI8VFn0zX5eR6rCLPw4A8rxVkexqQ5raaCwfKefXyNTPTM0xPTfH2q29ozopitxiZGWqy3VSXVNdVJDktI9lJn3TXZSQ765LorEeyiz6pgqgOS4mxUqVkmw3dJ6u4cLCMwdajvH36iDfPns2OGn+1xX2Mjs+f8PrlNP/zP/8Xo+2niTBWZZfVUnaYqBK2SQnfNZ9jqPyPxAXZ0nuigc4TtdSm+ZK/dRMVkeaURZhxqDSGuxNDvHvzfLYEeDHFt199RU9LKVnuWhQHraIwYCXFAQaUyHUNZWEbCDHTI85zA3M0F85FY/7nqM//FE2Fz1mlp8mieb/nk0//kZUrNImO8Ccqwp/k+HCMl81ni+a/YK77ORZ6n2ElCKD7CXa6n2GnPw+7ZfNwWP45Tgaf47ZqPi4r50m4r1mEs8F8gix0GO86wu2xTqZujTF959rH6CjIOCFnzlMP7vHk4T3ef/2Onz/8wIcff+Tb999y6/pNJq5ek+cC3b15lelHjyiICsHT4DMCN4tOWZXgzSqEmajjuFEN+7XKRFprs8NMg5AtarKbDtm8hOCNC9m6aTEhGxUJWr+QgNVzCVm3gK3rRNe7iO2bFNgqGpeNC9m+WYHdIrKaqRBrqUqcjTqpznqku+iS6qQlr/Zc92XkiQ7RQZscAaelH6FLloiejjpkOGnL1xV4GVDgtUIiz2u5TFkl/qsp8FlJppsuWQEmDPV08ur5K55OP+XZ8xc8unODZPcN7DVfQoy5Els3qpPovIIEh2XE2+iSYKsny49YSzViLFSJsVInxlKNbRsXkLXdgZayVM42FMpDCL76aMAQAvesT1PUiyI6inn4E968fs5//td/yjsrBBoqsNNai10Wauw0UZafgShpYqy02SUuZFt1mWmSnLTJ9llNjs96DhXHcG9ymC/F+O+j91NY1Vpyt5LmpEa6iw7prjoku2iR7KpFmpsOac5aZHnpstdRmzm6iovQWjgPtQWfoqa0ED1tTZYofY6mOEVLfR4rlP6FlUq/ZZPGJ1gbKGC/YtEsls+XxHNetRD3tQq4rFqIk8F8ubqvFU3FAtzXLMRj7SIZKT3XKGCnO5eTNXncvdrDo+uXmLn7d+6ce9fk3HnqwV3ZxHz55gW/CDJ++MD7H3/g1p3bMipOXBnj5pVRph89lOdth5mKkZIWMZaziLZditsGZWIdRDrTJ8FBmyQHbeLtl7LXarZxibVUIdpCgV3GC9m5aRGRmxYRvnEBERsX/vpY1Ht7Ni8kzmQJCWbKJJgrk2CpTLqDlkzhGfZq5LoKkumR76EvCZjrrE2BmzbFntqUeOpQ6qFDiZs2Re5L2eejT2XgSioCDCj3W84+3xVUBa+jaus69gevpdB3Jftj3Ll9c5JnM8+ZfjLDm7dfM3juCEk2GrIcyHbRJWyzMjF2y8nzXU225wpZQoiomuG+nBRnHQnRtUZZqNCSHcHAOXGMcym3rg7ypagXhUHjoxljNiLOkubl8ye8f/8Vf/rlB4ojHch00afAZy1FfqvI99Qny02HHA89CnyWU+jz8YJyX06++zJyPXTYH7CewwW7peP+q9fPPwroM3z96jnH0oPJ89aW6TnfexlF4md4L6PQR5ciX20KvJaSL7ppX0d71ulqoCoipOoSVBb/MwZq/4zh0s8wVP8cU825WCz9FEvtudgvW4i9/kIcV8zHcfnnuBgskLKKgGgkPNYswnuDgiSgSNPeGxTxEkRcp4DbmsVYLv1nCqP8uXeth7tX+6RP8G814zVm7t1g6v59HgsP39OH/PThez788IGfPvxJyhtXLo8yOT7K1bFhHt29x/DARRI81hFjo0mslUiTIo1p4rNJlVyv9WS7ryLDVaTXZRIitaY5aZMu6jxBUitVkqxE06JCormSRJzJYhLMFIg3nb2xeKq1GilWaiRZKJNsuYQUK2USLBSJM1Mg0UqJJOslpFkrk2SmSLK5EqmWS8iwUSHbXp1cR03ynZZS4LaUYk9dKgJXURm8hqqta6kKXkVduCH1EcbU7thIafBaWnKjmH70mKePn/L0iXCIv+JwdjhFLpoUexpQ6LGCJLul7LLQo2r7FipCNlHsv5rSwLXs37qB0sA1szWZ32pyfVdztjKV/tPiBNz9PLo1zpfPnskR4P/JASTI+cdffuHN0wdkeq8kQ1xkXvqz9d1HEglC5Xjqku+uS4GHHnnueuS4aJPrpkWGqwZNyT5y7Pv1q9cfa1FhCn5OS4Y/Rd66lAWvZV/gagq99Sj01pfPFXnrUOqnT4mPLnNWrtBGQ3Ux2lrKqCr+nk2q8zDVmIeR+u8xVZ+LheZcOcu1152Hvd5cHJfNklCkXkE8r/WiTlSSpPPdqCSJ57VuEX4bFxNoqEjA5iX4r1PAb62iHIdF2q9lou84t8e6mLoltihcY+buzVntUUTHu7eZuveA6Sf3+eGH9zIy/vjTz8xMT80aAsZGuTw6zI0bN+WG87wwFymVxFhrEWWrha+JGpF2OuR4rSLdVY8MJ13yPFeS7bmSHPHhuevJK7nQXZtcew3yHbXIs9ekwFGLAsel5DpoSmTbq5LnpE6xhw75rlrku2pKCGLlOmuQ5aBKjpM6OY5aZDlokGSuQLLJIpKMF5JgMosks8WkmCuSZrWEDFtV8l20KXDXo9BTX2J/wGoqt26gett69m9dz7mGUl7MvGTm8QxPn77k4Y1JKsJMqQxaQ3XwbATdH7KWcHM9ircZ0rzbhLoIQ6ojNtMcZU7zThNqww2pC99M/R4Luo8U03NiPz2nG+T8X3gmhX/yf4uMH2s7Mbr7j//4L652HyPVWZt87xUyCgpyCxKVBq6enZi4apHhqEa2k6bMDPnu4vPRIdN5KfvCzRkfPMu71y958/wpb58KR/sLDmRtJd9Ll9IgA0qDVlK2dSUFfnoU+ehS7K3zKyHnrFuph4ryQtQUf8sq9U/ZrPYpRqoCc7HQ+AQrTVETzsd5xSKcls/HafkC3FcvwmuDAt4blfDboITvekX8Ny3Gb6MCPuvEqkiAoSKBhkoEblAgaKMigesVCFy/mIANqnQd2c/t0U4e3hyWs+rZebWIkCJt32D6/gOmHt7j+2++4U8ffuann//Ii+fP6e3u4fL4OGNjY4yPXWbqwQOaChLYtmE+kaYa7DRWwXOtAqlu+uR4riDHzYA8z1UU+a2mwGM5BV6ioxMp0oBCVx3ynTUpdF1KkZMWJc5LKXXRptR5qXxc7KbFfl99qgMMqA5cKVEl1iCxLqNcfC9wlfy6wn8FBS5a8uflOqiR7aBGhr0ymbZLSLdSJsVCkVRLRTLtVEm3UyPZXoVkW2UyHTXIFenPTYt0r5V0nz/EKyHpPH7K2xfvGD3XSKnvMuq3baJhuyENO7bQHGFMnts6Mn0MOZPmxJE4Ww7vteF4ogMnkhw5Gm/Hkb3WHEv1ov/oftqOljB48SBvpx9IE68QuUX6/Ku++Fd8+eYl//Ff/4sLNRkU+y2jImwD+4LWSBLu37qO8pD1kphpLpqkO2mQ4ahOtrMWeQJu2mTYqZPlvpK+UzW8ff501jA8M81Xr55zPH8XJQHL2B+0mv3BK9gfsoqK0DUUBehLQpb4ivSvw5zleqpoLfxn1ij9jk0qv2Oz8j9hqPJbtqj+M6Zqv5NR0Xrpp9jpiuG+iIqLcV21GFfhWlm1QGp8nqsX47VmPl5rFuC5egGeaxbIyCgQsGExAYKE6xUI2KiE16oF1KZHcOdKFw+u9TFze9bGL8g4I0Twezd5cu8+j+/f5su3z/n5p5/5/sNPvHn7hiMtTUyMDDM2NMzIpUs8uHuX9qPN8mdvNVw0W7Mu+5ydRorslHKKErHmysRZqpBir06moyZZTprku+lQ7KYrCSTIWOiiRbGbNqVuOpS6aLHPbSklkozLJCH3eelS5qXLfg8dyty1Zx/76LNPpB5vHar9DKjwWk6F1zLKPfUp99Bjn5sO+z112eeuTbGzpvy51b4rKHHXocBjKXnumuS5LZWRJcNFjeyALUwMD/Ly6QumHwmCvKQ+2oNUayWZCgs89CkSF5NMcQbsNteneqcZTVHGHIgy53CsJcfirDkWZ8mhvWaczt1Gj7gLwoEyrvaf50uRmkVUfDor54hpi8TzKTkW/O6b9/zyy080JXpTFrya8tANVGzbQFXIBiqC1lLiv1KiTKRtz2UyVWc5a1HgPpu281x1yHHW5nRFknTFfykMw9PTvH/3jtbKNNJd1Snw1Z+NiP76FPktozRYn7IgfUp9ddjnp8ccrSWfsFzht6xV+i3rFH/DpiW/YbPybyQhhc3KWvszrLXnyuZDkNFVNChrFuCxej6eaxbhI2rDdYvwENFyrQLe6xXwFel77XzcVs7Fe80CfNcsnJ0Fr1eUrpeEADNujHRwZ1zUjVf+zsUzGxmf3LvH4/t35BX804dfeP/jT/z0x19oLs2j9cxxRkcHGR7s4ubkFcZH+oiwW8nWjUpYan9OsJESe0yXsNNoMTu3LCbKZAnRpkrEWCwmwVKRZBsViSQLBTLtVMiyVyXfSYNiV22KXZdSKsgmSOehIyNhzdbV1IWsoSZ4NbXbVtO4Y93Hr1fRtH0DTdvX0xy6gWpfPap9danyEdCbhbculd66VPnpUe2vx8EdGzgQYUhT5BYaIjbSGLGZgyLV7tjIgbQgHt3+gmdTz3g5/YJ7E1co8FsnGyJBRhGFRCRNtVMlzUGFkE1LiHNcTuX29ZRvW0952Doa9pjQEmtOU6wV5yoT6D5RTfvhUu5dHeBLQcCPWx1+xVMxn37Ei5kn/PGXP/Py0R0OxNpyJN6aQ3E2HEt24EiCLS3R5jRFW9AcY8nBvWbURIiywoCKYAPKA1dQ5mdAgUjXbktpiHfl8c3LfCU2dU1P8fWXrxlpbSHHR4t9oaspC10tlYi9Ftrk+iyncsd6ykNWsc9XnzmiU16p/BtWK/8jG5b8Px/J+E8Yqf0OC83PsNT6BAvNf8FK61Mc9D/HXkg3yz7FefmnOK34DNdV8yVE9ywaF491iz+S9XPcV32GpzAXrFuM79q/ulYW4r9Jlb6TNdwZ7+LxrXGmP0bGWQgy3pFd9czUA374/jt++O4n/vSX/8n5Y03yxoqTY2OM9fVydegS925+QWGUN76bluBrqEKm6zJSnYXArUminRapDktJtFMh3laZBCsl4i2UiDYRXfTvid78GbFG89hrPI94k/kkmi0g1VKBTFtl8uxVKPPWozLQQBKyOliQcgMtEZtoCFtHfeg6GsLW07JjEwfCN1MXsJxaf31q/JZR6a1Plc8y6gIM5Frhq0eFvy7NO9ZyeM9mDuwxomW3Ec27tnB4rynN0eacqchg+vEU049mU/Tg4XKqg1fSGL6FxnAjmiMNqd+xnqrQtVSFrKbQy4BdFstpjjahcvtaqd0VBaygNHgl+X4GkowDp+roOlEpnVJfiu0NYu+N3O4gnDQfiTnziJfPn/KXf/93Hoy2cjjelrNZbpxOd+VEuhOns105nmbPkURLjqfYcDLFjtNpDrREGdO805CmHZto3L6J5nBD+bmIenWs+yBfv3wuyfiHV2+5PtBKWeQmKrevoSJsLZXh66jYvpKKsHVUbV9LTcQ6yretZo6h1lyMND7FRONTjNV+h4mKIOEnknwiRVtqzcVq6Vzs9OZip/8vOCz7BIdln+K4/DNJRsflc6WuKBoaTyHjrJqP+/K5uC6fi5v+p3ismIuHJOU8vNcslMR0XTaPQ0UJ3B3r4OHkIE+EAP7r7juxu+4OM3fvS0J++4dv+OHHn/jwp//B1bEBdnmZMdbbzvhAv7RGic3nx2tKcdBdyC5LTdJcDUh3ERMJPXJ9DGbrRS8DCv1WUOq3khKfZeS6aJJtp0q2rSrplotIsVAg3mQRMYafsXfLZ0Rv/pSYLXNJslhEssVimSoz7JTJc1Wn1FuHMi89KgMMqA1bT1P4Jg6FG1ITsJIq/xVU+iyj1m8FDUGrqPHTp85/JfWBq2XtKV57JMacg3uMORy1hebdWzgYZ05DtBVdx6p4Nv2c6YdPefp4ikOpnjSGreXgni0SR2NNORFvybG9JhyN3cLJeHNSPNbQkOhIa6Erp7MdOZFuy4lMW46lO9J9uIieExVy09ULsR3j2czsRrBnMzwVm88+WrtezzzhzasX/Pt//BftNcm0RJlxJsOVs1lOEmcynbiQ68aZdEdJwvNZTpzLdORcthPHY0w5Fm3KkT0CJpyIMZH/p7aqeF5N3eX1U1EaPGfmwXUOZbrRHG9KU8wWDsSZcTjJiqZYUxpijGnZa0bTHiPm2OjPR8Baf76UblwMFHBdKWrCxbgYLMR15ULZsLiuWoDLyvk4G3wuhWzX1fOl49lj5Tw8V3+O19p5eK9diKuBOLruU1yWCWf0Z5KMnqs+l3Bb8Skeqz7HVc5gnbg51C5TtSTiHdFVC0JeZ+bubWbu3OPxvVtyS6MQvr/74YPc9xvpspmDFfmMjvQz0NvDrWsTtJ05jvkqBfbaqpFgp8lee01p2Mzz1CfPS598Hx1K/VdSGrCK/UL599Sl1EukUD3KPXUp91lGmc9yilyWUuqsTbGT6J41KPHSlmumvQopVoKwCyVp48zms9d8HomWC0m2XkymowrptksocNSk1E2Xcj8DaoLW0rR1HQ1BBtQHrKQmcCXN4es4FmPCwWhTWvaYyMh4INqEujhHeUuQZ9PTPJ9+zZ3L/TRFmXJg90aOx5hwcq85pxLNOZ1iIddTcSacSTChPmwzRVuN6d3vT3uBO+fzHLlQ4MTFijD6ju+j63gpI+3HeSObF0HGad6JHYozszsRhV3v+cxj/vDtt3z39dfk+G4m202TEhFl/VdQ6KdHga+u7H5rwjfQtGcLx5NsOJvhxPlMZ86nO3E4xozjMWYc2WPM8RhjTiUYczjdVR4pI7YZPH36iGfTj+isi+Zkti2nc+w4nmnH6Ux7zuU6cSrTlpMZtpzOcGKOw8r5OK0Qk5IFuK1djMf6JXhvVJVdsp+hGtvMlrLNRJ0wUw25hhirEWqqwVYjVbZuUSVErioEbV6C1yrhgv4Ez5Vz8Vw5Dy9B1JWf4bVqPj5rhJlBuKMXyIYmzHoZly42M3m5Xbp45P5kQcg7kzy5e52puw+YunOXlzPTfPjwI++//8DPH/5EapgH291NuNTfS39PL5eHRxkfHSLa05BIUyWiLMXeClWZptNctEl3UifLSY1cdx2KPPQoFrNlqQFqUOSkRpGTOqWuWrONibu2TLEVXnrUBq/mUKQRLeGbZCoq8zGgzHc55f4GFAi5x11bNiDp9iokWSmw11hE098TtelfiNk8lzijz4kz+oxEs/lkWimQZavEPh89Du8x5kisOcdiLTm025SD0WYcSPPlxpUxHj98JG1j3UeKOBy/iaNxWziZaMypJBNOJ1twJtWKs6mWnEw04XSSKadTLUn1WMPZAi96KnzpKvXkYrE77bWxDJyqpOfIPq5dapUp+m/bZKd4M/OEtzNPePFUSEjT/PHnn3n1cIIDeyxkCXE41pzmGFMqQtdSEriCfB9dCv1m3TW5Xksl8ny0KfTVpdRXlyJPdcr9l8nyoSFiM027zGhvKZQ641OxUe7FNIOnijmda0NbqTvtpe60FbvSVuJG534vWsXjYlfmOK/6XEY00ekGGSoTYqTGti0q0umy00qPXda67LbRnoX1UqJsddhppcVuWy1inHSJddIlzlGHPRaq7DJTJ9xEhQhhsTJSYcdmJUI3K7B142KC1y8iYO18+Xj7FmX81y/maEUyE5c7uC+mMbeuMn37OlPCfCHknjv3JBmfPnks9cb3337Ln/713zhSU4iN9u840lTN0GCvvO3XzZs3KE2JIHiN2IO7kJ2ii7ZWZa+NGnutlEm0ViHVXpV0R3XSbFWkJphhrUK2tRLZ1grk2KuQ66hGjp2KJGeJizoVvstoDF1P7dbV7Pdbxj5vPaqDV8lasWbbGqpC1tIcKeomIw5EGlEbvIYKUQp4ii5dg3RrRRJN50tCxm2ZS6zhJ+zd8ikZNktItVEm1U6FJNslJNspUZ2ylYd3bvPw3gMe3b5OW3kQFwvsOJtpxfl0C1pTLTifak5rhiVtWba0pttyLsWStkwrqiMMaYixY6AmiJ4yLzpK3OlpTGTwdCVdx8u4c22Ar4TmNy0ioyDkNG9mHvN2+jHPZqZ5/uw5//bv/8mNzgYO7NnEmWRrTqdacSHPlfZCdzqLPego9OBirhutOa6cTrejOcqQusj1VIYYsC9Qjxw3DVLsRGO4hFiTheze8AmxTpu4e+M6T+7e5tnjx0x2HeBMigWDlQH0VfrSU+4tSdlR5kV3hTdt+1yZI+q4wA1KhGxSJsxInR0mGkSYaxHnZECC80oSHJeR4Kgv12SXFSQ565HgqEOCkx4JwiTgtoI4B21irdTkfDTaXJm9ggjWYuymSpy1Onut1Ii2UCHeXotkt2Xy3+0yUaIqMYhrQxelcWKWjJPSDSQIOX33DtN378nO+ptvvpol4y//ynD3RWw0fkNGhI/cPdjbeYGJq1c4Vl+K75rfE7ZxHruMFYi1UiXWSoz9FGXTIjrpRBvhplEgwXQRiWaLSTRTIMl8MWnWSqQLWCqRY6VKro3yrM7oo0+Zj56MaCVeIrJqU+qtJ+tGIc2U+q2gPHgN1WKk57OcKv+VVPquoNx3ObVBq2jctoam0LU0bltLbeAqSj20KffTo9hTh1TbJcSYLiBs3W/I3uXKvTs3uHP7Ol8MHmew1o+hOl/6ytxoy7amI8uG9kwr2rOs6ci2kevFDEtaM6w4kWJDqsdm2iv96Kn0pbXUm+4D2fSfrKTndAXTd6/w5bO/J+PHyDj9mOfT03z5+iV/+R9/YbAhidNxRjLynkm04GyKHZ2F7rQVuHAxz5UL2S605rjQmuvM2Ux7TqZZcSpDNDt2tOc6cTzBnMaIDdSFrqEiaKWc21fGeNJan8/Zmjy6G5JozbShvciNkYat9Nf401PhQ/s+D7rKveit9maOaChEVAw2VCZIRDITNXZZ6RJlp8MeO11i7PTYa6dHsrMBiY7LibVdSpJwi3ivJtNvDekegrB6JDtqkyS8fg46pDjpkuKoTbLDUokkey1SnXTI9jIgxV2fVLflpLjoURBqzljHYW6MdvPk5viv0fHJ3Qke3/liNjrevsOb1y/57vsf+P7HD9LG7mesjvNqRc4fa6G/r5Ox0VF524cdhotJtNYkzUGDdGct0p01yXBUJc9FjSzx2EmDJEtFUiwF+ZaQYTGLdCsxxlMg1XwxWRZKZFgokG2nTL6zOnnOamQ5KJNpv0ROXnKc1Ei1UiFi8zziLZeQ7aIlI+5e80Wk26qSYSOwhCI3TVmP/rWzrhDjQG99msM3czremlOJVpxOtuJEshWnM+3oKfGgp8idzlJ3emt8GKz2pm+/O225tnTm2MooKAgoiNiZbTtLyHRrurJt5d+hOsGZvrpAuir86D2YS++xctm8vHx462ON+N/IOPOEZ9NTfPP+D3z49kvO5wVwOsWckwlmsi49GmvG6VR72vI9uJDjzPlsB06n23Auy16S8USKJWcz7biY58zFAle6Sjw5n2vPhVw72gRBMx3oK/FgsNSLS6Ve9OS70JZjx7ksG7oKXblUFUB/lZ+Mkp1lHnRVeDHHa/U8BLzXzMN3/QKCDRUJMVIizFSFMFNREy7BZ+08AjYuwnfdfEKMlxAhop+9FklOesRba0kPnYCwL2W6LyNDdLOuf4OYC5cErKcocD0FwRvkkD/fdxV5/mvoPFgoD4MXZ+w8/Hi+jUhVj+7cZOr2TaZu3ebF1BTffv89P77/wPtvv2Pfbi/2WmkRYKSN0xo1YpwNSPdYQUmALuVbl1MTto7a7UKwXUV50HLKApexz3c5Je66ZAtt0U4QRnk2GopO2WYxqZaLSTRfLAmZZLZQki/LYQmZ9sqyOUm1UpydQZsrkmihSIqNMsnWIi0tYK/pQmKNF5BgvJBEAbMFpFsvlmVAvr0SBQ4qlLhoStG8JXQDJ2IsOJlgwekkS4mLuc507/Oit8yTrmJXOotd6C51o7fEjbYMK9pTLSQZL6SZcyHNgtY0a1rTrLiYasmFVHMORpmQG2zExX1+XKwOo/doDj1HSuWF/m7qCW+EFe0jEUUD83rmMc+fPuL51BS//OnPPLt5meMJZpxONudsmjVnEy05FW/Gib2mdOS6cCHXSaZ/gfYid3r3+9G7z5v2IlcZ2XorfBio9qe/xo+2Ymd6RLQrdqej0FU+7sh3pCPbUZL0YpY157OsZQkwWBNEX5Uv/VW+dO5zY47vmgUESB1wPkGbFhO0WQH/zUoEb1IiWNR7W5QkZkmqTKiAiQJhJgqEbJhH6Pp5RGxZzE5jRaLMVSREuo63ViPRTlN2t1meKygO2si+kM2Ubt0kH5dtM6QwcAMH8yO50n9B3pLh3k1xCNN1eZDS41siZQtCCs3xEd++/4H3337gw89/4WRpAvleBrKmzQxcS12UCY17jKiN2ET9LkOao0xoiTaiYc9mGncZ0ii0wR0b5EivzFukWk2KPTQoFLNmF9HMqJLtoEKmtSJZlovJtFxMnqMaeU5qsv7LcVQh006JHCdVcp1VyXFQIddFjXwPLYoklpJlt0S+Jtt2CTlWyjLV54rHNkq/rjm2ShS5q8lxYlXwMupCV1K11UAW/UdFUyMIkGjByWQLzqWL9Gwvo19rkjltqZacSzLjXKIprYKEKRacS7bkfIoVrenWpHuu50C6K+2VkfQfKqC7JV9+ruL8w9dPBCFnm5e/NjKvpx/x6tkz/vV//Buj56o5mWxOe54TbVkOdOQ6cUH87kx72rMc6NnvRWepK9373One5ynRL8qCcm+6yjzprwlksG4r/bXBXKrbKonaV+ZNe6EL5zNs6cpx5WKmHa3ZDrR+/LnnMm1pzXdiSPzbKn/6Kn2YIwlnqEi4uTqhJiqEGitLhGxRYoeZGttNVQndskSaLXebaxJhpUakpQrhJkrysB5xVkrYlsVyT4gcwxkrSnLuMp4dye00UyRaNBLC/2anQbydBknO2mR6rSDTazllO+0YbRepukse3ikO53x0a4L7dybl7rip2/d4cucO77/6hu9++Jkf//Rv3By8SL7fWiLMNanZsYUDsZY0x5rQFL2Zo/GmnEqx5WSqNceSzTiRbM7xOBOOx5pyYNd6Dkas5dCOtRzcvpoDYatpCV1F49aVNAav/ChcL6PaT4/arfpUBelQ6a/Nfi8NStzVKPLUpEiQ2E2VUk91Sr00KXTXpNBDixwXZXKclMh3VCbfXpVCRzUKHFQlxON8exUKHFUpEP/WS1PKRqXeuhS6a1DooUZloD4VgbqU+Wmzz1ebikA9qoKW0RC8nKatBjSFreFAxAaO7tnCmXhzzidZ0ZpmR1uGAx1ZdtTsNCQ7xJSe+j10H8yn7WA+d8f75LGBrx4/4vWTx39HyGley3rxNf/6888MH0igPd+BrmIPOotc6Cp0pq/Unb4SN7pKXOkp82Cw0k82GoKEA5V+9Fb40l8TQF+1P301fgw3hnK5MYLxxkguN+6QBOvf50VXgag73ekp86a72FVG/q4CV3oK3egucqO71JOB2kC6qwKYs9VoMTvMVYiwUGenhSY7LTQIM13CdjNliVBTQUplosRmJkvhmNYk0kSFcGMlKaVEGiuww3gxkcaL2WWkQKThYnYZir0giuyxWEKsnYYkYrytMH8qS0RZCfe1CrtNFImyXErHwRKuDbVzb+Iy969f48EXN7gnTo4VWxlu3eShqBtfvePHH37mw09/YebODSJt9Ej1Xc2hFCuOpdpyItVG1jSiwG7Pd+dCjgMXcu1pzXXkYpa9rGFOJZhxZq8xZ2ONObfXmNPRmzm5ZyPHd23k2M5Ncj0auY6jO9dxcu8WjkZv4tCu9RzYuY6miNUc3LWWhu0G1ATrUxu8nOpgfcoDllLmp0mh8xIKnZQoclKhyFGNQkdV8u2VKXBQJs9BRXbseQ7KFLkoU+6tJSNzibcWRZ4aUhrZ768rpz2iWRKRttBDkxKPpTK1lzhrUuKqTrGrKkUuqhS4zqLIQ50STw3KfXWoDllDtLMezbk75MluFxrymbo+Lkn4VyK+mXok19dT0zJFf/f+W3745iV9ldsYqvBisNKb/nIP+is8GKr0YlA8V+FFf7knQ9UBXKoLoL82gMH6YEnES/VBDDeGMNwQynBjOCNNkYw2RzDcHEZvtR+dpR50y5TtRnexO51FrnQUutCZ7yKbnrYcRzrynekp9WSkNpA5ycIG77qcJBd94l10iXPSJtFJl712WkRZqbHbUpUYGw1ibdSJtlEnylLsmlNgtyCiiTAjzB7gE2M6iyhTMQteQpSFmpRvthsrEWujSpKdJnHWaiQIYjpoyueibFSJNFPiQPYORvvOcPvqoNzBdu/mJHduT3DnzuTs8WpfTDIz/YTvfvoj3374Cy9npkgJMeVkth1d+z3p3O9Ju7iiiz3oE7VMgRuteY605jnQlu/ExRx7WtMtOBm3mfOJJpyNNeJMzBbOxc3iVPRGzsRu4mysIWf3GnE+0Yy2TBtZl51LNud0gjEn4404nWjCqTgjjkVv5kSsMceiNnNkz3qORG2gPkifGn8dKrw12OehTInrEopdFClyViDfYTG5tovIs19MkbMS+z012OetSamPJiXegowalPkJMq5gv58wYOhQ6qUt1/2eOhS7aMxGWwd18h1UyXVQIU+4ZmT9q0yOw+x8fbeZCkVR/pysSuFsc4H0hz5/8oAXDx/I6PhKHP33+BEvn8xqjH/6+RemJi/QWeJIf4UvvftEPehOX7kbHYX29JQ607vPVXb1vWVuDDUEMdIYwlDDVoYawrhUt52x5khGmnbQVxPCqCBjU7hM10P1W+kt86azyE02ORdyHbgokOPAxWx7WkX9KAJGtj0X85zoLfNiTtHWtRQGrSc/UGAdhUEbKNq6kbyAdeR6C1PlKrK8DUj2EHs3dIkTqdZGnVgLURuqEG0uyKhIrIUSsUJwNl9CrPkSkqxVSXbQIslBnTRHsYtOlUQ7dflcooMGCfbqxNsLOUiR/K2mDLQe4PpQD48mxrg/Ocm9yWvcvz7Bg+uT3L8xyaM7d/nw3Q/8/Oe/yCPbatPsGG3ZJj+IkabtDNQG0y0KaVHLCL1NXI3iyix2paPImXNp5pyNN6It1YLWBBEZt8j17N4tnIndzPk4Iy7EG3Mu3kgStz3Hlk4hqWRYySbiQro5nbn2dGTacjHDhLbM2aaiPdtGrmf2GkpSH9+1jmO71nJ05xoOR6yiJWw5TSH6NG7Vo8pXk3IvDeoCdanwX0ploDbl/pqU+qpTHqBDdfByygP0KPYQPkoNynyWsl84Wrx0KRTeSmcNGXFFtBXkFNE201Y0VgpkWC0kxmQB0W5bOFy6l44j+3nx8A5PHz9gSh4N+PGIwMcPmHk0Wy/+5Zc/ca+vlqFqT662BHO5IZCRWl+Ga7y5VOXJYIUrg/vdGNzvSU+ZO/3VXow3hzLatENGwrGmCEYFDu5i+EA4fY1hDNaFMly3nZ4aQchgGfW6iz1oE5OhXHu68hzpzHWgM8+R9lxHOkQ3Lgia58Scqp1GlIcbUhGxhepdJtRFmVO104TqXabUR1tStdOUyggTKsK2UOq/liJfA2m6FGO2Au/l0oqe6bKUdHleihqJtirE2yiR6qxKirMqqS5qJDupkuSoTKqzGmku6iQ7qpPkoEaKg4b8XqKjPheaChnvvcCdyRFuX7nM7avj3Ju8wv3J69yfvMqdGxO8//obvvv2PVXZYfQ2hnPl0E5GmsNm65ZqP5k6RBoRpOwq8aBvvxddpW70FbtJ0fhcvBnHd26mNcGMC0miETDngiBhnBEXRWOQYCIjp9DyuvLtJSHbcmwkLmbb0FPgSFeWLW3plrTn2tGRZ0drni0dObZcSDahLdmE1vgttCYayccCF5OMOZ9gSGuiCefiTDgVb8hFIWSnW8ju+HSSCQeiNnBgz3qaI9dRF2oga0cRNUWjVeKpTrGnGnn2ojNXJs9uCVk2SmTaKJJhI5QAJdJtFsspT7K1ApEW2lRn7GS47ag8GOHxg7tMi/MpBQmf3GPq8QOeP3nMV2/e8sfv3nKvK5vxA1u5ciiEiUMhjDb6MFrnw0idNwMV7gxUujNY6cmlSvG1J5cbQrh6cCejByMYORjBcEskY83hjB+IpK8+lJ7abTJiDtWHMlgXxKX6QLr3udEjBO5CN9oLXOgocqGnyJWuPCfac+wlMTty7JlTtcuUCmF932NG015rudbsNpWkrBO2oVgrGvaYs3/7RirD1lGxbT2V2zZK5b86YhPVoeupDl1LTehGakM3UhGyltqdW2jcY0LdTiMqt2+iOHAFBf565HqLs1W0SBWTEEd10oVR02UpcTZqNKRF0H/xmLwPzE15+7Qxbo6NcmN0hMkrQ1y5PMKr12+5OtBNeawL188kMXpoF0MN2+irDuRSQ6hMHcO1QQxU+dBX5UVfpRd95R70lrpxIdWSjjRrOlIsaBedY4o5HUIySTKjNdGYtmRT2lPMaE0xozPXjq4CJ7oLXOjKF1eyHV35DvQVi3rHgbZcK7oFMQud6SxyoL/YmYtpZlxMN6c1xZiLSUZ0pJnRmSZ+h5n8uR2p5nQK8icZ0Z5lSb/oTItc6Ct1pTPfnu5CJ/pK3OkudKE125ZTqWacSDLlcKyY8Kxmn68m+c7KFDmJqKhIrt1iChyUKLBTJMdeiXTRyTsosdNkEalhLvJusC8FCQUZH91nSuIuzx6KU3pn68VvXz7mTmsSt89Hc+XgDm4c2cFESzBjjf6MNvhxucGPkVovLlV7MFTrw3BtACN1wVw5uJNrR/dw+fBORo/skalaRMjxA7sYbgjnUn0ow03bZFMz3BTGcF2ILKF6RUNT7E53gSu9RR5SuuoqcqYt157OfCfm1O42pjrahPq9ljREW0gC1snu1JrmeGuaYy2p321KVeQWqndspjZ8C3WRm6iL3CjX6h3rqY3YSP1O8b0N1O3ezKEkKw4nWHE8xY4DCZYcjheTAjtOpNlxNMmaQ/Hi+9YcibfiQIwZldvWyG0CLRmR9ByuYbj1lLz7/Fj3eS73iLuRXpA3JL97c4ya3N2cKA5g/FgsQwcj6a0Opq8ymEv1IlWH0FcxO2oarAlgsNJfor/YgwvplnTn2NGZaTMb2QSEhpdhRWuqGW1p5rQJMmVYSJKJD6qn2JX2AgfaCuzpKnZmQIzaCkWKsaOn0Emiu8iRnhIHLmaa05FuQUeqILUJnemCgKZ0ppnRlmxMe4oxnenmtIvvZ5rTVepMR7EjvSWimLelo8hR1mVC6O4udaG9wJ62Qgf5mu5iJ/ma88mmdKSL92vOWTGz3mvEwcgN1AQtp8RLnVx3ZeItF7DTfi13r1zi+YN7PH3wiKcPHvD0ocBDCdG8/PjDB55cPcUX5+K40xbP+LHtjB8M4fqRHYy3bGOsOZCx5gBGm/wZafDnUq0vIyKNN4Yw1hLOxJFoiSsHd0siDtXP1o+ibhyqC2WkPoThplBGmkIZbQ6T8k+nkIT2+9BT7CHRK1J4iSedhS6059szpyLKjMZYG+pjLKmNMach3ob6BFsak2xpTrShfo8pdXuMqRNpO1JoeFtoEN66nbNkFKjftYn6yM1S6xNkO5JkxfFUG+mBO5Rgzsk0W06nO3Ay3YETqXacSrPhXLajVPOFsn9CaGZZtnQWONMlGpEiVxnN5JuVXZgLXSVunC1wJTPClr76KIZadjPQuIOuqgD6RMHcuF1ekX1SsxJCqp8UU/uqREPjSJtIs6JmEdOLTGu6cmzpFr8z05r2DAvaswRE+rWl76Pg/Ncrt7PQUZKxu1TUn460FdrTWewkCdVT6kifIGOG2SwZ08xozzCjPd2MrgxzugQBU0zoSDGd/Z6ImDlW9JS5SZmjt8ydi4X2tJc40VPuSU+FJ73lHpKIrfl2s9JKqbgwnLmYaSXLhK4scVHZ0plhRVeOHb0iSufa0Zlnz7V6P46kO1EQ58X1jlyunstg5FQSIycSGDudyJVzaVw+ncyVkwlMnEng1vkEbp6P48bpPYw2BzF5OJSJQ2GMNwcz1hTIlQNbGW0KnCViQyCjDWGMiRJJRMfDexg/sJvR5h2MNm1npDFMElV8PdQYxqWGMEZbwhlr3MF4c7iUe0S6FsGis8SD7o+YrSvdmFOdbEd9gg01MRbU7rWiOdmBlmQHDqU50BhnSWO08NuZ0xxnScG2LVhqf0ZpmCGHYk2loNwSZUJztBEHY8w4kWovCXcmy5kz2c6czHDkpPDE5blxJteZ05nCKmQr7UNnsx2lsi/GSseSLDib6SDlGCHFiJmoeIMCnUVC+/KQ3VZVlBlVMbYMH4hkoHk3fXVhdFcHMdAQwnDzdi7Vhcr6UUZFoYEJQlb60JbvKNNqX74jvUJPy7WjO89Bpl5RF3Zk29Etfq9IFwX2MoUKIgqdTRKz1IW+fYI4QndzkpFSkFFEMEGUvmJXWrOt6MgRQrUlFwUJc6zpzbahP9uG7gxLujIs6MywlNFRkLGvzIO+MiGbeNMlaqr9HvTu96JfNGFV3nSXudC1b3Ya07PPncFqHzpENC4S6VysDvQUiW7Xjd5yd/neOkud6Cv3Yqg2mIwwc/oO7WHiXAI3z6UweTKBG2dFFEzlblsGt84nM3F8D9dO7GHyZDTXz8Zx+UgkYwdCmDy8XRLy6sEdXGnZznizQDiXm3ZwuSmc0YZZ8l0+EMnllt0So007GW3eJTF2YA+jTaKE2sGgaHaaIxhpjmC0JZK+Sn96hV5Z7k3fPk85dRJ/274yP+akBBuTGWrI/lhbauKdqUt0pTHZjapYe0p3WlAcYUpJuDmlO8yoirKgNsaMuhhrKiItqNptLlO8mIC0xFtxNN2J4+nOnMpx5XCGPYfThXdNPOfAwWQbDqXZciRZkNFFkvVQkgUNscYcTLTgYII5h5IsOZFhx9lcZ87nuXAuy4Fz2a6czXPhWI4zWUFGnCkNpbsmnP76KDqqwugqD6W/KlSmie5yf7rKvWUDI9BT4SdrlfMi+uWI6OhAW7YYSdnTke1MR5YDF9NsuJBqLXFR6JSZtrTlu9JW6ExrvgPns4V7xobWHCETOcuL5Xy2PRdyHLmYL4yn9rIbPJMiJiSmnE0w5oxY5WhNTEnMOSsmJ8nmnE8250yisH6Zc7HAiY4iD9qLPGgrcqNNZIBSERV96S0PpLtMTDdc6d0vZr52dJd70lkiSG8ntTnRiV7IEhnGVr4H8d7E+7yQY0t7iStp/hsoiHGkrzGU7vowuhu2010fSm9jBP2Nu+iu3U5XzVa6q0MYbAynpz6E3tpttBb60l7sS8/+IFoLPDiWas2JNAdOZbhyLMWB4+lOHE114WCSI8fSnLhY7EN7qT/nC7w4kenMySxXjme7cCDZlqZ4W5oT7Dmc7MSRFGeOJLtzNM2J5nhLjiTackAEwMgtNIuMHG3CnKGTKQwcjqWzPpLOmnC6a0O5WB1Id812Bhoj6W+KoLchlM66YDprQumo3EF7+XYGmnYz0BxFb12UJIZ4fXdtGL314XTVCMIE01u3jZ76YLrrttEnPozKIDpLfGkv8aJjn/jwXeWVPFgt0qqYb/rIDkwIqf11wQwfjGD0cASXD+xipCWOON8tnC/eysjBWAaadjLYHM6AuFIPRTF6YLeUGkYawxlqFDXLNsbqtzFQ7isj7KVyb/r3eTCwz4NLZQJeDJR60VfiQv8+Zxlt+osdGaj04lJtIJdq/Bmo8qW30kume1EDjdQFcqlaTCBEtxnAcK0/l6p9GW0IkpFTRs9iEbXs6StxZLDMWaK/dBbiud5SRwbKnBmp82Wkzo9hgfpAWZMN1Xsz2hgo5ZORhiAu1flyqdafoTp/Buv85Gt6Sl0YEN1ttbfEcI0PI6KxEO+lyoNLNZ4M13nJ9NeU6MyNc4lMnNrLxKlYxo/t4dqpWL44n8it1mQmz+xl8nQUk6d3M3E6luun4rlxIpaRlm1MHApn8lA4V0Wn3LiDqwcEwhmrD2W0LpTR+mCGavwZrhWdeARjLTu53LKToYZQ+TcYP7CH8YN7GJH1ZBhD9eGMNu5mqF7okrvorwhiYH8Afft86CkVWcGXOWOnM+g/EMNg8y4Gm3fSLwm4i77GSAZFXda0k776CPrqIhioj2SwPoIR8cc/IhqIGIYPxciUOdCyh+GD0Ywc2sPQgUhGDuyWEBrU2GHxeKds90W3O1wbKNPOSJ2//IOIdahWrMFcbgzhckMQo/UhXDsaw/ixaCaOx3Ay358zxUFcOxnPxLE4rh6NZfzobq4e2cPkx0L6r8X0SMsOxlq2c61lO0NVfgxV+TJU6c0lMUmo8GK0yofRSm8Gy9zpK3bmktDSylwYKHFhpNaP0YYARuvEB+3HUI0vw6JWagljXBTk4r3W+coi/7LQ3BoCudoYzFC5m8Sl/c4M7HNgsMyJS/td5c8Vz8mvyxzl9/r2uzAq/t8N4v/ty3C9P4NV3lwSv6s+SL730aYQRuoDGG4KZrQlhBFB0pZg6eYZqvaW/17ogSO1s48vN4jP0pPBag9G6ny43OzH4UwHeupDmTwTw8TpGCZO7uXaiVgmT8Vy/XSMTM/jR6MkrhyPYfzwHq4fi2WsUfzuIC43b5dSzkiDaFrCGG8MZbw+mOFqf4arfblU7cNAjT/jTdsYPxjJ6AGRxkVNOdtFXzk4W1OKrHWpLuzXrltolCLdC2+j9DfuF3Y5L/5fMTZJM0O2L2cAAAAASUVORK5CYII=;" parent="1" vertex="1">
          <mxGeometry x="110" y="116.63" width="123" height="163.75" as="geometry" />
        </mxCell>
        <mxCell id="1PQOqHi99bvH2CJPt65L-7" style="edgeStyle=orthogonalEdgeStyle;rounded=0;orthogonalLoop=1;jettySize=auto;html=1;exitX=1;exitY=0.5;exitDx=0;exitDy=0;entryX=0;entryY=0.5;entryDx=0;entryDy=0;" parent="1" source="1PQOqHi99bvH2CJPt65L-3" target="1PQOqHi99bvH2CJPt65L-6" edge="1">
          <mxGeometry relative="1" as="geometry" />
        </mxCell>
        <mxCell id="1PQOqHi99bvH2CJPt65L-3" value="&lt;font style=&quot;font-size: 18px;&quot;&gt;基于VLM的场景理解&lt;/font&gt;" style="rounded=1;whiteSpace=wrap;html=1;" parent="1" vertex="1">
          <mxGeometry x="294" y="168.5" width="186" height="60" as="geometry" />
        </mxCell>
        <mxCell id="1PQOqHi99bvH2CJPt65L-13" style="edgeStyle=orthogonalEdgeStyle;rounded=0;orthogonalLoop=1;jettySize=auto;html=1;exitX=0.5;exitY=1;exitDx=0;exitDy=0;" parent="1" source="1PQOqHi99bvH2CJPt65L-6" target="1PQOqHi99bvH2CJPt65L-8" edge="1">
          <mxGeometry relative="1" as="geometry">
            <Array as="points">
              <mxPoint x="620" y="250" />
              <mxPoint x="387" y="250" />
            </Array>
          </mxGeometry>
        </mxCell>
        <mxCell id="1PQOqHi99bvH2CJPt65L-6" value="“一个卧室，有四个椅子，一个桌子，桌子上有一篇矿泉水(x,y,z)和一个抹布(a,b,c)”" style="ellipse;whiteSpace=wrap;html=1;" parent="1" vertex="1">
          <mxGeometry x="530" y="158.5" width="180" height="80" as="geometry" />
        </mxCell>
        <mxCell id="1PQOqHi99bvH2CJPt65L-16" style="edgeStyle=orthogonalEdgeStyle;rounded=0;orthogonalLoop=1;jettySize=auto;html=1;exitX=1;exitY=0.5;exitDx=0;exitDy=0;entryX=0;entryY=0.5;entryDx=0;entryDy=0;" parent="1" source="1PQOqHi99bvH2CJPt65L-8" target="1PQOqHi99bvH2CJPt65L-15" edge="1">
          <mxGeometry relative="1" as="geometry" />
        </mxCell>
        <mxCell id="1PQOqHi99bvH2CJPt65L-18" style="edgeStyle=orthogonalEdgeStyle;rounded=0;orthogonalLoop=1;jettySize=auto;html=1;exitX=0.5;exitY=1;exitDx=0;exitDy=0;" parent="1" source="1PQOqHi99bvH2CJPt65L-8" target="1PQOqHi99bvH2CJPt65L-17" edge="1">
          <mxGeometry relative="1" as="geometry" />
        </mxCell>
        <mxCell id="1PQOqHi99bvH2CJPt65L-8" value="&lt;font style=&quot;font-size: 18px;&quot;&gt;基于LLM的用户指令解析及决策&lt;/font&gt;" style="rounded=1;whiteSpace=wrap;html=1;" parent="1" vertex="1">
          <mxGeometry x="294" y="290" width="186" height="60" as="geometry" />
        </mxCell>
        <mxCell id="1PQOqHi99bvH2CJPt65L-14" style="edgeStyle=orthogonalEdgeStyle;rounded=0;orthogonalLoop=1;jettySize=auto;html=1;exitX=1;exitY=0.5;exitDx=0;exitDy=0;entryX=0;entryY=0.5;entryDx=0;entryDy=0;" parent="1" source="1PQOqHi99bvH2CJPt65L-9" target="1PQOqHi99bvH2CJPt65L-8" edge="1">
          <mxGeometry relative="1" as="geometry">
            <mxPoint x="240" y="310" as="targetPoint" />
          </mxGeometry>
        </mxCell>
        <mxCell id="1PQOqHi99bvH2CJPt65L-9" value="用户输入：&lt;br&gt;“我渴了”" style="ellipse;whiteSpace=wrap;html=1;" parent="1" vertex="1">
          <mxGeometry x="110" y="290" width="120" height="60" as="geometry" />
        </mxCell>
        <mxCell id="1PQOqHi99bvH2CJPt65L-15" value="&quot;需要到(x,y,z)取水，再回原点&quot;" style="ellipse;whiteSpace=wrap;html=1;" parent="1" vertex="1">
          <mxGeometry x="530" y="285" width="150" height="70" as="geometry" />
        </mxCell>
        <mxCell id="1PQOqHi99bvH2CJPt65L-22" style="edgeStyle=orthogonalEdgeStyle;rounded=0;orthogonalLoop=1;jettySize=auto;html=1;exitX=0.5;exitY=1;exitDx=0;exitDy=0;" parent="1" source="1PQOqHi99bvH2CJPt65L-17" edge="1">
          <mxGeometry relative="1" as="geometry">
            <mxPoint x="270" y="500" as="targetPoint" />
          </mxGeometry>
        </mxCell>
        <mxCell id="1PQOqHi99bvH2CJPt65L-17" value="&lt;font style=&quot;font-size: 18px;&quot;&gt;路径规划当前点到(x,y,z)点&lt;/font&gt;" style="rounded=1;whiteSpace=wrap;html=1;" parent="1" vertex="1">
          <mxGeometry x="210" y="400" width="120" height="60" as="geometry" />
        </mxCell>
        <mxCell id="1PQOqHi99bvH2CJPt65L-28" style="edgeStyle=orthogonalEdgeStyle;rounded=0;orthogonalLoop=1;jettySize=auto;html=1;entryX=0.5;entryY=0;entryDx=0;entryDy=0;" parent="1" source="1PQOqHi99bvH2CJPt65L-19" target="1PQOqHi99bvH2CJPt65L-27" edge="1">
          <mxGeometry relative="1" as="geometry" />
        </mxCell>
        <mxCell id="1PQOqHi99bvH2CJPt65L-19" value="&lt;font style=&quot;font-size: 18px;&quot;&gt;路径规划(x,y,z)点到当前点&lt;/font&gt;" style="rounded=1;whiteSpace=wrap;html=1;" parent="1" vertex="1">
          <mxGeometry x="450" y="400" width="130" height="60" as="geometry" />
        </mxCell>
        <mxCell id="1PQOqHi99bvH2CJPt65L-20" style="edgeStyle=orthogonalEdgeStyle;rounded=0;orthogonalLoop=1;jettySize=auto;html=1;exitX=0.5;exitY=1;exitDx=0;exitDy=0;entryX=0.5;entryY=0;entryDx=0;entryDy=0;entryPerimeter=0;" parent="1" source="1PQOqHi99bvH2CJPt65L-8" target="1PQOqHi99bvH2CJPt65L-19" edge="1">
          <mxGeometry relative="1" as="geometry" />
        </mxCell>
        <mxCell id="1PQOqHi99bvH2CJPt65L-23" style="edgeStyle=orthogonalEdgeStyle;rounded=0;orthogonalLoop=1;jettySize=auto;html=1;exitX=0.5;exitY=1;exitDx=0;exitDy=0;" parent="1" source="1PQOqHi99bvH2CJPt65L-24" edge="1">
          <mxGeometry relative="1" as="geometry">
            <mxPoint x="270" y="600" as="targetPoint" />
          </mxGeometry>
        </mxCell>
        <mxCell id="1PQOqHi99bvH2CJPt65L-24" value="&lt;font style=&quot;font-size: 18px;&quot;&gt;基于LLM的精细化动作控制&lt;/font&gt;" style="rounded=1;whiteSpace=wrap;html=1;" parent="1" vertex="1">
          <mxGeometry x="210" y="500" width="120" height="60" as="geometry" />
        </mxCell>
        <mxCell id="1PQOqHi99bvH2CJPt65L-26" style="edgeStyle=orthogonalEdgeStyle;rounded=0;orthogonalLoop=1;jettySize=auto;html=1;exitX=0.5;exitY=1;exitDx=0;exitDy=0;entryX=0;entryY=0.5;entryDx=0;entryDy=0;" parent="1" source="1PQOqHi99bvH2CJPt65L-25" target="1PQOqHi99bvH2CJPt65L-19" edge="1">
          <mxGeometry relative="1" as="geometry" />
        </mxCell>
        <mxCell id="1PQOqHi99bvH2CJPt65L-25" value="&lt;font style=&quot;font-size: 18px;&quot;&gt;到达目标点&lt;/font&gt;" style="rounded=0;whiteSpace=wrap;html=1;" parent="1" vertex="1">
          <mxGeometry x="210" y="600" width="120" height="60" as="geometry" />
        </mxCell>
        <mxCell id="1PQOqHi99bvH2CJPt65L-30" style="edgeStyle=orthogonalEdgeStyle;rounded=0;orthogonalLoop=1;jettySize=auto;html=1;exitX=0.5;exitY=1;exitDx=0;exitDy=0;entryX=0.5;entryY=0;entryDx=0;entryDy=0;" parent="1" source="1PQOqHi99bvH2CJPt65L-27" target="1PQOqHi99bvH2CJPt65L-29" edge="1">
          <mxGeometry relative="1" as="geometry" />
        </mxCell>
        <mxCell id="1PQOqHi99bvH2CJPt65L-27" value="&lt;font style=&quot;font-size: 18px;&quot;&gt;基于LLM的精细化动作控制&lt;/font&gt;" style="rounded=1;whiteSpace=wrap;html=1;" parent="1" vertex="1">
          <mxGeometry x="455" y="500" width="120" height="60" as="geometry" />
        </mxCell>
        <mxCell id="1PQOqHi99bvH2CJPt65L-29" value="&lt;font style=&quot;font-size: 18px;&quot;&gt;返回当前点&lt;/font&gt;" style="rounded=0;whiteSpace=wrap;html=1;" parent="1" vertex="1">
          <mxGeometry x="455" y="600" width="120" height="60" as="geometry" />
        </mxCell>
      </root>
    </mxGraphModel>
  </diagram>
</mxfile>
